<?xml version="1.0" encoding="UTF-8" standalone="no"?>
<svg
   xmlns:dc="http://purl.org/dc/elements/1.1/"
   xmlns:cc="http://creativecommons.org/ns#"
   xmlns:rdf="http://www.w3.org/1999/02/22-rdf-syntax-ns#"
   xmlns:svg="http://www.w3.org/2000/svg"
   xmlns="http://www.w3.org/2000/svg"
   viewBox="0 0 49.146667 49.293331"
   height="49.293331"
   width="49.146667"
   xml:space="preserve"
   id="svg2"
   version="1.1"><metadata
     id="metadata8"><rdf:RDF><cc:Work
         rdf:about=""><dc:format>image/svg+xml</dc:format><dc:type
           rdf:resource="http://purl.org/dc/dcmitype/StillImage" /></cc:Work></rdf:RDF></metadata><defs
     id="defs6" /><g
     transform="matrix(1.3333333,0,0,-1.3333333,0,49.293333)"
     id="g10"><g
       transform="scale(0.1)"
       id="g12"><path
         id="path14"
         style="fill:#dc3822;fill-opacity:1;fill-rule:nonzero;stroke:none"
         d="m 144.445,42.4375 c 1.043,3.5703 -2.812,6.4609 -6.066,4.5742 -1.887,-1.1094 -2.566,-2.7539 -1.641,-4 0.84,-1.1601 0.801,-2.3242 -0.129,-2.5859 -0.914,-0.2578 -1.48,-1.1445 -1.238,-1.961 0.199,-0.8281 3.531,-0.6484 7.344,0.4141 3.808,1.043 6.75,2.6758 6.465,3.6133 -0.242,0.9258 -1.524,0.8828 -2.852,-0.0977 -1.328,-0.9843 -2.168,-0.9687 -1.883,0.043" /><path
         id="path16"
         style="fill:#dc3822;fill-opacity:1;fill-rule:nonzero;stroke:none"
         d="m 177.996,27.0039 c 2.133,3.7305 -1.637,6.4609 -4.09,2.9414 -1.328,-1.9219 -1.242,-3.1875 0.364,-4.1133 1.597,-0.8984 2.761,-0.539 3.726,1.1719" /><path
         id="path18"
         style="fill:#dc3822;fill-opacity:1;fill-rule:nonzero;stroke:none"
         d="m 225.684,11.7227 c -0.957,1.2617 -2.039,2.2265 -2.403,2.1289 -0.398,-0.0938 -0.359,-1.3438 0.039,-2.793 0.403,-1.42579 1.485,-2.40235 2.414,-2.14844 0.918,0.26562 0.875,1.52344 -0.05,2.81254" /><path
         id="path20"
         style="fill:#dc3822;fill-opacity:1;fill-rule:nonzero;stroke:none"
         d="m 270.164,4.35938 c 0.883,0.23437 1.445,1.10546 1.203,1.88671 -0.195,0.80079 -1.523,1.14063 -2.89,0.76172 -1.399,-0.3789 -1.961,-1.24218 -1.243,-1.90625 0.688,-0.66406 2.004,-0.98437 2.93,-0.74218" /><path
         id="path22"
         style="fill:#dc3822;fill-opacity:1;fill-rule:nonzero;stroke:none"
         d="m 274.98,0.0625 c 0.926,0.285156 1.485,1.27344 1.25,2.22656 -0.285,0.96875 -1.25,1.52344 -2.214,1.26953 -0.957,-0.28125 -1.528,-1.26953 -1.282,-2.22265 0.286,-0.968752 1.282,-1.535159 2.246,-1.27344" /><path
         id="path24"
         style="fill:#dc3822;fill-opacity:1;fill-rule:nonzero;stroke:none"
         d="m 254.191,95.6602 c 0.282,-1.0196 1.485,-2.1485 2.684,-2.4883 3.535,-1.0469 3.574,1.2656 0.039,2.875 -2.004,0.8984 -3.047,0.7539 -2.723,-0.3867" /><path
         id="path26"
         style="fill:#dc3822;fill-opacity:1;fill-rule:nonzero;stroke:none"
         d="m 178.605,114.992 c -3.136,1.18 -3.82,0.754 -4.738,-3.094 -1.523,-6.3 -1.125,-7.324 2,-5.14 5.785,4.078 6.672,6.73 2.738,8.234" /><path
         id="path28"
         style="fill:#dc3822;fill-opacity:1;fill-rule:nonzero;stroke:none"
         d="m 125.492,125.207 c -2.047,0.902 -3.09,0.762 -2.765,-0.383 0.281,-1.019 1.488,-2.129 2.687,-2.488 3.531,-1.027 3.574,1.262 0.078,2.871" /><path
         id="path30"
         style="fill:#dc3822;fill-opacity:1;fill-rule:nonzero;stroke:none"
         d="m 181.652,123.922 c -1.41,-0.402 -1.886,-1.363 -1.047,-2.149 0.887,-0.843 0.208,-1.304 -1.726,-1.125 -2.285,0.243 -2.766,-0.32 -1.684,-1.882 0.84,-1.227 3.254,-1.508 5.461,-0.625 2.129,0.882 4.129,2.007 4.414,2.507 0.965,1.707 -2.812,3.997 -5.418,3.274" /><path
         id="path32"
         style="fill:#dc3822;fill-opacity:1;fill-rule:nonzero;stroke:none"
         d="m 128.945,196.438 c -2.523,0.742 -2.484,1.425 0.121,3.351 1.493,1.102 2.168,0.738 1.969,-1.105 -0.16,-1.524 -1.086,-2.532 -2.09,-2.246 z m -32.1091,-25.27 c -0.1992,0.742 0.961,1.844 2.6094,2.449 1.6447,0.621 7.3397,3.649 12.6407,6.766 5.301,3.109 12.723,7.426 16.5,9.59 4.574,2.629 6.617,4.902 6.062,6.804 -0.406,1.586 0,5.039 0.961,7.707 1.649,4.715 1.61,4.778 -2.043,2.309 -2.089,-1.387 -5.343,-2.949 -7.273,-3.492 -1.883,-0.524 -3.809,-1.949 -4.207,-3.149 -0.523,-1.468 -1.008,-1.468 -1.406,-0.043 -0.325,1.188 -1.407,1.946 -2.367,1.684 -0.965,-0.258 -1.325,-1.867 -0.887,-3.57 0.48,-1.703 -1.082,-5.137 -3.488,-7.625 -2.536,-2.59 -4.583,-3.715 -4.899,-2.629 -0.285,1.019 1.363,3.226 3.613,4.914 3.09,2.23 3.532,3.39 1.684,4.437 -1.848,1.043 -3.09,0.563 -4.781,-1.847 -1.242,-1.785 -4.852,-4.075 -8.067,-5.078 -3.1677,-1 -6.8982,-3.594 -8.2653,-5.762 -1.4063,-2.188 -3.6133,-3.594 -4.9766,-3.188 -1.5664,0.461 -1.8477,0.118 -0.6836,-0.945 1.0039,-0.898 1.125,-1.848 0.3242,-2.066 -0.8125,-0.219 -1.0469,-1.969 -0.5234,-3.879 0.5625,-1.903 2.0039,-3.188 3.293,-2.825 1.2812,0.36 2.082,-0.285 1.7617,-1.382 -0.3242,-1.129 0.6445,-1.711 2.0898,-1.289 1.5235,0.406 2.5664,1.367 2.3281,2.109" /><path
         id="path34"
         style="fill:#dc3822;fill-opacity:1;fill-rule:nonzero;stroke:none"
         d="m 128.906,126.191 c 0.844,-0.804 2.328,-1.222 3.289,-0.964 0.965,0.261 1.047,1.125 0.164,1.902 -0.843,0.805 -2.324,1.226 -3.254,0.965 -0.96,-0.262 -1.042,-1.121 -0.199,-1.903" /><path
         id="path36"
         style="fill:#dc3822;fill-opacity:1;fill-rule:nonzero;stroke:none"
         d="m 125.254,257.93 c -0.238,0.968 -1.246,1.531 -2.211,1.269 -0.957,-0.261 -1.523,-1.269 -1.242,-2.23 0.238,-0.942 1.242,-1.504 2.207,-1.246 0.965,0.265 1.527,1.269 1.246,2.207" /><path
         id="path38"
         style="fill:#dc3822;fill-opacity:1;fill-rule:nonzero;stroke:none"
         d="m 275.344,119.848 c -1.047,-0.282 -2.727,0.984 -3.774,2.808 -1.121,1.949 -2.808,2.672 -4.011,1.77 -1.731,-1.27 -1.883,-0.828 -0.926,2.387 0.887,3.089 0.562,4.273 -1.563,5.476 -2.129,1.227 -2.609,1.004 -2.211,-1.023 0.325,-1.407 -0.562,-0.762 -1.929,1.445 -1.438,2.375 -3.567,3.574 -5.293,2.949 -1.574,-0.574 -3.137,0.02 -3.496,1.309 -0.364,1.363 0.562,2.246 2.168,2.086 2.449,-0.242 2.246,0.359 -1.321,4.355 -2.293,2.547 -4.902,4.457 -5.781,4.199 -0.887,-0.246 -1.934,0.715 -2.336,2.145 -0.555,2.004 0.488,2.043 4.504,0.094 v 0 c 2.891,-1.379 5.098,-3.692 4.973,-5.149 -0.157,-1.472 0.437,-2.472 1.289,-2.254 1.883,0.539 8.269,-5.496 15.855,-15.011 3.293,-4.075 4.895,-7.286 3.852,-7.586 z m -37.656,-12.246 c 1.003,0.265 2.046,-0.278 2.332,-1.243 0.285,-0.964 0.117,-1.828 -0.286,-1.945 -0.437,-0.125 -1.445,0.441 -2.324,1.227 -0.84,0.8 -0.719,1.683 0.278,1.961 z m 15.054,21.961 c 1.321,0.98 2.531,0.617 2.934,-0.926 0.562,-1.965 -0.117,-2.391 -2.934,-1.766 -4.012,0.902 -5.301,3.149 -3.094,5.496 0.813,0.887 1.29,0.266 1.133,-1.465 -0.207,-2.062 0.391,-2.484 1.961,-1.339 z m -64.793,9.187 c 1.043,0.266 2.09,-0.277 2.332,-1.242 0.285,-0.945 0.121,-1.828 -0.281,-1.945 -0.437,-0.118 -1.484,0.441 -2.324,1.226 -0.852,0.801 -0.723,1.684 0.273,1.961 z m -49.929,1.066 c 0.601,-0.343 0.718,-1.949 0.281,-3.57 -0.485,-1.605 -1.367,-2.652 -1.969,-2.308 -0.637,0.359 -0.723,1.964 -0.277,3.57 0.476,1.605 1.363,2.648 1.965,2.308 z m -6.661,118.918 c 2.606,4.559 3.368,2.071 1.243,-3.929 -1.289,-3.614 -1.004,-5.242 1.363,-7.731 2.367,-2.469 2.488,-3.129 0.644,-3.031 -1.328,0.059 -3.05,1.59 -3.855,3.375 -0.766,1.781 -3.856,4.273 -6.828,5.555 -6.539,2.793 -6.578,2.91 -3.485,9.414 2.407,5.039 2.567,5.105 5.821,2.531 2.527,-2.008 3.047,-3.395 2.043,-5.563 -1.926,-4.269 0.683,-4.812 3.054,-0.621 z M 278.594,75.0508 c 0.84,-3.0547 -0.078,-3.793 -2.246,-1.7891 -0.801,0.7227 -0.801,2.0508 0,2.9102 0.8,0.8633 1.804,0.3633 2.246,-1.1211 z m -15.653,40.5002 c 3.805,-2.168 3.805,-2.246 -0.363,-2.086 -3.73,0.14 -4.051,-0.285 -2.336,-2.953 1.211,-1.844 1.211,-4.231 0,-5.981 -1.597,-2.289 -1.394,-3.551 0.969,-6.0622 1.648,-1.7657 4.016,-3.5899 5.305,-4.0938 1.636,-0.6641 1.757,-1.3437 0.359,-2.3867 -2.41,-1.8906 -1.086,-6.9805 2.41,-8.9492 1.567,-0.9063 1.926,-1.7266 0.879,-2.0078 -2.281,-0.6446 1.887,-17.6993 4.492,-18.4688 1.047,-0.2969 1.692,0.2656 1.41,1.2891 -0.285,1.0039 0.321,2.0625 1.329,2.3437 1.043,0.2813 0.878,-2.207 -0.325,-5.539 -2.773,-7.5899 0.481,-18.5625 5.215,-17.6954 1.731,0.3164 4.055,0.7579 5.176,0.961 3.898,0.7226 2.336,4.1875 -3.445,7.7695 -5.903,3.625 -5.024,5.957 1.004,2.5664 1.804,-1.043 3.574,-1.0625 3.847,-0.043 0.723,2.4297 -2.605,6.9415 -4.687,6.3633 -0.965,-0.2617 -1.328,0.9414 -0.891,3.0313 0.402,1.9023 0.078,4.3945 -0.719,5.5195 -0.8,1.1211 -0.48,3.9141 0.645,6.1836 1.16,2.2852 1.277,5.2148 0.312,6.5391 -1.117,1.5078 -0.754,2.6523 0.926,3.1093 1.934,0.543 2.61,-0.3593 2.492,-3.3281 -0.121,-3.2305 0.36,-3.6992 2.371,-2.1875 2.082,1.5274 2.571,0.9844 2.649,-2.8711 0.074,-3.914 0.633,-4.4804 3.211,-3.2734 1.965,0.9219 3.164,0.5234 3.254,-1.0586 0.117,-1.6055 1.035,-1.8906 2.566,-0.7656 2.207,1.6445 3.77,0.082 4.094,-4.0743 0.113,-1.4062 4.695,-7.3242 7.664,-9.9335 0.359,-0.3204 1.57,0.7578 2.687,2.3671 1.485,2.0899 2.215,2.3477 2.618,0.9219 0.269,-1.1055 -0.45,-2.75 -1.692,-3.6523 -1.203,-0.9024 -1.523,-2.5899 -0.683,-3.75 0.847,-1.1485 2.492,-1.4297 3.613,-0.586 1.601,1.1602 2.375,-0.3437 3.418,-6.4843 1.64,-10.0118 4.687,-11.0977 7.859,-2.8477 1.653,4.2539 3.176,5.918 4.699,5.0781 3.133,-1.7851 5.54,-0.8008 3.332,1.3828 -0.996,1.0039 -0.996,1.4063 0.047,0.8829 3.528,-1.7852 4.168,-6.2383 1.114,-7.9883 -1.922,-1.1016 -2.571,-3.0508 -1.719,-5.1953 0.762,-1.8868 0.281,-4.0938 -1.043,-4.9024 -1.809,-1.1211 -1.965,-0.9609 -0.606,0.7031 1.004,1.2071 0.965,3.3555 -0.078,4.8008 -2.609,3.4922 -5.254,2.5117 -4.14,-1.5664 1.093,-3.9726 -1.645,-6.2617 -6.821,-5.6992 -2.125,0.2383 -2.886,0.7422 -1.726,1.1406 2.93,0.9844 1.769,4.3633 -1.238,3.5313 -1.329,-0.375 -2.571,-2.1875 -2.778,-4.0313 -0.281,-2.9687 -0.679,-3.1328 -3.086,-1.3242 -1.531,1.1211 -4.336,1.8906 -6.265,1.6875 -1.887,-0.1797 -5.618,0.3633 -8.262,1.2031 -3.899,1.2657 -4.699,1.1016 -4.301,-0.8633 0.402,-1.789 0.156,-1.9062 -0.965,-0.4804 -0.8,1.0586 -2.246,1.707 -3.254,1.4414 -0.964,-0.2578 -0.964,-1.5625 0,-2.9102 1.086,-1.4218 0.93,-2.1445 -0.281,-1.7812 -1.164,0.3398 -2.043,2.2265 -1.965,4.2304 0.082,2.0079 -0.679,3.3946 -1.726,3.0938 -3.446,-0.9453 -4.532,-0.9023 -5.782,0.2383 -1.203,1.0664 -4.929,2.1289 -26.367,7.4883 C 242.91,47.1914 207.461,60.7578 191.691,68.6875 149.777,89.8203 112.969,119.566 90.7734,150.254 73.9961,173.438 65.2852,196.297 62.875,223.473 v 0 c -1.082,12.285 -0.4414,29.3 1.4844,37.711 0.4453,1.949 0.9258,4.836 1.125,6.425 0.1601,1.602 1.3242,6.543 2.6054,11.02 1.2461,4.453 2.8907,11.215 3.6993,15.027 0.7226,3.817 2.3242,8.953 3.5273,11.442 1.9297,4.054 1.8086,4.699 -1.1211,6 -4.418,1.988 -4.6601,3.757 -0.8047,6.004 1.8086,1.023 3.4492,1.14 3.6953,0.257 0.2383,-0.879 2.9688,0.387 6.0196,2.793 6.1054,4.774 10.6797,4.356 12.2031,-1.144 0.4453,-1.606 2.0078,-3.594 3.4922,-4.434 1.4492,-0.828 2.1682,-1.629 1.6092,-1.789 -0.6053,-0.156 1.762,-3.508 5.215,-7.441 3.453,-3.938 6.066,-7.531 5.82,-7.996 -0.238,-0.457 -2.207,-1.457 -4.332,-2.207 -2.129,-0.754 -3.457,-2.227 -2.894,-3.289 0.562,-1.145 -0.278,-1.809 -2.125,-1.622 -2.4104,0.235 -2.6096,-0.406 -0.926,-2.992 1.488,-2.285 1.32,-4.097 -0.48,-5.879 -1.4497,-1.425 -1.9263,-3.015 -1.0044,-3.535 0.8824,-0.504 1.0434,-2.207 0.3204,-3.777 -1.0001,-2.188 -0.6368,-2.684 1.406,-2.121 1.442,0.398 2.77,1.824 2.93,3.148 0.199,1.93 0.441,1.989 1.008,0.281 1.277,-3.695 4.293,-1.367 3.207,2.489 -0.723,2.527 -1.731,3.133 -3.328,1.926 -3.938,-2.872 -3.414,0.984 0.757,5.703 2.168,2.441 4.7,5.797 5.621,7.461 1.485,2.57 2.333,2.691 5.661,0.75 2.129,-1.246 3.652,-3.157 3.375,-4.2 -0.286,-1.086 -1.047,-1.101 -1.77,-0.019 -2.008,2.992 -5.781,1 -5.742,-3.008 0.086,-4.117 4.976,-7.168 7.391,-4.578 2.367,2.531 7.339,-0.402 13.804,-8.129 3.172,-3.793 8.43,-9.336 11.723,-12.305 6.426,-5.882 7.664,-7.769 4.375,-6.8 -1.359,0.394 -1.359,-0.786 -0.078,-3.176 1.558,-2.871 1.121,-4.953 -1.77,-8.465 l -3.894,-4.68 2.168,4.481 c 1.406,2.929 1.406,4.711 0,5.117 -1.489,0.437 -1.926,1.844 -1.36,4.316 0.645,2.746 0.078,3.731 -2.168,3.95 -4.781,0.464 -6.226,-0.383 -5.465,-3.196 0.407,-1.426 -0.078,-2.824 -1.039,-3.09 -2.207,-0.601 -2.25,-0.359 -0.961,6.465 0.555,3.149 0.961,6.965 0.883,8.473 -0.246,3.371 -9.238,15.371 -12.164,16.234 -3.054,0.883 0,-8.91 3.489,-11.195 2.773,-1.832 -4.696,1.098 -10.598,4.148 -4.297,2.207 -4.938,1.493 -1.723,-1.906 2.887,-3.008 2.809,-7.785 -0.121,-9.695 -1.644,-1.082 -0.48,-8.324 1.891,-11.754 0.754,-1.086 2.804,-1.59 4.527,-1.086 1.77,0.477 4.02,0.117 4.984,-0.805 1.844,-1.668 -1.285,-2.086 -8.71,-1.183 -2.333,0.281 -3.172,-0.407 -2.692,-2.192 0.399,-1.441 -0.316,-3.39 -1.605,-4.332 -2.809,-2.09 -2.325,-4.922 0.718,-4.219 1.207,0.286 3.856,0.329 5.907,0.067 3.007,-0.363 3.328,0.055 1.804,2.141 -2.609,3.535 0.68,4.179 3.934,0.765 1.805,-1.887 2.129,-3.527 1.082,-5.379 -1.168,-2.047 -0.805,-2.847 1.566,-3.574 2.207,-0.68 2.411,-1.098 0.762,-1.582 -1.242,-0.363 -1.566,-1.328 -0.637,-2.168 2.805,-2.594 5.211,3.012 3.129,7.246 -2.769,5.574 1.403,7.684 8.715,4.434 4.817,-2.11 5.527,-2.93 3.164,-3.633 -1.64,-0.504 -2.773,-1.887 -2.449,-3.07 0.398,-1.485 -0.156,-1.504 -1.723,-0.079 -2.691,2.426 -4.418,0.34 -3.816,-4.636 0.238,-2.071 1.73,-3.43 3.652,-3.41 2.332,0.039 2.168,-0.329 -0.683,-1.266 -4.692,-1.547 -5.493,-5.82 -1.762,-9.457 2.367,-2.305 2.566,-2.027 1.406,2.25 -0.722,2.684 -0.523,4.676 0.399,4.414 1.57,-0.48 4.41,-10.617 4.656,-16.695 0.039,-1.528 1.004,-2.313 2.168,-1.727 1.121,0.559 2.371,-0.246 2.812,-1.789 0.645,-2.328 0.203,-2.566 -2.492,-1.367 -1.765,0.824 -3.574,0.91 -3.973,0.207 -0.402,-0.703 1.122,-1.809 3.368,-2.492 2.414,-0.703 3.972,-2.407 3.855,-4.196 -0.164,-1.644 0.246,-2.25 0.844,-1.32 0.562,0.918 2.652,0.359 4.617,-1.269 2.207,-1.801 3.059,-3.551 2.168,-4.512 -2.41,-2.75 0.078,-8.035 2.852,-6 1.328,1 0.515,-1.707 -1.805,-6.024 -2.375,-4.316 -5.141,-8.089 -6.106,-8.367 -4.621,-1.347 -5.539,-4.621 -2.492,-8.773 2.934,-3.996 1.614,-6.688 -1.726,-3.551 -0.879,0.801 -2.364,0.617 -3.289,-0.406 -1.645,-1.801 -2.364,-2.227 -7.707,-4.254 -1.442,-0.563 -3.575,-4.715 -4.653,-9.235 -1.808,-7.285 -1.691,-8.425 1.239,-10.089 3.218,-1.832 5.019,-0.883 10.964,5.8 0.399,0.418 -0.683,1.2 -2.328,1.743 -2.211,0.742 -1.812,1.043 1.606,1.187 3.047,0.141 5.496,1.582 7.222,4.297 1.411,2.238 4.536,5.691 6.946,7.664 2.89,2.387 3.769,4.336 2.566,5.938 -1.004,1.367 -0.879,2.109 0.285,1.769 1.121,-0.324 3.86,1.645 6.067,4.395 5.254,6.445 7.254,6.863 11.113,2.246 2.371,-2.868 3.57,-3.172 4.891,-1.282 0.968,1.383 2.773,2.207 3.972,1.848 1.489,-0.445 1.457,-1.789 -0.191,-4.059 -2.285,-3.187 -2.207,-3.265 1.16,-1.242 4.016,2.391 5.945,-0.179 2.168,-2.933 -1.563,-1.16 -1.68,-2.989 -0.242,-5.453 1.609,-2.856 1.133,-4.961 -2.082,-9.039 -2.61,-3.305 -3.535,-6.196 -2.449,-7.645 0.917,-1.281 0.839,-2.57 -0.247,-2.848 -2.812,-0.804 -1.484,-3.593 1.844,-3.937 4.301,-0.399 10.039,5.097 10.879,10.441 0.488,2.91 0.129,4.492 -0.953,4.215 -0.93,-0.262 -1.367,-1.648 -0.969,-3.07 0.403,-1.449 -0.039,-2.828 -1.008,-3.094 -1.043,-0.281 -1.406,1.344 -0.914,4.273 0.645,4.137 1.356,4.637 5.379,3.993 2.969,-0.457 5.047,-2.207 5.774,-4.793 1.093,-3.879 3.894,-4.899 4.707,-1.684 0.191,0.82 0.359,0.399 0.39,-0.969 0.086,-3.566 6.903,-7.144 7.789,-4.07 0.481,1.625 2.493,1.242 6.262,-1.227 4.981,-3.234 5.059,-3.371 0.723,-1.406 -4.258,1.969 -4.735,1.91 -4.016,-0.64 0.442,-1.586 0.969,-3.477 1.164,-4.176 0.164,-0.723 1.328,-1.043 2.531,-0.723 1.211,0.344 2.45,-0.398 2.774,-1.625 0.359,-1.226 1.601,-2.566 2.773,-2.969 2.965,-1.023 5.938,-9.996 3.563,-10.66 -1.082,-0.281 -1.082,-2.226 0.051,-4.476 1.394,-2.844 1.199,-3.891 -0.649,-3.711 -2.41,0.218 -2.605,-2.4886 -0.601,-8.6331 0.398,-1.2461 -0.481,-2.1289 -1.973,-1.9805 -1.914,0.1797 -2.285,-1.2265 -1.242,-5.039 0.969,-3.5117 2.129,-4.8399 3.457,-3.9375 1.035,0.7656 3.769,0.5429 6.054,-0.5 3.782,-1.7461 3.934,-1.7071 2.297,0.664 -1.007,1.3829 -1.172,3.6485 -0.402,5.0157 1.035,1.8476 0.879,2.3437 -0.684,1.9297 -1.121,-0.3282 -2.332,0.2773 -2.617,1.3437 -0.273,1.0586 0.723,1.8008 2.254,1.6445 3.051,-0.3007 4.133,6.0586 1.527,8.5274 -0.917,0.8242 0.321,1.9731 2.848,2.6761 2.445,0.675 4.211,2.043 3.938,3.066 -0.282,1.004 0.351,1.586 1.433,1.262 1.098,-0.301 1.821,-1.985 1.653,-3.707 -0.243,-2.414 0.324,-2.6917 2.414,-1.145 1.519,1.098 3.445,2.207 4.336,2.446 2.324,0.644 0.308,6.402 -2.981,8.429 -2.246,1.406 -2.285,1.606 -0.039,1.063 1.57,-0.422 3.059,0.406 3.496,1.929 0.606,2.047 1.602,2.125 4.738,0.36 z m 43.993,-7.227 c 0.039,-1.043 -6.621,3.137 -6.946,4.375 -0.191,0.645 0.93,1.047 2.407,0.906 1.531,-0.164 2.886,0.766 3.093,2.043 0.207,1.77 1.289,-3.632 1.446,-7.324 z m -37.371,-9.7302 c -0.84,1.1445 -0.637,2.7852 0.527,3.6292 2.129,1.566 4.449,1.004 5.098,-1.243 0.632,-2.4292 -4.102,-4.4761 -5.625,-2.3862 z m 9.91,0.2578 c 0.246,-0.8633 -0.442,-2.8868 -1.563,-4.4766 -2.566,-3.7109 -3.332,-0.7617 -0.801,3.1328 v 0 c 1.086,1.6289 2.129,2.2305 2.364,1.3438 z m -8.387,-10.2149 c -0.273,1.0235 0.281,2.0664 1.25,2.3281 0.918,0.2618 1.805,0.1407 1.922,-0.2812 0.129,-0.4258 -0.438,-1.4688 -1.199,-2.3281 -0.801,-0.8438 -1.692,-0.7227 -1.973,0.2812 z m 12.566,5.6602 c -0.285,-1 0.887,-1.9492 2.649,-2.1289 1.726,-0.1602 2.769,-0.9219 2.332,-1.6836 -0.891,-1.6055 -7.07,0.8633 -7.676,3.0898 -0.234,0.8399 0.41,1.75 1.406,2.0274 1.004,0.2812 1.614,-0.3008 1.289,-1.3047 z m 26.328,2.4844 c 0.129,-0.418 -0.441,-1.4571 -1.242,-2.3047 -0.797,-0.8633 -1.636,-0.7188 -1.922,0.2812 -0.285,1.0235 0.235,2.0703 1.204,2.3281 0.964,0.2618 1.843,0.1211 1.96,-0.3046 z M 334.59,75.332 c 0.398,-1.5078 -0.156,-2.4492 -1.277,-2.1289 -1.133,0.3438 -2.208,1.3242 -2.493,2.2266 -0.246,0.9062 0.325,1.8672 1.282,2.1289 0.964,0.2578 2.089,-0.7422 2.488,-2.2266 z m -8.352,-31.1914 c -1.843,-0.5039 -2.808,1.7617 -1.597,3.8711 0.437,0.7852 1.597,1.1836 2.566,0.9063 2.129,-0.625 1.406,-4.1172 -0.969,-4.7774 z m 19.231,11.8633 c 0.285,-0.9648 0.039,-3.1328 -0.481,-4.8203 -0.515,-1.6875 -1.168,-2.2852 -1.441,-1.3242 -0.246,0.9453 -0.039,3.1094 0.476,4.7929 0.528,1.711 1.204,2.293 1.446,1.3516 z m 14.375,-10.8828 c -0.164,-2.0234 -0.965,-3.0469 -1.809,-2.2695 -0.847,0.7656 -1.172,2.7109 -0.68,4.2968 1.161,3.9375 2.848,2.5508 2.489,-2.0273 z m -0.086,-7.4258 c 3.66,-2.5469 3.289,-2.7265 -4.531,-2.207 -3.293,0.2226 -5.743,1.2265 -5.461,2.2265 0.285,1.0274 -0.606,1.5274 -2.051,1.1446 -1.395,-0.3946 -2.645,-1.7852 -2.727,-3.0938 -0.078,-1.3203 -0.64,-2.1015 -1.199,-1.7422 -0.566,0.3633 -0.566,3.1524 0.031,6.2032 v 0 c 1.289,6.3789 5.664,7.6445 10,2.832 1.563,-1.7695 4.254,-4.1797 5.938,-5.3633 z M 313.074,24.5078 c -0.113,0.4258 0.442,1.4688 1.25,2.336 0.805,0.8359 1.684,0.7148 1.926,-0.3086 0.32,-1.0039 -0.242,-2.0469 -1.211,-2.3047 -0.957,-0.2657 -1.844,-0.1367 -1.965,0.2773 z m -11.199,0.9453 c 2.813,4.3164 2.813,4.3164 1.484,-0.2422 -0.722,-2.5234 -1.921,-4.7382 -2.644,-4.9336 -2.094,-0.5859 -1.848,0.5196 1.16,5.1758 z m -16.453,-5.664 c -0.883,0.7812 -0.727,1.6718 0.281,1.9531 0.996,0.2812 2.039,-0.2813 2.324,-1.25 0.286,-0.9375 0.118,-1.8242 -0.285,-1.9414 -0.437,-0.0977 -1.48,0.4375 -2.32,1.2383 z m -76.789,23.1054 c 1.847,-1.289 1.601,-2.0039 -0.891,-2.8867 -3.406,-1.2265 -5.172,0.7578 -2.887,3.2305 0.719,0.7617 2.411,0.6211 3.778,-0.3438 z m -12.969,-8.5078 c -0.488,0.3203 1.047,3.1485 3.367,6.2852 l 4.258,5.6758 -3.367,-6.2618 c -1.856,-3.4531 -3.738,-6.0234 -4.258,-5.6992 z m -7.187,6.418 c -7.149,0.1641 -8.672,2.1289 -2.649,3.3359 3.254,0.6602 5.863,0.1797 6.223,-1.1679 0.437,-1.5625 -0.684,-2.2461 -3.574,-2.168 z m -16.219,8.4141 c 0.164,1.5039 -0.688,2.8085 -1.887,2.8671 -1.484,0.0821 -1.68,0.6446 -0.644,1.75 v 0 c 0.847,0.9024 2.937,-0.039 4.66,-2.1132 2.605,-3.125 2.691,-3.8711 0.398,-4.5079 -1.68,-0.4648 -2.683,0.3165 -2.527,2.004 z m -15.891,-4.9375 c -1.164,0.0546 -1.648,1.2617 -1.164,2.8867 0.598,2.0508 1.281,2.3086 2.649,1.0664 2.128,-1.9883 1.328,-4.1328 -1.485,-3.9531 z m -28.422,20.9726 c -0.406,1.5078 0.16,2.4453 1.285,2.1289 1.122,-0.3203 2.247,-1.3242 2.489,-2.2305 0.238,-0.9023 -0.321,-1.8671 -1.289,-2.1289 -0.961,-0.2578 -2.086,0.7461 -2.485,2.2305 z m -7.027,6.4649 c -0.801,1.2617 -2.93,3.2539 -4.695,4.4335 -3.735,2.4844 -7.629,9.5118 -4.778,8.6915 1.043,-0.3204 2.129,-1.3868 2.407,-2.3672 0.281,-0.9805 2.613,-3.336 5.136,-5.2188 2.575,-1.8906 4.379,-4.4414 4.055,-5.6406 -0.441,-1.4453 -1.164,-1.4063 -2.125,0.1016 z m -17.742,4.5546 c -3.7307,1.6875 -3.8088,1.5039 1.289,3.2305 3.527,1.207 4.09,0.9258 2.969,-1.5234 -1.047,-2.293 -2.047,-2.6914 -4.258,-1.7071 z m 16.219,8.8868 c -0.161,-1.543 -1.129,-2.5664 -2.129,-2.2657 -2.125,0.625 -2.891,2.6289 -1.731,4.6368 1.328,2.3671 4.137,0.6445 3.86,-2.3711 z m -8.672,15.4378 c -0.282,0.961 -0.16,1.824 0.285,1.953 0.437,0.117 1.48,-0.446 2.32,-1.227 0.848,-0.804 0.727,-1.6717 -0.277,-1.949 -1.043,-0.2812 -2.09,0.2578 -2.328,1.223 z M 80.8984,94.2344 c -0.8437,-0.2383 -2.4062,0.7226 -3.4531,2.1289 -1.5664,2.1289 -1.3281,2.3086 1.4063,1.082 3.6914,-1.6836 4.2539,-2.5898 2.0468,-3.2109 z m -2.0468,6.6836 c -0.2813,0.965 0.164,2.453 0.9648,3.293 0.8008,0.863 1.6445,0.781 1.9258,-0.184 0.2422,-0.941 -0.1992,-2.425 -0.9649,-3.289 -0.8007,-0.8396 -1.6835,-0.7614 -1.9257,0.18 z m 8.8281,8.273 c 1.0078,0.278 2.0469,-0.265 2.332,-1.226 0.2383,-0.961 0.1211,-1.828 -0.3242,-1.949 -0.3984,-0.118 -1.4414,0.445 -2.2852,1.226 -0.8828,0.801 -0.7226,1.664 0.2774,1.949 z m -15.8125,-6.683 c -4.2539,-0.344 -7.3438,2.168 -3.8086,3.133 2.7617,0.781 7.6641,-0.102 8.0273,-1.45 0.1993,-0.722 -1.7304,-1.484 -4.2187,-1.683 z m 23.6016,12.801 c -0.2813,0.949 0.4023,1.468 1.5273,1.129 1.125,-0.325 2.2422,-1.368 2.5312,-2.333 0.2344,-0.941 -0.4453,-1.464 -1.5664,-1.14 -1.125,0.34 -2.2539,1.383 -2.4921,2.344 z m -8.1875,3.933 c -3.6915,2.207 -3.6524,2.274 0.8046,1.344 2.5235,-0.523 4.2539,-1.563 3.8516,-2.305 -0.4414,-0.742 -2.4883,-0.32 -4.6562,0.961 z m -0.3243,5.102 c -4.0898,1.644 -7.9414,2.289 -8.5078,1.402 -0.5625,-0.883 -0.8398,0.117 -0.6015,2.227 0.7617,7.789 0.3984,10.398 -1.4024,9.918 -1.0117,-0.282 -2.0898,-1.426 -2.4101,-2.547 -0.3633,-1.125 -1.5625,-2.274 -2.6914,-2.551 -1.1641,-0.281 -0.8438,0.742 0.6445,2.266 2.207,2.25 2.207,2.953 -0.082,3.636 -2.0469,0.621 -2.2071,1.024 -0.6016,1.481 1.168,0.344 1.9219,1.406 1.6445,2.347 -0.2422,0.969 -1,1.387 -1.6445,0.95 -0.6445,-0.426 -1.4063,0 -1.6445,0.941 -0.2813,0.965 0.1601,1.703 0.9218,1.66 0.8008,-0.035 1.2071,0.703 0.961,1.672 -0.2774,0.961 -1.1992,1.547 -2.0469,1.305 -0.8828,-0.246 -3.9727,1.906 -6.9414,4.754 -5.9414,5.742 -6.8203,7.207 -3.7734,6.304 1.3203,-0.382 1.0429,0.723 -0.8086,3.231 -1.5235,2.105 -2.4844,4.332 -2.1211,4.98 0.3593,0.621 -0.6407,2.485 -2.2071,4.133 -1.8867,1.985 -2.3711,3.535 -1.4062,4.555 0.7617,0.863 0.9609,3.269 0.3594,5.359 -0.8047,2.746 -1.3243,3.028 -1.9297,1.082 -0.6367,-2.207 -1.1602,-2.246 -2.6446,-0.261 -1.125,1.55 -0.8437,2.71 0.7618,3.152 1.4062,0.379 2.3671,1.426 2.1289,2.308 -0.2852,0.883 -0.3243,3.168 -0.1993,5.098 0.1993,2.774 -0.246,2.473 -2.207,-1.441 -1.6875,-3.399 -2.8906,-4.297 -3.8594,-2.934 -0.7617,1.082 0.1211,4.156 1.9688,6.805 v 0 c 2.25,3.23 2.6523,5.461 1.2461,6.758 -1.6485,1.55 -2.168,1.207 -2.332,-1.621 C 45.2891,198 45.1328,198 43.207,201.273 c -1.125,1.95 -1.3672,3.735 -0.5195,3.954 0.8398,0.242 0.7148,1.687 -0.2852,3.211 -1.6835,2.632 -1.6054,2.652 1.5235,0.445 1.8515,-1.289 3.6953,-1.684 4.1367,-0.883 0.4766,0.801 1.1602,0.34 1.6055,-1.008 0.4062,-1.328 3.414,-10.957 6.664,-21.355 6.8243,-21.774 19.8711,-45.84 31.1094,-57.203 l 6.9883,-7.098 z m -28.3007,-7.106 c -1.1211,1.504 -0.961,2.41 0.4453,2.348 2.8086,-0.16 5.3437,-3.711 3.0507,-4.336 -0.9257,-0.258 -2.4882,0.625 -3.496,1.988 z m -12.9219,2.004 c -0.4024,1.485 0.1601,2.434 1.2812,2.11 1.1289,-0.321 2.2539,-1.321 2.4922,-2.223 0.2383,-0.91 -0.3164,-1.848 -1.2851,-2.113 -0.961,-0.258 -2.086,0.742 -2.4883,2.226 z m 4.0937,5.68 c 0.9258,0.258 2.0078,-0.703 2.4102,-2.129 0.4023,-1.441 0.4023,-2.703 0.043,-2.781 -0.3633,-0.129 -1.4493,0.84 -2.4141,2.121 -0.9649,1.285 -0.9649,2.551 -0.0391,2.789 z m 3.211,7.207 c -0.918,-1 -1.3243,-0.801 -0.9649,0.441 0.3633,1.203 -0.3984,2.227 -1.6445,2.309 -1.6055,0.078 -1.8438,0.621 -0.7227,1.824 v 0 c 0.8438,0.93 2.3282,0.664 3.2539,-0.578 0.9219,-1.246 0.961,-3.055 0.0782,-3.996 z m -4.4141,-5.66 c -0.3633,-0.098 -1.4844,0.867 -2.4102,2.125 -0.9609,1.289 -0.9609,2.554 -0.0429,2.812 0.9297,0.246 2.0117,-0.722 2.414,-2.144 0.3985,-1.43 0.3985,-2.696 0.0391,-2.793 z m 8.4297,6.066 c -0.2813,0.938 -0.1602,1.82 0.2812,1.942 0.4024,0.117 1.4454,-0.438 2.2891,-1.223 0.8828,-0.801 0.7227,-1.688 -0.2852,-1.945 -1.0039,-0.282 -2.0429,0.257 -2.2851,1.226 z M 40.4805,123.84 c 1.4375,1.785 1.1992,2.992 -1.1289,5.441 -2.125,2.242 -2.4532,3.309 -1.086,3.672 v 0 c 1.0469,0.301 1.086,1.285 0.086,2.184 -0.9649,0.929 -0.8868,1.406 0.1992,1.09 3.168,-0.926 5.1367,-11.641 2.4062,-13.274 -1.9297,-1.14 -2.0078,-0.98 -0.4765,0.887 z m -2.4532,18.887 c -0.4843,1.664 -0.6054,3.089 -0.2773,3.168 2.2422,0.625 3.4063,-0.442 3.6914,-3.348 0.2774,-2.649 1.043,-2.914 3.6524,-1.203 3.7734,2.445 5.6992,-0.703 2.0468,-3.375 -2.7695,-2.067 -7.9883,0.644 -9.1133,4.758 z m 22.6758,8.089 c -0.3554,-1.207 0.4063,-2.269 1.7305,-2.347 1.3281,-0.106 2.0898,-0.828 1.6445,-1.625 -0.4023,-0.785 -1.9687,-0.582 -3.4922,0.48 -2.125,1.481 -2.3671,2.344 -1,3.793 v 0 c 1.0391,1.121 1.4805,1.004 1.1172,-0.301 z m -11.0742,0.239 c 0.9609,0.265 2.5234,-0.563 3.4922,-1.844 0.9219,-1.285 1.4453,-2.41 1.082,-2.512 -0.3203,-0.078 -1.8867,0.742 -3.4492,1.848 -1.6914,1.168 -2.168,2.23 -1.125,2.508 z m -16.0976,-1.563 c -2.3243,0.684 -3.168,3.188 -1.6055,4.856 0.6445,0.664 1.6875,-0.258 2.3281,-2.11 0.6406,-1.804 0.3203,-3.066 -0.7226,-2.746 z m -9.1133,8.629 c -0.3594,1.246 0.5234,2.168 1.9258,2.027 1.4062,-0.14 2.6132,-0.48 2.6914,-0.738 0.082,-0.289 -0.8008,-1.187 -1.9258,-2.031 -1.1289,-0.844 -2.3711,-0.504 -2.6914,0.742 z m 4.0156,10.336 c -0.1172,0.422 0.4062,1.465 1.207,2.328 0.8008,0.844 1.6836,0.723 1.961,-0.301 0.2851,-1 -0.2774,-2.046 -1.2383,-2.308 -0.9688,-0.262 -1.8516,-0.137 -1.9297,0.281 z m -8.6328,0.824 c -0.6406,0.364 -0.7578,1.301 -0.3164,2.129 0.4765,0.82 1.6445,1.707 2.6484,1.965 1.082,0.297 1.2031,-0.523 0.3203,-2.129 -0.8398,-1.422 -2.0078,-2.328 -2.6523,-1.965 z m 10.5234,8.231 c 1.1172,0.297 1.2422,-0.524 0.3164,-2.129 -0.8008,-1.422 -2.0078,-2.332 -2.6523,-1.969 -0.6016,0.367 -0.7617,1.328 -0.2774,2.129 0.4454,0.824 1.6446,1.703 2.6133,1.969 z m -4.0547,8.047 c 1.4414,2.027 2.2422,2.187 3.3711,0.617 0.918,-1.223 0.1992,-2.387 -1.7695,-2.93 -3.9336,-1.078 -3.9336,-1.058 -1.6016,2.313 z M 11.25,190.016 c -0.3945,1.425 0.4063,2.91 1.7305,3.289 1.3593,0.363 3.6523,1.55 5.0976,2.609 2.2891,1.688 2.4453,1.426 1.2813,-2.445 -1.4453,-5 -7.0196,-7.344 -8.1094,-3.453 z m -0.3164,6.218 c -2.00782,0.848 -3.93751,2.371 -4.17969,3.352 -0.27735,1.008 -0.19532,1.547 0.16406,1.227 0.40234,-0.321 2.28516,-1.829 4.21483,-3.356 3.2539,-2.57 3.207,-2.648 -0.1992,-1.223 z m 3.4062,9.579 c 0.8477,0.882 1.3243,0.257 1.129,-1.446 -0.3204,-3.332 -1.4063,-4.215 -2.0899,-1.73 -0.2383,0.902 0.207,2.332 0.9609,3.176 z M 3.70703,203.82 c -0.28515,0.965 1.1211,2.192 3.08985,2.731 1.96875,0.543 3.29292,0.082 2.96875,-1.043 -0.31641,-1.121 -1.72266,-2.348 -3.08985,-2.731 -1.36328,-0.379 -2.73047,0.078 -2.96875,1.043 z m 36.28517,13.387 c -2.3242,0.523 -4.5781,0.324 -5.0156,-0.457 -0.4453,-0.77 -1.0469,-0.48 -1.3633,0.617 -0.3203,1.129 0.5234,2.332 1.8476,2.692 1.3204,0.382 3.8125,-0.34 5.5743,-1.563 2.8515,-2.012 2.7734,-2.148 -1.043,-1.289 z m 4.6562,17.547 1.4454,6.019 0.5234,-5.48 c 0.2812,-2.992 1.0039,-9.176 1.6445,-13.727 0.7227,-5.378 0.2461,-8.496 -1.3633,-8.933 -1.3203,-0.379 -2.6093,-0.02 -2.8515,0.762 -0.1992,0.804 0.2031,1.625 0.9648,1.832 0.7227,0.199 0.6055,3.328 -0.2812,6.941 -0.8438,3.613 -0.8828,9.273 -0.0821,12.586 z m -0.3593,8.328 c -0.8477,0.781 -0.7188,1.664 0.2812,1.949 1.0078,0.278 2.0469,-0.285 2.3281,-1.246 0.2422,-0.945 0.1172,-1.824 -0.2812,-1.949 -0.4453,-0.102 -1.4844,0.445 -2.3281,1.246 z m -6.9844,-0.305 c -2.168,1.266 -2.0078,1.504 0.7226,1.246 1.8868,-0.179 3.129,-0.882 2.7305,-1.562 -0.3633,-0.684 -1.9297,-0.539 -3.4531,0.316 z m 10.5976,31.211 c 0.9649,0.262 1.9649,-0.261 2.2071,-1.164 0.2422,-0.879 -0.2031,-2.324 -1.0039,-3.172 -0.8008,-0.863 -1.7657,-0.339 -2.2071,1.145 -0.4023,1.488 0.0391,2.93 1.0039,3.191 z m 1.4063,11.2 c 1.6836,-0.86 2.8125,-2.344 2.5273,-3.293 -0.2812,-0.961 -1.4453,-0.879 -2.6132,0.199 -3.3672,3.015 -3.2852,4.84 0.0859,3.094 z m -18.668,-36.79 c 1.6836,2.028 1.5274,2.872 -0.6836,4.118 -3.7695,2.144 -3.9297,3.851 -0.4804,4.496 2.8476,0.523 7.0273,11.66 5.0976,13.586 -0.5195,0.519 1.1641,2.425 3.7774,4.218 5.0195,3.469 5.2187,5.457 0.8828,9.989 -4.543,4.781 -1.168,3.734 4.207,-1.305 5.9844,-5.637 6.668,-7.277 2.7734,-6.902 -1.5664,0.16 -3.7734,-1 -4.8945,-2.571 -2.4101,-3.468 -1.8086,-6.863 0.7617,-4.277 1,1.027 1.4063,1.066 0.9219,0.086 -0.5195,-0.984 0.1602,-2.531 1.4844,-3.434 1.6484,-1.164 1.8125,-2.629 0.5234,-4.918 -1.3633,-2.406 -1.2031,-3.632 0.6055,-4.675 1.3984,-0.762 2.168,-1.985 1.7226,-2.731 -1.125,-2.027 -9.2343,0.32 -8.5898,2.512 0.3242,1.062 -0.1602,1.746 -1,1.504 -2.8945,-0.805 -3.2187,-3.332 -0.6055,-5.141 1.9688,-1.363 1.9297,-1.965 -0.1172,-2.527 -1.4492,-0.403 -3.9765,-1.602 -5.5859,-2.649 -2.3672,-1.586 -2.5234,-1.468 -0.8008,0.621 z m -21.32029,6 c -1.03906,1.407 -2.88281,1.848 -4.08984,0.946 -1.20703,-0.879 -2.32422,-1.223 -2.44531,-0.762 -0.125,0.481 0.63672,1.504 1.68359,2.289 3.57422,2.59 8.59375,1.223 7.62505,-2.066 -0.7618,-2.567 -1.1211,-2.629 -2.77349,-0.407 z M 25.543,273.77 c -0.3633,1.261 0.3593,1.441 2.3281,0.562 v 0 c 1.8477,-0.824 3.3711,-0.484 4.375,0.981 0.8789,1.246 0.8437,0.703 -0.0781,-1.219 -1.6875,-3.512 -5.7032,-3.719 -6.625,-0.324 z m 28.1015,20.992 c 1.4844,-0.844 2.4063,-2.106 2.0039,-2.789 -0.3593,-0.68 -1.6054,0.019 -2.7265,1.547 -1.6094,2.226 -1.4844,2.468 0.7226,1.242 z m -17.9453,-4.856 c -1.5625,0.184 -1.2461,0.703 0.7617,1.344 1.8047,0.582 2.9297,0.441 2.5274,-0.281 -0.4375,-0.739 -1.9258,-1.223 -3.2891,-1.063 z m 31.3477,10.438 c 1.5273,-0.867 2.4492,-2.11 2.0469,-2.789 -0.3594,-0.684 -1.6407,0.019 -2.7657,1.543 -1.6054,2.207 -1.4453,2.468 0.7188,1.246 z m -19.2617,-2.086 c -0.8868,0.781 -0.7696,1.664 0.2382,1.949 1.0391,0.277 2.086,-0.285 2.3282,-1.227 0.2773,-0.968 0.1601,-1.832 -0.2774,-1.949 -0.4062,-0.121 -1.4492,0.442 -2.289,1.227 z m 2,6.16 c -0.8399,0.801 -0.7227,1.687 0.289,1.965 1.0352,0.262 2.0781,-0.278 2.3242,-1.242 0.2774,-0.946 0.1172,-1.828 -0.2773,-1.946 -0.4453,-0.125 -1.4922,0.442 -2.3359,1.223 z m 2.3671,6.5 c -1.1601,0.387 -1.3203,1.305 -0.3945,2.289 1.8008,1.926 7.5039,-3.488 7.1836,-6.824 -0.1211,-1.367 -1.1641,-1.039 -2.5312,0.805 -1.2813,1.703 -3.211,3.39 -4.2579,3.73 z m -6.1796,-2.848 c -1.125,0.325 -2.3243,1.649 -2.6875,2.946 -0.3594,1.308 -2.0899,2.269 -3.8516,2.152 -2.0898,-0.16 -2.6523,0.383 -1.5664,1.543 1.7266,1.91 4.8984,0.207 8.1484,-4.414 1.1641,-1.688 1.125,-2.586 -0.0429,-2.227 z m -20.5118,8.469 c 0.7657,1.805 2.8125,4.254 4.5391,5.438 2.5703,1.789 2.5313,1.308 -0.1992,-2.747 -1.8125,-2.691 -2.9336,-5.519 -2.4531,-6.285 0.4453,-0.757 0.039,-1.601 -0.8829,-1.867 -2.2851,-0.637 -2.6914,1.387 -1.0039,5.461 z m 22.3633,12.504 c 3.0899,-0.902 7.2656,-6.043 6.0196,-7.387 -0.6446,-0.683 -2.6915,0.824 -4.5352,3.336 -1.8086,2.528 -2.4883,4.336 -1.4844,4.051 z m -16.5,-1.746 c -0.1992,0.766 1.5664,1.926 3.9727,2.566 4.539,1.27 6.4609,-0.476 3.1328,-2.847 -2.4492,-1.746 -6.582,-1.567 -7.1055,0.281 z m 45.2383,7.812 c 0.9609,2.547 2.0469,3.305 3.168,2.266 0.9687,-0.859 0.3633,-2.871 -1.2813,-4.441 -3.5312,-3.368 -3.8554,-3.008 -1.8867,2.175 z m -6.2969,0.215 c -1.1289,0.324 -2.2539,1.328 -2.4961,2.231 -0.2343,0.879 0.3203,1.843 1.2891,2.105 0.9609,0.262 2.0898,-0.742 2.4844,-2.226 0.4062,-1.485 -0.1602,-2.454 -1.2774,-2.11 z m -7.3515,2.93 c -0.6055,0.363 -0.7618,1.309 -0.2813,2.133 0.4453,0.801 1.6485,1.683 2.6133,1.961 1.082,0.304 1.2422,-0.535 0.3164,-2.121 -0.8008,-1.454 -2.0039,-2.336 -2.6484,-1.973 z m 17.0195,4.519 c 1.2891,-2.207 0.8437,-2.933 -1.8047,-2.953 -4.1328,-0.058 -5.1367,1.993 -2.043,4.254 1.2383,0.926 2.8829,0.383 3.8477,-1.301 z m 5.3789,-7.769 c 0.2383,-0.863 -0.6406,-2.328 -1.9219,-3.274 -2.3711,-1.765 -3.7773,-0.156 -2.2539,2.532 1.2071,2.125 3.6524,2.551 4.1758,0.742 z M 64.6406,321.719 c 0.2813,-1.004 -0.2422,-2.047 -1.2031,-2.309 -0.9648,-0.258 -1.8516,-0.14 -1.9687,0.281 -0.1211,0.422 0.4414,1.461 1.246,2.325 0.7618,0.847 1.6836,0.722 1.9258,-0.297 z m -3.4922,-7.606 c -0.8007,-0.867 -1.6445,-0.742 -1.9687,0.282 -0.2774,1 0.2851,2.046 1.2461,2.324 0.9609,0.265 1.8437,0.121 1.9687,-0.297 0.1211,-0.426 -0.4453,-1.469 -1.2461,-2.309 z m 10.6797,8.731 c 0.1211,-0.344 -0.7226,-1.91 -1.8515,-3.492 -1.1641,-1.672 -2.2071,-2.129 -2.4844,-1.129 -0.2852,0.968 0.5664,2.55 1.8437,3.496 1.2891,0.941 2.4063,1.441 2.4922,1.125 z m 45.9609,-10.758 c 0.281,-1.008 -0.238,-2.051 -1.207,-2.328 -0.961,-0.266 -1.848,-0.125 -1.965,0.301 -0.125,0.421 0.442,1.461 1.242,2.308 0.805,0.86 1.653,0.719 1.93,-0.281 z m 38.734,-61.559 c -0.363,-3.472 4.258,-8.871 9.114,-10.742 1.804,-0.695 2.929,-1.941 2.488,-2.75 -1.926,-3.367 -14.414,7.094 -14.734,12.309 -0.118,1.765 0.601,3.449 1.609,3.715 1.008,0.277 1.641,-0.868 1.523,-2.532 z m 0.403,-19.371 c 1.922,-0.418 3.855,-0.152 4.297,0.625 0.437,0.766 1.043,0.481 1.367,-0.625 0.281,-1.121 1.082,-1.683 1.765,-1.281 2.286,1.484 13.848,-2.77 17.747,-6.562 l 3.964,-3.836 -6.621,-2.004 c -4.933,-1.508 -6.543,-1.348 -6.386,0.621 0.332,3.23 -2.364,2.687 -4.368,-0.906 -1.043,-1.801 -1.687,-2.047 -2.05,-0.739 -0.52,1.965 -10.481,3.59 -16.297,2.668 -1.77,-0.304 -4.414,0.16 -5.86,0.981 -2.05,1.164 -1.808,1.425 1.043,1.148 2.403,-0.219 3.086,0.18 2,1.207 -1.082,1 -0.32,1.563 2.168,1.602 2.817,0.039 3.821,1.101 3.782,3.972 -0.039,3.09 0.683,3.754 3.449,3.129 z m -3.332,-24.82 c -0.321,-2.879 -0.84,-2.832 -3.977,0.359 -3.894,3.969 -5.015,6.098 -3.457,6.52 2.699,0.742 7.719,-3.914 7.434,-6.879 z m 5.586,-4.156 c -3.34,-3.633 -4.336,-3.633 -4.063,-0.047 0.086,1.324 1.004,2.168 2.012,1.871 1.035,-0.301 1.641,0.285 1.367,1.285 -0.281,1.024 0.274,2.066 1.238,2.324 2.895,0.805 2.61,-1.98 -0.554,-5.433 z m 12.883,1.359 c 3.406,-3.547 2.488,-4.133 -2.258,-1.426 -1.922,1.086 -3.282,1.188 -3.047,0.246 0.281,-0.968 2.012,-2.613 3.894,-3.656 2.969,-1.687 3.254,-2.687 2.453,-8.348 -0.527,-3.527 -1.289,-5.457 -1.691,-4.296 -0.398,1.183 -1.961,1.804 -3.453,1.386 -2.481,-0.683 -2.57,-0.441 -0.754,2.731 2.156,3.812 1.563,8.707 -1.008,8.004 -0.886,-0.235 -1.531,-1.883 -1.402,-3.649 0.203,-2.812 -0.039,-2.793 -1.731,0.016 -1.32,2.23 -0.925,4.582 1.211,7.348 3.977,5.156 4.328,5.257 7.786,1.644 z m 19.863,2.691 c -0.805,-0.863 -1.797,-0.359 -2.207,1.125 -0.395,1.485 -0.395,2.805 0,2.934 1.844,0.496 3.535,-2.613 2.207,-4.059 z m 15.34,-11.683 c 1.757,-0.781 3.332,-1.82 3.449,-2.305 0.125,-0.48 -1.203,-0.219 -2.973,0.582 -1.765,0.785 -3.328,1.824 -3.445,2.309 -0.125,0.476 1.199,0.219 2.969,-0.586 z M 154.922,157.66 c -0.93,-0.242 -2.332,0.203 -3.211,1.004 -0.852,0.781 -0.324,1.766 1.16,2.188 1.484,0.421 2.93,-0.039 3.215,-0.985 0.242,-0.961 -0.285,-1.945 -1.164,-2.207 z m 5.012,5.141 c -0.84,0.797 -0.754,1.644 0.203,1.926 0.929,0.257 2.414,-0.18 3.254,-0.965 0.886,-0.801 0.8,-1.668 -0.157,-1.93 -0.968,-0.258 -2.453,0.16 -3.3,0.969 z m 23.445,12.883 c -0.723,-1.668 -2.371,-2.731 -3.652,-2.371 -1.289,0.339 -0.848,-0.399 0.968,-1.684 3.407,-2.449 3.203,-5.281 -0.363,-4.234 -2.734,0.781 -6.309,16.117 -3.894,16.781 1.003,0.277 3.25,-0.844 5.054,-2.492 2.492,-2.289 2.934,-3.696 1.887,-6 z m 15.332,-2.969 c -0.117,-2.289 -3.047,-2.793 -4.414,-0.746 -0.477,0.703 0.32,1.648 1.808,2.047 1.485,0.422 2.645,-0.18 2.606,-1.301 z m -9.109,-5.586 c -0.278,1.012 0.281,2.051 1.211,2.309 0.957,0.261 1.843,0.144 1.96,-0.278 0.118,-0.426 -0.437,-1.465 -1.242,-2.308 -0.769,-0.864 -1.648,-0.743 -1.929,0.277 z m 16.464,4.66 c 1.036,-3.73 0.719,-4.637 -1.289,-3.711 -1.488,0.656 -2.851,1.785 -3.058,2.504 -0.196,0.727 0.41,2.391 1.328,3.715 1.25,1.828 2.012,1.226 3.019,-2.508 z m 19.707,-0.184 c 1.524,-1.621 2.403,-3.07 1.922,-3.207 -0.476,-0.121 -2.129,1.106 -3.691,2.731 -1.524,1.625 -2.41,3.066 -1.934,3.207 0.489,0.125 2.129,-1.102 3.703,-2.731 z m -30.753,-9.207 c -1.563,0.981 -2.129,2 -1.2,2.266 1.805,0.504 5.332,-2.086 4.578,-3.355 -0.246,-0.395 -1.765,0.082 -3.378,1.089 z m 24.531,1.2 c -2.696,-1.961 -2.774,-1.883 -1.649,1.828 0.528,1.703 1.446,2.226 2.411,1.347 0.839,-0.804 0.515,-2.226 -0.762,-3.175 z m -14.942,-8.625 c 1.817,0.039 3.418,-0.446 3.575,-1.067 0.168,-0.625 -0.801,-2.347 -2.207,-3.851 -2.09,-2.289 -2.688,-2.129 -3.575,1.062 -0.761,2.789 -0.156,3.836 2.207,3.856 z m 23.809,1.285 c 0.969,-0.262 1.926,-1.227 2.168,-2.129 0.242,-0.883 -0.203,-1.809 -1.008,-2.027 -0.801,-0.219 -1.765,0.742 -2.168,2.128 -0.359,1.387 0.09,2.305 1.008,2.028 z m 15.82,2.683 c 1.082,-0.336 2.207,-1.382 2.481,-2.324 0.246,-0.961 -0.442,-1.484 -1.563,-1.164 -1.086,0.344 -2.246,1.383 -2.492,2.348 -0.269,0.941 0.441,1.461 1.574,1.14 z m -32.48,-14.867 c -2.93,-0.828 -3.328,-0.344 -1.445,1.703 0.722,0.786 1.933,0.883 2.648,0.2 0.723,-0.661 0.203,-1.524 -1.203,-1.903 z m 14.25,-0.543 c 0.281,-0.902 -0.195,-1.828 -0.957,-2.051 -0.805,-0.199 -1.77,0.747 -2.168,2.153 -0.403,1.383 0.078,2.285 1.004,2.027 0.918,-0.281 1.886,-1.226 2.121,-2.129 z m 11.043,7.203 c -3.059,3.332 -3.02,3.395 0.762,1.348 2.207,-1.168 3.652,-2.754 3.214,-3.492 -0.402,-0.746 -2.207,0.215 -3.976,2.144 z M 307.82,16.6172 c 0.239,-0.957 -0.32,-1.9649 -1.289,-2.2266 -0.965,-0.2539 -1.961,0.3008 -2.207,1.2696 -0.281,0.9375 0.285,1.9414 1.242,2.207 0.965,0.2656 1.973,-0.3047 2.254,-1.25 z m -80.371,6.5078 c 0.364,-1.2812 -0.515,-2.6523 -1.961,-3.0508 -1.445,-0.3828 -2.89,0.3203 -3.254,1.6094 -0.32,1.2617 0.559,2.625 1.965,3.0312 1.446,0.3985 2.942,-0.3242 3.25,-1.5898 z m -96.453,24.3672 c 0.078,-0.3828 -0.883,-1.4649 -2.129,-2.4063 -1.285,-0.9453 -2.574,-0.9648 -2.808,-0.0468 -0.282,0.9297 0.722,2.0117 2.125,2.414 1.445,0.3985 2.691,0.418 2.812,0.0391 z M 33.6484,339.137 c -0.5234,1.972 -0.1562,3.793 0.7657,4.058 0.9609,0.258 2.0468,-0.644 2.4531,-2.031 0.3594,-1.383 0.0312,-3.191 -0.7695,-4.055 -0.8008,-0.859 -1.8829,0.063 -2.4493,2.028 z m 17.2657,5.34 c -0.5625,2.089 0.5234,3.414 3.5312,4.234 2.4492,0.684 4.5391,2.473 4.6953,3.996 0.1211,1.527 1.5625,2.629 3.168,2.469 1.6133,-0.16 3.2969,0.98 3.7383,2.531 0.6054,2.023 1.0429,1.703 1.6054,-1.164 0.4844,-2.516 -0.3632,-4.277 -2.3281,-4.82 -1.6875,-0.477 -2.8906,-1.586 -2.6484,-2.469 0.2383,-0.902 -1.7656,-1.984 -4.4961,-2.426 -2.6914,-0.422 -5.2578,-1.828 -5.6641,-3.094 -0.4414,-1.445 -1.039,-1.164 -1.6015,0.743 z M 283.73,137.129 c -15.371,19.062 -61.613,68.941 -66.269,71.449 -2.207,1.188 -7.625,7.203 -8.152,9.016 -0.286,1 -5.539,6.918 -11.758,13.144 -6.184,6.223 -16.946,17.321 -23.891,24.668 -6.98,7.324 -14.285,14.43 -16.297,15.75 -2.004,1.348 -3.925,3.356 -4.211,4.461 -0.808,2.785 -25.57,29.281 -28.019,30.004 -1.125,0.32 -1.766,1.445 -1.485,2.484 0.321,1.047 -0.402,1.633 -1.562,1.309 -1.168,-0.316 -1.77,0.059 -1.328,0.844 0.844,1.504 -9.797,13.39 -12.32,13.765 -0.805,0.122 -1.727,1.227 -2.09,2.454 -0.321,1.222 -3.368,5.8 -6.7816,10.136 -5.543,7.063 -8.3125,8.387 -13.1289,6.18 -0.6836,-0.301 -1.4844,0.219 -1.7266,1.184 -0.2812,0.941 0.125,1.906 0.8868,2.109 0.7226,0.199 0.9218,1.906 0.3984,3.754 -0.6836,2.566 -1.3242,2.781 -2.6523,0.898 -1.2032,-1.761 -1.8438,-1.906 -2.2461,-0.504 -0.3204,1.067 -2.1289,1.508 -4.0118,0.989 -1.9296,-0.52 -3.207,-1.868 -2.9296,-2.989 0.3164,-1.105 0.039,-1.711 -0.6446,-1.324 -0.6797,0.36 -0.3633,4.07 0.6446,8.227 1.3242,5.297 1.1601,7.929 -0.4844,8.871 -1.6446,0.937 -2.2071,0.699 -1.7656,-0.766 0.3203,-1.14 -0.2032,-2.285 -1.1641,-2.547 -0.9649,-0.281 -2.0899,0.684 -2.4883,2.129 -0.3633,1.426 -1.4844,2.387 -2.4492,2.121 -0.9219,-0.277 -1.5234,-1.257 -1.2422,-2.218 0.2773,-0.969 -0.3242,-1.95 -1.2461,-2.215 -0.9609,-0.258 -1.8086,0.125 -1.9297,0.867 -0.3554,3.535 -1.9219,5.656 -3.1289,4.355 -0.7617,-0.789 -2.1289,-0.742 -3.0117,0.118 -1.1641,1.066 -2.4102,0.468 -3.8477,-1.825 -1.207,-1.863 -2.8906,-3.734 -3.8203,-4.132 -2.4843,-1.125 -3.0078,-2.692 -0.6797,-2.047 1.125,0.316 2.3243,-0.606 2.7305,-2.051 0.4024,-1.426 1.6445,-2.344 2.7695,-2.047 1.0821,0.324 1.6446,-0.117 1.1602,-0.941 -0.4766,-0.825 -2.8906,-0.219 -5.4141,1.324 -7.1875,4.394 -9.957,2.625 -4.6562,-2.949 3.25,-3.395 0.039,-5.118 -4.8985,-2.653 -1.8867,0.965 -1.4453,0.082 1.2071,-2.367 2.5664,-2.371 3.6445,-4.48 2.7617,-5.418 -2.6836,-2.91 -0.5938,-4.574 3.3789,-2.676 3.125,1.535 5.0547,0.848 9.3086,-3.265 6.7852,-6.563 7.0234,-7.465 1.043,-4.356 -5.0157,2.61 -6.543,2.688 -11.7578,0.621 -2.6524,-1.047 -3.25,-0.304 -3.8907,4.793 -0.7265,6.164 -4.2968,11.59 -7.1093,10.821 -1.6836,-0.457 -2.3672,-6.18 -1,-8.368 0.4375,-0.722 -0.3633,-2.453 -1.7696,-3.851 -1.4453,-1.383 -2.1289,-4.195 -1.5664,-6.203 0.5625,-2.028 0.3985,-3.336 -0.3555,-2.891 -0.8085,0.442 -2.496,-0.199 -3.8593,-1.426 -4.336,-3.953 -11.3164,-7.183 -11.8008,-5.437 -0.2461,0.922 2.168,2.969 5.3398,4.535 3.211,1.566 6.1836,4.477 6.6211,6.461 1.1289,4.941 0.4024,6.844 -1.3672,3.715 -1.1171,-1.969 -2.207,-2.028 -4.4961,-0.219 -2.8476,2.246 -3.1679,2.148 -5.2539,-1.465 -1.207,-2.129 -1.4843,-4.273 -0.5664,-4.777 0.9297,-0.524 2.0118,0.258 2.4141,1.703 0.6367,2.168 1.082,2.246 2.3672,0.519 1.0039,-1.343 0.3203,-2.601 -1.8086,-3.371 -3.207,-1.14 -5.5391,-4.894 -7.42579,-12.14 -0.72266,-2.551 -0.03907,-3.293 2.89059,-3.254 3.1289,0.043 3.293,0.387 1.0078,1.988 -4.46089,3.09 -2.0898,4.238 3.125,1.508 4.7774,-2.469 8.6329,-10.621 5.4571,-11.504 -0.918,-0.238 -1.5586,0.762 -1.4024,2.231 0.125,1.484 -0.7226,2.968 -1.9218,3.332 -1.2071,0.335 -1.8477,-0.582 -1.4493,-2.086 0.8829,-3.239 -1.8476,-4.399 -3.7773,-1.629 -0.7539,1.086 -0.8008,-0.117 -0.1172,-2.688 0.9649,-3.554 1.8086,-4.219 3.7774,-2.812 2.082,1.523 2.289,1.289 1.082,-1.407 -0.7656,-1.781 -0.7656,-3.613 0,-4.05 0.7617,-0.442 -0.4453,-2.145 -2.7305,-3.797 -2.289,-1.684 -3.7344,-4.375 -3.25,-6.098 1.4453,-5.258 0.9219,-16.156 -1.0078,-20.512 -0.96094,-2.289 -1.52344,-2.894 -1.19922,-1.363 0.92192,4.371 -0.60547,11.379 -2.16797,9.731 -0.72656,-0.821 -2.96875,-0.84 -4.98047,-0.02 -3.207028,1.324 -3.167965,1.207 0.44532,-1.262 5.05859,-3.433 5.49609,-4.859 1.80468,-5.879 -1.60546,-0.445 -2.28906,-1.148 -1.52734,-1.589 0.72656,-0.422 0.52344,-2.223 -0.48047,-3.993 -2.48828,-4.437 -0.32031,-11.203 3.77735,-11.621 3.04687,-0.324 3.04687,-0.781 0.19921,-4.82 -1.76953,-2.465 -2.32812,-4.254 -1.24609,-3.953 1.04688,0.281 2.20703,-0.442 2.57031,-1.621 0.32032,-1.207 1.6836,-3.137 3.05079,-4.317 2.1289,-1.89 2.5234,-1.789 3.4531,0.961 0.7617,2.368 1.1211,2.047 1.4375,-1.465 0.2852,-2.511 0.7696,-5.902 1.168,-7.57 0.4414,-1.98 -0.3164,-2.93 -2.2891,-2.726 -1.9258,0.179 -3.0078,-0.965 -2.9687,-3.211 0.082,-4.434 -6.58206,-10.559 -9.03518,-8.289 C 0.09375,212.07 -0.0273438,204.469 2.5,199.746 3.70703,197.52 6.19531,195.09 8,194.387 v 0 c 3.0117,-1.145 3.0508,-1.481 0.51953,-3.371 -1.52344,-1.141 -2.08203,-3.028 -1.24219,-4.215 0.88282,-1.164 0.84375,-2.328 -0.11718,-2.586 -0.92969,-0.266 -1.32422,-1.625 -0.96485,-3.07 0.39844,-1.426 1.52344,-2.387 2.48828,-2.129 0.92579,0.261 1.48831,1.406 1.16016,2.507 -0.31641,1.106 0.20705,1.61 1.12895,1.086 0.8828,-0.523 0.6836,-2.187 -0.4805,-3.711 -1.17189,-1.503 -1.72657,-4.621 -1.25001,-6.886 0.64453,-3.211 1.44531,-3.715 3.49611,-2.211 2.0859,1.547 2.332,1.387 1.043,-0.86 -2.168,-3.839 -1.125,-6.621 1.2421,-3.253 1.4844,2.144 2.4102,2.191 4.4141,0.164 2.8125,-2.872 0.5234,-9.118 -3.0078,-8.075 -3.0078,0.868 0.2461,-5.496 4.2148,-8.347 2.0899,-1.485 2.4063,-2.149 0.8828,-1.703 -3.4101,0.941 -2.207,-2.832 2.5313,-7.93 2.1289,-2.246 3.0898,-4.297 2.2109,-4.531 -3.0156,-0.844 -0.8086,-3.758 5.2969,-6.969 3.6914,-1.969 4.7344,-3.051 2.6484,-2.891 -2.3281,0.199 -3.1367,-0.562 -2.5703,-2.484 0.4024,-1.551 1.4805,-2.594 2.3633,-2.356 0.8867,0.247 3.4141,-1.582 5.6641,-4.05 2.207,-2.473 3.2929,-4.7 2.4101,-4.938 -0.8867,-0.242 -1.3632,-1.265 -1.082,-2.246 0.2813,-1.008 1.7656,-1.227 3.3281,-0.484 2.0899,0.961 3.293,-0.02 4.6563,-3.774 1.7695,-4.816 1.6445,-4.957 -1.5625,-2.426 -1.8906,1.485 -3.211,1.844 -2.9336,0.821 0.2812,-1.028 1.9297,-2.504 3.6953,-3.293 2.5703,-1.1604 3.6094,-0.8635 5.2148,1.426 1.2071,1.75 2.2071,2.168 2.5313,1.086 0.2422,-0.985 -0.4024,-2.43 -1.4844,-3.2114 -1.3242,-0.9844 -0.6836,-1.9258 2.207,-3.0899 2.25,-0.9258 5.0196,-1.0078 6.1407,-0.2031 1.0859,0.8242 2.207,0.6836 2.4922,-0.3008 0.2382,-0.9648 -0.4024,-2.3711 -1.4922,-3.0898 -1.3594,-0.9024 0.1289,-3.1524 4.8203,-7.2266 7.1484,-6.2461 9.7187,-7.3437 6.4258,-2.7656 -1.7657,2.4258 -1.6055,2.543 1.7617,1.082 3.2539,-1.4258 3.8594,-1.2695 4.6211,1.2383 0.7187,2.4922 1.2383,2.6523 3.7344,1.1055 1.8007,-1.1055 2.0039,-1.5625 0.5585,-1.1797 -4.539,1.1015 -3.5312,-3.4141 1.5274,-6.7461 6.7812,-4.4961 9.7109,-3.4141 7.543,2.8086 -1,2.7734 -1.1211,4.8398 -0.3555,4.6015 2.2851,-0.664 4.332,5.6368 2.4062,7.4258 -1.3671,1.2383 -2.0117,1.0391 -2.5351,-0.789 -0.5547,-1.8633 -1.7227,-2.1211 -5.0508,-1.1407 -2.3711,0.7227 -4.5391,2.0078 -4.7773,2.8907 -0.2422,0.8593 1.5234,0.6015 3.8906,-0.6055 4.8594,-2.4258 5.0976,-1.3047 0.7695,3.6133 -2.6133,2.9925 -2.5742,3.0705 0.4375,0.9218 1.8008,-1.3046 4.0938,-2.1445 5.0977,-1.8632 0.9609,0.2773 2.5703,-0.5625 3.4922,-1.8477 2.0428,-2.75 1.8046,-7.9101 -0.3633,-8.5117 -0.8828,-0.2383 -1.043,-2.3477 -0.4024,-4.6719 0.6446,-2.332 0.5664,-4.9023 -0.2031,-5.7226 -2.1601,-2.3282 8.5156,-11.6836 11.1216,-9.7539 1.925,1.4062 3.535,-0.1641 4.132,-4.0743 0.082,-0.6054 2.535,-2.3515 5.383,-3.8554 4.18,-2.2071 5.137,-3.6719 4.82,-7.2422 -0.609,-6.4258 7.141,-12.0664 10.317,-7.5117 2.926,4.1953 1.398,8.6328 -3.86,11.2851 -2.367,1.2031 -4.613,3.2266 -4.972,4.5117 -0.363,1.2891 -1.285,2.1719 -2.094,1.9493 -0.801,-0.2188 -1.762,0.7617 -2.168,2.207 -1.16,4.2148 1.488,3.6133 5.227,-1.1836 3.609,-4.6367 11.152,-6.2227 10.031,-2.1289 -0.641,2.3125 2.449,5.4023 6.582,6.5234 1.285,0.3633 2.488,-0.5664 2.652,-2.0039 0.403,-3.375 -1.25,-6.4414 -1.968,-3.7383 -0.325,1.125 -1.719,1.7305 -3.086,1.3477 -2.129,-0.5859 -1.813,-1.4024 1.843,-5.0391 2.774,-2.7539 4.817,-3.5547 5.539,-2.1875 1.649,2.8907 5.625,3.7969 6.258,1.4492 0.285,-1.0664 -0.633,-1.8085 -2.043,-1.6718 -1.441,0.1289 -3.379,-1.4024 -4.336,-3.4336 -1.441,-3.0469 -1.25,-3.9492 1.125,-5.1953 1.844,-0.9649 3.164,-3.8946 3.731,-8.2266 0.476,-3.6953 1.277,-5.7617 1.769,-4.5937 0.477,1.1601 1.844,2.4648 3.004,2.8906 4.828,1.7617 5.422,2.3633 4.739,4.8515 -0.684,2.4258 0.808,3.6719 4.179,3.4922 0.801,-0.039 1.887,-2.2656 2.403,-4.9375 0.605,-2.7304 1.933,-4.6133 3.093,-4.3164 1.203,0.3242 1.203,-0.3984 -0.078,-1.7851 -1.48,-1.668 -3.328,-1.5625 -6.344,0.2812 -2.851,1.75 -4.699,1.8906 -5.539,0.4219 -1.648,-2.9297 1.77,-5.9649 4.453,-3.9727 1.211,0.8633 3.293,0.4414 4.622,-0.9218 2.246,-2.2696 2.886,-1.8438 6.425,4.0546 2.157,3.6133 4.168,5.6016 4.532,4.4141 0.32,-1.207 1.328,-1.3672 2.285,-0.3437 1.082,1.2031 1.57,0.7851 1.367,-1.2383 -0.324,-3.5156 4.941,-6.5508 7.187,-4.1367 0.918,1 2.129,-0.6641 3.172,-4.4375 0.918,-3.3321 3.133,-6.8829 4.895,-7.8868 1.765,-1.0078 2.851,-2.4531 2.449,-3.1953 -0.801,-1.4023 2.531,-1.1601 6.34,0.4414 1.16,0.5078 2.332,0.0196 2.613,-1.0156 0.278,-1.0664 1.125,-1.2891 1.848,-0.5078 2.726,2.9492 7.539,0.9062 7.461,-3.2148 -0.078,-3.97271 -0.078,-3.97271 2.09,0.7265 l 2.168,4.7149 5.421,-5.1563 c 5.094,-4.79687 5.458,-4.88281 5.614,-1.0859 0.09,2.2461 -1.043,4.9023 -2.481,5.9023 -1.816,1.2891 -2.129,2.332 -1.086,3.4727 0.84,0.9179 0.801,2.332 -0.086,3.1523 -1.003,0.9453 -0.156,1.4453 2.247,1.3594 2.128,-0.0977 4.14,0.8086 4.503,1.9766 0.68,2.3007 -4.894,6.1953 -7.753,5.3945 -0.958,-0.2617 -2.446,0.1406 -3.254,0.8828 -2.891,2.7109 5.742,1.8477 15.578,-1.5234 5.547,-1.9102 11.804,-3.8789 13.933,-4.3946 2.168,-0.5078 4.453,-1.789 5.176,-2.832 0.723,-1.0469 -2.969,-0.4844 -8.105,1.2656 -7.871,2.6446 -9.922,2.6641 -12.532,0.1953 -2.488,-2.3437 -2.566,-3.3242 -0.359,-4.8515 2.129,-1.4844 2.41,-2.9297 1.25,-6.5703 -1.094,-3.4063 -0.848,-5.01957 0.957,-6.0352 1.367,-0.78125 4.336,-2.69531 6.543,-4.25781 2.207,-1.5625 5.02,-2.56641 6.223,-2.22656 1.441,0.41796 1.172,0.94921 -0.879,1.5625 -1.692,0.50781 -2.973,1.38671 -2.895,1.97265 0.481,2.77344 -1.004,4.10938 -4.414,4.07031 -2.652,-0.03515 -3.609,0.91801 -3.379,3.31251 0.285,3.0742 0.649,3.1328 4.258,0.5273 2.172,-1.5546 8.879,-3.1171 14.895,-3.43746 6.027,-0.34375 11.925,-1.50391 13.086,-2.58985 1.652,-1.5039 2.011,-1.42578 1.574,0.30469 -0.442,1.69922 0.359,2 3.523,1.29688 4.778,-1.07032 9.883,-0.97657 17.949,0.34375 3.125,0.52734 6.778,0.64453 8.145,0.26172 1.328,-0.39844 5.703,-0.13282 9.719,0.54687 4.05,0.6836 11.758,1.6797 17.136,2.207 7.43,0.7344 10.918,1.9063 14.532,4.9141 2.605,2.1484 8.308,5.457 12.683,7.3047 8.828,3.793 10.676,6.5039 5.383,7.9101 -3.367,0.9024 -3.418,1 -0.566,1.8438 3.41,1.0078 3.332,4.0156 -0.078,4.1953 -1.446,0.0664 -2.09,1.4453 -1.766,3.8711 1.121,8.6172 -1.242,16.1406 -5.656,17.8867 -2.332,0.9414 -4.981,3.3711 -5.868,5.4219 -1.847,4.0898 -5.097,6.7031 -4.132,3.3086 0.285,-1.1602 -0.282,-1.8828 -1.328,-1.5664 -1.043,0.3008 -2.161,-0.3828 -2.481,-1.5235 -0.32,-1.1445 -1.934,-2.3671 -3.586,-2.75 -2.398,-0.5625 -2.359,-0.2421 0.129,1.6289 4.504,3.3711 1.934,10.0938 -5.176,13.625 -3.254,1.6446 -6.23,4.0157 -6.59,5.2969 -0.39,1.4102 -1.359,1.5703 -2.445,0.4258 -1.25,-1.3086 -1.324,-0.7656 -0.242,1.6836 1.164,2.6914 1.008,3.4531 -0.559,3.0117 -1.211,-0.3203 -2.047,0.5195 -1.922,1.8867 0.157,1.3828 -1.25,3.6719 -3.054,5.1172 -2.766,2.2071 -3.215,2.168 -2.571,-0.1601 0.442,-1.5274 1.446,-2.9532 2.286,-3.1485 0.8,-0.1992 0.683,-0.4648 -0.325,-0.5625 -0.996,-0.1015 -2.527,1.4258 -3.406,3.4102 -0.887,1.9648 -3.613,4.332 -6.101,5.2192 -3.848,1.378 -4.219,1.988 -2.407,4.011 3.41,3.754 4.653,3.473 5.981,-1.265 1.004,-3.6332 1.519,-3.9144 2.969,-1.563 1.445,2.371 1.25,3.106 -1.243,4.516 -1.855,1.043 -3.293,4.152 -3.894,8.23 -0.649,4.414 -2.129,7.285 -4.582,8.832 -3.289,2.106 -3.977,1.965 -7.981,-1.746 -4.254,-3.918 -4.382,-3.918 -3.496,-0.125 0.637,2.934 0.246,4.016 -1.48,4.137 -1.328,0.101 -1.938,1.004 -1.406,2.027 0.515,1.02 2.847,1.305 5.132,0.625 5.664,-1.691 6.543,0.641 1.489,3.848 -2.532,1.629 -3.293,2.855 -2.004,3.219 1.164,0.316 1.484,1.16 0.722,1.882 -2.175,1.989 -7.714,-1.929 -7.636,-5.378 0.089,-1.887 -2.481,0.179 -6.661,5.359" /><path
         id="path40"
         style="fill:#dc3822;fill-opacity:1;fill-rule:nonzero;stroke:none"
         d="m 18.5586,335.863 c 3.5742,-2.043 11.5586,2.535 10.5977,6.047 -0.4024,1.406 -1.0469,1.285 -2.2071,-0.406 -1.2031,-1.703 -2.8906,-1.941 -5.7422,-0.879 -7.1836,2.73 -9.2734,-1.004 -2.6484,-4.762" /><path
         id="path42"
         style="fill:#dc3822;fill-opacity:1;fill-rule:nonzero;stroke:none"
         d="m 64.5625,366.477 c 1.4844,0.398 2.0039,1.386 1.1602,2.187 -0.8399,0.781 -2.2852,1.223 -3.168,0.981 -0.9219,-0.239 -1.4453,-1.223 -1.168,-2.184 0.2461,-0.945 1.6914,-1.406 3.1758,-0.984" /><path
         id="path44"
         style="fill:#dc3822;fill-opacity:1;fill-rule:nonzero;stroke:none"
         d="m 239.695,19.4297 c -0.117,0.418 -1.004,0.5664 -1.961,0.3008 -0.925,-0.2813 -1.484,-1.3164 -1.211,-2.3242 0.286,-1.0235 1.165,-1.1485 1.934,-0.2813 0.801,0.8398 1.359,1.8828 1.238,2.3047" /><path
         id="path46"
         style="fill:#dc3822;fill-opacity:1;fill-rule:nonzero;stroke:none"
         d="m 356.426,67.4219 c -0.879,0.8008 -2.363,1.2265 -3.289,0.9609 -0.957,-0.2578 -1.047,-1.1211 -0.196,-1.9258 0.836,-0.7812 2.325,-1.2031 3.289,-0.9453 0.958,0.2656 1.047,1.125 0.196,1.9102" /><path
         id="path48"
         style="fill:#dc3822;fill-opacity:1;fill-rule:nonzero;stroke:none"
         d="m 135.934,54.9766 -6.184,0.3398 5.059,-2.3281 c 2.808,-1.2656 5.738,-2.1289 6.578,-1.8828 3.777,1.0234 0.168,3.5937 -5.453,3.8711" /><path
         id="path50"
         style="fill:#dc3822;fill-opacity:1;fill-rule:nonzero;stroke:none"
         d="m 4.46875,234.895 c -0.76172,-0.868 -1.32422,-1.911 -1.24609,-2.332 0.12109,-0.418 1.00781,-0.54 1.96875,-0.282 0.96093,0.266 1.48437,1.305 1.24609,2.332 -0.28516,1.004 -1.16797,1.121 -1.96875,0.282" /><path
         id="path52"
         style="fill:#dc3822;fill-opacity:1;fill-rule:nonzero;stroke:none"
         d="M 7.4375,224.574 C 6.59375,223.648 6.35938,221.227 6.95703,219.156 L 8,215.387 l 1.6875,4.754 c 1.7227,4.879 0.4844,7.367 -2.25,4.433" /><path
         id="path54"
         style="fill:#dc3822;fill-opacity:1;fill-rule:nonzero;stroke:none"
         d="m 137.902,259.563 c 0.278,-0.969 1.282,-1.532 2.207,-1.27 0.957,0.281 1.524,1.27 1.278,2.23 -0.274,0.942 -1.278,1.504 -2.203,1.247 -0.961,-0.266 -1.528,-1.247 -1.282,-2.207" /><path
         id="path56"
         style="fill:#dc3822;fill-opacity:1;fill-rule:nonzero;stroke:none"
         d="m 91.3711,290.43 c -0.8398,1.183 -0.8789,3.332 -0.0781,4.758 1.125,2.003 0.8476,2.16 -1.1602,0.703 -2.6523,-1.95 -1.5664,-8.817 1.2852,-8.016 0.8828,0.223 0.8398,1.387 -0.0469,2.555" /><path
         id="path58"
         style="fill:#dc3822;fill-opacity:1;fill-rule:nonzero;stroke:none"
         d="m 90.7344,308.254 c -0.6016,2.082 -1.0469,1.883 -2.2071,-1.086 -0.8007,-2.027 -2.5703,-4.039 -3.8554,-4.477 -1.3281,-0.425 -0.6446,-0.961 1.4844,-1.207 2.3242,-0.238 4.1367,0.485 4.5781,1.868 0.3984,1.269 0.3984,3.457 0,4.902" /><path
         id="path60"
         style="fill:#dc3822;fill-opacity:1;fill-rule:nonzero;stroke:none"
         d="m 39.0273,264.898 c -1.1171,-1.226 -0.8828,-2.066 0.8477,-3.05 1.7266,-0.985 2.8125,-0.7 3.7734,1.043 1.6836,2.929 -2.207,4.617 -4.6211,2.007" /><path
         id="path62"
         style="fill:#dc3822;fill-opacity:1;fill-rule:nonzero;stroke:none"
         d="m 154.922,225 c 0.281,-0.965 1.277,-1.527 2.246,-1.27 0.93,0.266 1.484,1.27 1.238,2.208 -0.269,0.968 -1.277,1.531 -2.246,1.269 -0.926,-0.262 -1.48,-1.269 -1.238,-2.207" /><path
         id="path64"
         style="fill:#dc3822;fill-opacity:1;fill-rule:nonzero;stroke:none"
         d="m 94.9063,283.223 c -0.8399,0.781 -1.8829,1.343 -2.3282,1.226 -0.3984,-0.121 -0.5234,-0.988 -0.2773,-1.949 0.2773,-0.961 1.3242,-1.504 2.3242,-1.227 1.0039,0.282 1.168,1.145 0.2813,1.95" /><path
         id="path66"
         style="fill:#dc3822;fill-opacity:1;fill-rule:nonzero;stroke:none"
         d="m 137.941,204.926 c -2.293,-5.059 -1.886,-7.91 0.879,-6.34 0.926,0.504 1.328,2.023 0.965,3.367 -0.359,1.367 0.238,3.07 1.281,3.793 1.09,0.723 1.329,1.93 0.567,2.672 -0.805,0.742 -2.449,-0.824 -3.692,-3.492" /><path
         id="path68"
         style="fill:#dc3822;fill-opacity:1;fill-rule:nonzero;stroke:none"
         d="m 97.9609,243.922 c -2.0468,1.141 -4.6601,4.437 -5.7812,7.289 -1.125,2.848 -2.4922,5.441 -3.0938,5.758 -1.2421,0.703 -8.3086,-7.184 -7.8632,-8.789 0.1601,-0.645 4.3281,-3.254 9.2304,-5.821 4.8946,-2.55 9.6369,-4.457 10.5159,-4.214 2.488,0.679 1.043,3.472 -3.0081,5.777" /><path
         id="path70"
         style="fill:#dc3822;fill-opacity:1;fill-rule:nonzero;stroke:none"
         d="m 109.32,239.164 c -1.246,1.731 -0.965,2.391 1,2.188 1.528,-0.133 2.532,0.543 2.289,1.531 -0.281,0.961 -0.359,3.047 -0.242,4.613 0.207,2.09 -0.883,2.449 -4.133,1.344 -2.687,-0.899 -3.855,-2.227 -3.007,-3.391 0.757,-1.023 0.757,-2.594 -0.039,-3.453 -1.891,-2.004 0.117,-4.98 3.406,-5.152 1.687,-0.086 1.969,0.695 0.726,2.32" /><path
         id="path72"
         style="fill:#dc3822;fill-opacity:1;fill-rule:nonzero;stroke:none"
         d="m 95.0703,252.813 c 1.8438,-0.739 3.2891,-2.426 3.207,-3.731 -0.0742,-1.305 0.6836,-2.129 1.7267,-1.844 1.047,0.278 1.605,1.524 1.285,2.77 -0.762,2.746 -5.2968,5.5 -7.789,4.715 -0.9609,-0.301 -0.2773,-1.164 1.5703,-1.91" /><path
         id="path74"
         style="fill:#dc3822;fill-opacity:1;fill-rule:nonzero;stroke:none"
         d="m 105.547,265.461 c 2.047,-1.285 3.414,-3.313 3.09,-4.492 -0.36,-1.207 0.242,-1.492 1.363,-0.625 2.41,1.765 4.258,11.058 2.328,11.613 -0.723,0.227 -3.414,-0.617 -5.941,-1.863 -4.293,-2.125 -4.336,-2.406 -0.84,-4.633" /><path
         id="path76"
         style="fill:#dc3822;fill-opacity:1;fill-rule:nonzero;stroke:none"
         d="m 79.8164,256.629 c -1.4062,-0.402 -3.9766,0.586 -5.7031,2.144 -4.2149,3.879 -6.5,2.95 -3.8477,-1.519 1.8828,-3.152 1.7617,-3.293 -0.6523,-1.066 -3.6445,3.347 -6.3399,0.542 -2.9219,-3.071 1.3984,-1.465 2.168,-3.429 1.6836,-4.336 -0.4844,-0.926 1.043,-0.761 3.4141,0.383 3.7304,1.785 4.3281,1.524 4.4531,-1.789 0.0781,-3.672 0.2812,-3.59 3.5351,1.609 3.8516,6.164 3.8907,8.688 0.0391,7.645" /></g></g></svg>