<?xml version="1.0" encoding="UTF-8" standalone="no"?>
<svg
   xmlns:dc="http://purl.org/dc/elements/1.1/"
   xmlns:cc="http://creativecommons.org/ns#"
   xmlns:rdf="http://www.w3.org/1999/02/22-rdf-syntax-ns#"
   xmlns:svg="http://www.w3.org/2000/svg"
   xmlns="http://www.w3.org/2000/svg"
   viewBox="0 0 98.026665 151.66667"
   height="151.66667"
   width="98.026665"
   xml:space="preserve"
   id="svg2"
   version="1.1"><metadata
     id="metadata8"><rdf:RDF><cc:Work
         rdf:about=""><dc:format>image/svg+xml</dc:format><dc:type
           rdf:resource="http://purl.org/dc/dcmitype/StillImage" /></cc:Work></rdf:RDF></metadata><defs
     id="defs6" /><g
     transform="matrix(1.3333333,0,0,-1.3333333,0,151.66667)"
     id="g10"><g
       transform="scale(0.1)"
       id="g12"><path
         id="path14"
         style="fill:#dc3822;fill-opacity:1;fill-rule:nonzero;stroke:none"
         d="m 91.25,160.129 c -0.4023,1.648 -2.1953,2.578 -3.9141,2.09 -1.789,-0.481 -1.9921,-1.953 -0.4882,-3.332 1.4453,-1.348 3.2382,-2.305 3.9257,-2.098 0.7579,0.203 0.9649,1.719 0.4766,3.34" /><path
         id="path16"
         style="fill:#dc3822;fill-opacity:1;fill-rule:nonzero;stroke:none"
         d="m 312.457,61.0508 c 1.371,-1.3008 4.262,-1.0703 6.398,0.5078 5.571,4.0703 4.329,5.5117 -2.82,3.5508 -3.379,-0.9297 -5.023,-2.75 -3.578,-4.0586" /><path
         id="path18"
         style="fill:#dc3822;fill-opacity:1;fill-rule:nonzero;stroke:none"
         d="m 393.508,307.637 c -1.934,-6.543 1.297,-8.328 4.531,-2.617 1.387,2.453 1.316,5.156 -0.273,6.054 -1.516,0.86 -3.438,-0.683 -4.258,-3.437" /><path
         id="path20"
         style="fill:#dc3822;fill-opacity:1;fill-rule:nonzero;stroke:none"
         d="m 732.91,64.7695 c 1.641,0.4688 2.61,2.1602 2.199,3.8086 -0.48,1.6602 -2.199,2.6211 -3.789,2.1719 -1.64,-0.4805 -2.609,-2.1719 -2.199,-3.8203 0.481,-1.6094 2.199,-2.6094 3.789,-2.1602" /><path
         id="path22"
         style="fill:#dc3822;fill-opacity:1;fill-rule:nonzero;stroke:none"
         d="m 733.039,76.0195 c 1.375,1.4688 2.344,3.2618 2.07,3.9922 -0.136,0.7071 -1.652,0.918 -3.312,0.4766 -1.641,-0.4492 -2.606,-2.25 -2.117,-3.9688 0.476,-1.7382 1.992,-1.9492 3.359,-0.5" /><path
         id="path24"
         style="fill:#dc3822;fill-opacity:1;fill-rule:nonzero;stroke:none"
         d="m 288.301,351.945 c 0.484,-1.652 2,-1.789 3.308,-0.312 1.371,1.445 2.133,3.992 1.649,5.644 -0.41,1.61 -1.922,1.786 -3.305,0.313 -1.305,-1.485 -2.055,-4.024 -1.652,-5.645" /><path
         id="path26"
         style="fill:#dc3822;fill-opacity:1;fill-rule:nonzero;stroke:none"
         d="m 386.555,296.563 c 2.129,-2.305 3.718,-6.192 3.574,-8.602 -0.274,-3.586 0.762,-3.41 5.234,0.898 4.961,4.707 4.961,5.743 -0.136,9.082 -3.106,2.098 -5.508,5.985 -5.305,8.7 0.273,4.191 -0.203,4.093 -3.438,-0.489 -2.546,-3.64 -2.546,-6.738 0.071,-9.589" /><path
         id="path28"
         style="fill:#dc3822;fill-opacity:1;fill-rule:nonzero;stroke:none"
         d="m 201.133,296.387 c 0.48,-1.758 -0.477,-3.504 -2.137,-3.992 -1.644,-0.442 -3.164,-0.196 -3.363,0.515 -0.207,0.723 0.75,2.52 2.133,3.965 1.371,1.477 2.89,1.242 3.367,-0.488 z m 50.019,8.808 c 1.578,-2.195 2.473,-4.129 1.856,-4.297 -0.551,-0.136 -3.235,1.27 -5.922,3.157 -2.887,2 -3.711,3.816 -1.918,4.304 1.645,0.45 4.328,-0.964 5.984,-3.164 z m 13.274,3.996 c 8.472,-4.199 9.844,-5.644 6.265,-6.613 -1.242,-0.34 -4.953,1.856 -8.257,4.953 -5.918,5.547 -5.918,5.547 1.992,1.66 z m 20.512,8.563 c 1.921,-0.586 3.847,-2.371 4.332,-4.031 0.476,-1.614 -0.762,-2.512 -2.688,-1.953 -1.922,0.585 -3.852,2.371 -4.266,3.984 -0.48,1.66 0.688,2.547 2.622,2 z m 36.398,8.769 c 4.328,-0.41 7.973,-2.332 8.039,-4.226 0.07,-1.926 1.594,-3.098 3.313,-2.617 1.718,0.476 2.675,-0.696 2.128,-2.649 -1.035,-3.543 -4.269,-2.273 -15.757,6.192 -5.086,3.75 -4.883,4.023 2.277,3.3 z m 24.281,-8.085 c -1.308,-2.997 -2.961,-5.606 -3.574,-5.782 -0.625,-0.164 -1.652,1.692 -2.344,4.172 -0.695,2.43 0.899,5.059 3.582,5.77 3.985,1.105 4.407,0.351 2.336,-4.16 z m 59.031,10.351 c -1.992,-3.641 -9.148,-5.019 -10.046,-1.953 -0.411,1.445 1.035,3.957 3.164,5.539 4.199,3.055 9.226,0.477 6.882,-3.586 z M 391.23,316.203 c 1.653,0.242 4.27,0.625 5.782,0.828 5.578,0.723 7.09,-2.176 7.09,-13.347 0,-7.09 -2.411,-13.352 -6.407,-16.719 -5.496,-4.61 -7.351,-4.61 -12.859,-0.031 -5.508,4.504 -6.75,4.504 -8.117,0.031 -1.239,-3.957 -1.864,-4.27 -2.754,-1.242 -0.625,2.199 1.035,5.265 3.781,6.847 2.82,1.621 4.336,6.055 3.504,10.321 -1.23,6.535 -2.266,6.984 -8.32,3.574 -4.403,-2.469 -7.227,-2.645 -7.84,-0.438 -0.559,1.922 0.476,3.055 2.273,2.539 3.645,-1.035 17.121,9.122 19.68,14.825 1.023,2.207 1.57,1.414 1.445,-1.926 -0.148,-3.125 1.094,-5.496 2.742,-5.262 z m 21.329,7.879 c 1.796,-2.41 1.242,-4.441 -1.446,-5.195 -4.812,-1.309 -7.226,3.027 -3.718,6.816 1.238,1.301 3.515,0.586 5.164,-1.621 z m 47.89,-8.641 c 4.192,-5.597 3.235,-8.183 -2.344,-6.523 -2.546,0.75 -3.503,2.988 -2.605,6.219 1.23,4.23 2.059,4.269 4.949,0.304 z M 410.5,285.234 c -0.547,-5.703 -2.414,-7.214 -3.586,-2.957 -0.41,1.551 0.285,4.004 1.652,5.438 v 0 c 1.387,1.523 2.207,0.449 1.934,-2.481 z m 72.371,16.446 c 1.797,-2.371 1.594,-3.711 -0.398,-3.125 -3.313,0.968 -6.203,6.261 -3.789,6.945 0.613,0.176 2.546,-1.543 4.187,-3.82 z m -12.312,-6.356 c -4.192,2.918 -4.133,3.399 0.351,2.957 3.028,-0.312 5.77,-1.718 6.192,-3.203 1.023,-3.816 -0.832,-3.738 -6.543,0.246 z m -65.567,-29.386 c -3.574,-0.985 -3.711,-0.653 -1.652,5.957 1.445,4.503 1.855,4.503 3.164,0.07 0.832,-2.863 0.137,-5.567 -1.512,-6.027 z m 85.117,25.402 c 3.36,-1.934 0.274,-5.918 -4.484,-5.684 -3.301,0.164 -3.437,0.899 -0.957,3.614 1.719,1.855 4.121,2.781 5.441,2.07 z m -38.468,-20.137 c 0.754,-2.687 -1.512,-4.23 -6.739,-4.68 -4.343,-0.339 -8.191,0.559 -8.535,1.993 -0.41,1.484 2.617,3.586 6.672,4.718 4.336,1.172 7.91,0.34 8.602,-2.031 z m 23.945,6.16 c 5.363,-3.75 2.48,-5.605 -5.027,-3.3 -2.883,0.859 -3.848,2.472 -2.336,4.093 1.379,1.446 4.679,1.102 7.363,-0.793 z m -15.41,-13.797 c -1.375,-1.476 -3.106,-0.617 -3.789,1.934 -0.684,2.539 -0.684,4.813 0.07,5.02 3.094,0.859 6.055,-4.473 3.719,-6.954 z m -104.852,27.079 c 5.156,1.308 12.168,-2.207 9.696,-4.883 -1.375,-1.446 -4.676,-1.102 -7.364,0.793 -2.754,1.855 -3.777,3.711 -2.332,4.09 z m -12.246,-4.989 c 1.57,-2.168 1.719,-4.297 0.203,-4.718 -4.062,-1.094 -8.054,3.476 -5.437,6.3 1.238,1.309 3.574,0.614 5.234,-1.582 z m 31.844,-110.324 c -2.606,0.273 -2.129,1.172 1.32,2.266 3.086,1.007 5.078,0.793 4.324,-0.477 -0.683,-1.242 -3.23,-2.062 -5.644,-1.789 z m -8.602,-13.035 c -1.64,-0.449 -3.156,-0.207 -3.359,0.508 -0.207,0.73 0.75,2.519 2.129,3.965 1.375,1.472 2.82,1.238 3.301,-0.481 0.488,-1.726 -0.411,-3.516 -2.071,-3.992 z m 71.629,-15.656 c -0.476,1.718 0.489,3.515 2.063,3.957 1.66,0.476 3.172,0.234 3.379,-0.481 0.203,-0.722 -0.762,-2.519 -2.141,-3.965 -1.297,-1.472 -2.812,-1.269 -3.301,0.489 z m -17.957,24.074 c -2.754,-0.754 -4.269,0.351 -3.644,2.558 0.617,2.129 -1.035,4.532 -3.653,5.36 -3.3,0.996 -3.711,1.789 -1.23,2.512 1.992,0.546 5.773,-1.243 8.457,-4.024 3.859,-4.094 3.918,-5.371 0.07,-6.406 z m 70.242,2.312 c 4.68,1.27 6.68,-2.207 3.235,-5.847 -1.164,-1.309 -3.36,-0.793 -4.805,1.133 -1.445,1.96 -0.695,4.062 1.57,4.714 z m -11.824,-6.132 c 3.367,-1.954 8.457,-6.629 11.211,-10.45 4.539,-6.191 4.473,-6.777 -0.898,-5.398 -13.274,3.406 -16.719,5.086 -12.657,6.258 2.684,0.761 2.684,3.027 0,7.121 -3.574,5.508 -3.437,5.711 2.344,2.469 z m -7.16,91.964 c 1.094,3.778 2.063,3.817 4.746,0.137 1.856,-2.512 5.988,-3.887 9.082,-3 3.164,0.859 7.149,-0.301 8.879,-2.644 1.856,-2.512 5.156,-3.028 8.25,-1.204 5.02,2.891 10.539,0.344 12.316,-5.683 0.418,-1.61 2.411,-2.5 4.403,-1.992 4.269,1.172 19.062,-7.489 20.293,-11.895 0.488,-1.687 2.961,-2.519 5.519,-1.797 2.676,0.723 4.258,-0.476 3.778,-2.988 -0.489,-2.344 0.683,-0.926 2.539,3.125 2.89,6.094 3.379,6.367 3.097,1.66 -0.48,-7.539 4.551,-13.973 9.707,-12.558 2.274,0.644 4.746,-1.036 5.438,-3.719 1.437,-4.992 15.129,-13.039 19.953,-11.692 1.512,0.411 2.195,-0.937 1.648,-2.996 -0.625,-2.062 2.754,-6.086 7.434,-8.945 4.746,-2.883 7.977,-6.984 7.285,-9.289 -0.89,-2.93 0.488,-3.027 4.551,-0.371 4.598,2.98 6.875,2.305 10.926,-3.27 6.679,-9.082 6.679,-9.355 1.242,-10.871 -2.539,-0.73 -3.438,-2.449 -1.848,-3.894 1.504,-1.407 6.465,-0.891 10.996,1.211 4.61,2.058 8.684,2.507 9.082,1.023 0.422,-1.504 2.207,-1.953 3.926,-1.062 1.719,0.925 4.336,0 5.781,-2.102 2.688,-3.711 2.129,-3.816 -13.906,-1.883 -2.676,0.332 -3.437,-2.07 -2.195,-6.504 2.547,-8.984 8.738,-14.582 12.117,-10.976 1.719,1.894 3.566,-2.141 5.566,-12.039 1.719,-8.161 4.68,-16.34 6.672,-18.172 2,-1.879 2.684,-5.367 1.446,-8.008 -1.582,-3.512 -0.891,-4.371 2.754,-3.371 3.992,1.101 4.472,0.199 2.89,-5.2697 -1.515,-5.0195 -3.097,-6.0508 -6.535,-4.2305 -16.238,8.6402 -20.984,9.7382 -22.293,5.1993 -0.754,-2.5899 0.547,-5.918 2.891,-7.5703 7.156,-4.9571 1.308,-4.1993 -7.91,1.0703 -4.817,2.75 -8.946,7.4609 -9.219,10.5629 -0.344,4.027 -1.934,4.847 -5.918,2.988 -3.301,-1.512 -11.985,0.519 -21.34,5.058 -15.332,7.43 -25.652,6.602 -15.125,-1.238 4.676,-3.441 4.609,-3.582 -1.105,-1.199 -7.364,3.09 -9.911,9.309 -5.086,12.68 1.855,1.32 2.058,3.179 0.546,4.097 -1.515,0.961 -4.269,-0.379 -6.054,-2.918 -2.481,-3.609 -3.848,-3.718 -6.192,-0.55 -1.855,2.48 -1.379,4.511 1.375,5.261 2.403,0.66 3.996,2.547 3.508,4.16 -0.41,1.661 -3.027,2.379 -5.781,1.618 -6.399,-1.75 -3.645,3.132 3.582,6.363 4.055,1.824 5.363,1.101 5.019,-2.852 -0.41,-3.679 0.618,-4.539 3.235,-2.781 2.129,1.359 3.301,4.43 2.683,6.734 -0.613,2.344 0,6.028 1.438,8.184 4.687,6.926 -3.84,21.34 -18.223,30.859 -13.008,8.672 -25.812,-0.164 -24.289,-16.824 0.754,-8.73 -0.828,-15.508 -2.402,-9.902 -0.418,1.66 -4.824,1.894 -9.774,0.515 -8.878,-2.441 -10.742,-6.16 -4.132,-8.085 5.988,-1.747 5.304,-6.571 -1.239,-8.348 -4.472,-1.242 -6.125,-0.25 -5.773,3.465 0.48,5.265 -8.953,12.871 -11.219,8.945 -0.617,-1.172 -1.789,0.793 -2.48,4.406 -0.754,3.953 1.101,7.871 4.89,10.008 6.125,3.477 6.055,3.477 -2.207,11.836 -6.816,6.914 -7.636,8.84 -4.539,11.145 2.071,1.511 5.086,1.511 6.68,0 1.785,-1.653 1.367,-2.266 -1.035,-1.543 -5.293,1.511 -3.848,-2.579 2.676,-7.571 3.515,-2.683 6.269,-2.722 8.671,-0.039 2.957,3.235 2.684,3.653 -1.652,2.512 -5.703,-1.504 -8.25,2.617 -4.336,6.883 3.586,3.82 1.445,9.191 -2.539,6.426 -1.863,-1.297 -6.668,-2.059 -10.742,-1.719 -4.461,0.383 -7.078,-0.508 -6.602,-2.266 0.481,-1.621 -1.16,-3.476 -3.574,-4.129 -2.82,-0.761 -3.23,-2.754 -1.172,-5.539 2.824,-3.816 2.207,-3.992 -6.121,-1.308 -9.426,3.027 -13.351,7.57 -7.844,9.082 1.653,0.449 2.414,3.164 1.653,6.054 -1.106,4.473 -0.207,4.473 6.191,0.032 4.129,-2.852 7.91,-3.711 8.465,-1.926 0.48,1.828 -1.797,4.824 -5.086,6.711 -3.312,1.863 -4.551,3.789 -2.754,4.265 1.719,0.489 2.754,2.375 2.266,4.2 -0.547,1.828 -2.473,2.128 -4.406,0.761 -1.856,-1.414 -6.122,-1.511 -9.559,-0.215 -3.301,1.282 -9.356,0.997 -13.281,-0.546 -3.985,-1.582 -7.571,-1.582 -8.059,0 -0.398,1.582 -1.844,1.691 -3.23,0.234 -1.368,-1.473 -2.883,-1.231 -3.371,0.488 -0.477,1.758 0.898,3.606 2.96,4.231 2.137,0.554 3.368,3.445 2.821,6.367 -0.75,3.601 -3.438,4.812 -8.535,3.711 -5.77,-1.203 -6.465,-2.227 -3.086,-4.57 2.687,-1.856 3.437,-3.958 1.925,-5.579 -1.308,-1.375 -3.437,-1.035 -4.757,0.832 -1.297,1.856 -3.086,2.196 -3.985,0.789 -0.82,-1.414 1.992,-4.609 6.328,-7.058 4.407,-2.473 8.469,-6.875 9.016,-9.797 1.035,-5.059 0.957,-5.098 -1.719,-0.488 -1.515,2.648 -4.609,4.336 -6.886,3.722 -2.266,-0.617 -6.114,0.821 -8.594,3.231 -3.094,2.949 -4.949,3.098 -5.918,0.41 -0.762,-2.195 -3.789,-5.535 -6.805,-7.461 -4.277,-2.793 -4.758,-6.609 -2.277,-18.445 3.789,-17.578 7.16,-18.567 35.09,-10.449 11.277,3.261 16.863,3.738 16.172,1.367 -0.625,-2.16 1.171,-1.516 4.531,1.687 3.035,2.93 6.609,4.785 7.781,4.102 1.242,-0.692 0.82,-1.66 -0.898,-2.137 -1.719,-0.488 -2.332,-3.164 -1.309,-5.957 1.309,-3.613 -0.613,-6.113 -6.805,-8.566 -4.746,-1.922 -9.152,-5.262 -9.765,-7.422 -1.379,-4.715 5.769,-10.254 11.277,-8.75 2.129,0.625 5.508,-0.399 7.434,-2.266 1.921,-1.859 7.011,-4.129 11.347,-5.09 6.336,-1.379 8.672,-0.648 11.563,3.543 3.094,4.399 3.652,4.477 3.504,0.348 -0.274,-5.891 -14.168,-12.078 -20.645,-9.18 -3.23,1.473 -5.43,0.68 -7.488,-2.66 -2.344,-3.82 -2.961,-3.09 -3.235,4.031 -0.144,5.121 -1.511,8.356 -3.308,7.875 -1.719,-0.476 -2.688,-2.304 -2.199,-4.093 0.547,-1.75 -0.899,-3.102 -3.164,-2.954 -2.207,0.133 -4.473,3.391 -4.961,7.254 -0.547,4.434 -1.844,5.957 -3.504,4.129 -1.504,-1.582 -3.098,-1.511 -3.508,0.098 -0.477,1.652 0.273,4.199 1.652,5.715 1.375,1.472 1.582,3.574 0.352,4.715 -1.172,1.105 0.332,3.437 3.359,5.195 3.035,1.758 5.098,4.609 4.61,6.359 -1.301,4.785 -18.848,-4.64 -21.524,-11.554 -6.613,-17.129 -15.898,-24.739 -14.66,-11.973 0.41,4.23 -0.691,4.406 -5.984,0.969 -5.918,-3.821 -6.27,-3.653 -3.653,2.058 1.512,3.438 5.301,6.289 8.399,6.328 6.816,0.11 2.82,6.809 -4.473,7.539 -2.687,0.274 -3.711,-0.585 -2.199,-1.96 1.445,-1.348 0.547,-3.028 -2,-3.75 -5.43,-1.485 -6.125,-0.176 -4.063,8.699 0.828,3.75 0.274,6.301 -1.242,5.879 -1.504,-0.41 -4.187,1.73 -5.976,4.746 -1.719,3.066 -5.301,4.961 -7.84,4.277 -2.551,-0.73 -4.473,0.547 -4.348,2.785 0.149,2.235 -3.711,5.567 -8.594,7.391 -7.226,2.726 -8.601,2.539 -7.636,-1.035 1.797,-6.395 -4.539,-9.559 -11.973,-6.016 -5.359,2.578 -6.258,2.414 -5.508,-1.133 0.559,-2.343 -0.82,-1.863 -3.027,1.094 -2.469,3.313 -3.094,8.117 -1.504,12.871 1.652,5.156 1.172,7.942 -1.309,8.672 -2.48,0.715 -2.617,3.02 -0.488,6.809 3.996,6.953 1.582,17.546 -3.711,16.445 -3.027,-0.656 -3.094,-0.313 -0.41,1.719 3.508,2.715 2.473,11.25 -1.387,10.527 -1.23,-0.207 -6.601,-1.172 -11.824,-2.062 -13.352,-2.305 -15.969,-6.231 -13.211,-19.852 1.375,-6.465 2.34,-13.242 2.125,-15.07 -0.476,-4.746 19.27,-22.286 21.953,-19.434 1.242,1.34 1.992,0.273 1.719,-2.344 -0.203,-2.754 3.164,-6.191 7.91,-8.015 8.332,-3.274 6.543,-3.606 -8.945,-1.75 -5.77,0.683 -3.711,-4.852 2.961,-7.84 3.027,-1.379 6.062,-4.473 6.746,-6.914 0.617,-2.414 2.676,-3.301 4.543,-1.934 1.863,1.348 5.429,1.172 7.976,-0.383 9.161,-5.632 -2.754,-8.699 -12.449,-3.191 -9.707,5.508 -16.172,5.781 -14.797,0.586 0.489,-1.621 -1.101,-3.516 -3.504,-4.172 -2.754,-0.75 -4.199,0.734 -3.925,3.887 0.41,4.199 -0.891,4.308 -7.426,0.625 -7.438,-4.199 -7.778,-4.024 -5.102,1.992 3.86,8.644 -0.609,28.144 -5.633,24.465 -2.89,-2.141 -3.3,-1.203 -2,4.539 1.239,5.469 0.618,7.5 -2.675,8.43 -2.414,0.722 -3.723,3.203 -2.961,5.671 0.754,2.715 0.273,3.34 -1.309,1.653 -3.305,-3.574 -8.879,5.886 -7.297,12.39 0.696,2.715 -0.547,6.536 -2.683,8.528 -3.161,2.859 -3.645,2.441 -2.407,-2.278 1.239,-4.675 0.621,-5.261 -3.164,-3.054 -3.851,2.195 -3.851,3.953 -0.07,8.808 4.27,5.43 4.129,6.258 -0.824,7.5 -3.305,0.821 -6.055,4.5 -6.813,9.149 -1.375,8.73 -3.234,8.906 -9.355,0.968 -3.988,-5.234 -3.715,-5.793 5.367,-9.57 7.984,-3.332 9.082,-4.844 6.602,-8.945 -1.653,-2.676 -5.364,-5.774 -8.25,-6.848 -4.821,-1.746 -5.028,-1.367 -2.063,4.551 3.024,5.918 2.613,6.777 -4.75,10.383 -7.91,3.886 -7.984,3.855 -4.473,-2.344 1.922,-3.437 2.336,-6.562 0.825,-6.984 -1.446,-0.411 -3.094,0.625 -3.512,2.238 -0.477,1.621 -3.367,2.312 -6.395,1.453 -3.097,-0.867 -7.91,0.031 -10.668,1.953 -2.746,1.926 -5.429,2.688 -6.05,1.692 -0.551,-1.008 -3.653,-0.313 -6.887,1.511 -5.223,2.961 -5.981,2.754 -7.082,-1.961 -1.102,-4.433 -2.75,-4.433 -10.734,0.137 -5.223,2.918 -9.77,6.336 -10.043,7.566 -1.032,3.508 -13.762,-0.039 -16.993,-4.714 -3.992,-5.743 -3.922,-4.024 0.547,9.734 v 0 l 3.785,11.633 25.317,5.301 c 23.328,4.882 25.32,5.773 25.254,11.593 -0.137,8.633 3.711,8.907 8.461,0.614 3.441,-6.121 5.507,-6.504 17.406,-3.192 9.976,2.754 12.664,4.531 10.394,6.875 -1.726,1.727 0.618,0.926 5.227,-1.789 8.531,-4.988 14.652,-5.332 13.414,-0.762 -0.687,2.454 4.883,3.79 19.477,4.719 3.507,0.235 6.39,-1.172 6.464,-3.125 0.274,-4.824 5.504,-3.039 6.399,2.196 0.551,3.3 1.301,3.468 3.578,0.792 2.195,-2.687 3.301,-2.238 5.02,2.071 1.921,4.804 2.957,5.086 9.355,2.605 6.121,-2.402 6.68,-3.367 3.516,-6.843 -3.106,-3.379 -2.688,-3.86 2.332,-2.825 3.371,0.684 7.226,1.789 8.535,2.481 1.379,0.656 5.644,-0.418 9.492,-2.344 8.742,-4.402 11.906,-0.164 3.508,4.609 -5.852,3.34 -8.047,5.715 -5.852,6.34 0.559,0.164 5.918,-2.14 11.836,-5.136 5.918,-2.961 8.879,-4.954 6.543,-4.407 -2.344,0.559 -3.926,-0.437 -3.437,-2.156 0.82,-3 5.566,-3.273 11.007,-0.617 1.309,0.617 6.317,-0.078 11.075,-1.621 6.738,-2.168 9.285,-1.719 11.902,1.965 2.199,3.191 3.574,3.671 4.133,1.472 1.023,-3.543 25.515,-12.722 30.332,-11.316 1.66,0.476 0.691,1.582 -2.129,2.441 -2.824,0.86 -4.473,2.754 -3.645,4.199 0.821,1.473 7.434,0.274 14.582,-2.617 10.391,-4.191 13.418,-4.297 14.52,-0.547 z m 82.082,9.559 c 1.512,-1.375 1.238,-2.859 -0.48,-3.34 -1.719,-0.476 -3.516,0.461 -3.993,2.102 -0.41,1.621 -0.207,3.133 0.555,3.34 0.684,0.203 2.473,-0.762 3.918,-2.102 z m -8.195,-10.145 c -1.231,-1.339 -3.504,-1.339 -5.02,0.028 -1.445,1.379 -0.613,3.105 1.992,3.789 5.235,1.445 6.477,-0.137 3.028,-3.817 z m 45.761,7.364 c 0.754,-2.617 4.817,-5.469 9.016,-6.367 7.293,-1.582 7.215,-1.68 -1.172,-2.305 -4.961,-0.383 -7.91,-1.582 -6.738,-2.715 1.23,-1.105 -0.352,-2.754 -3.516,-3.613 -6.875,-1.895 -7.707,-0.754 -2.277,3.23 2.141,1.621 3.105,3.723 2.141,4.641 -1.028,0.965 -1.172,3.992 -0.344,6.816 1.308,4.305 1.789,4.364 2.89,0.313 z m -45,-22.461 c -0.476,1.679 0.969,4.363 3.165,5.976 2.199,1.621 4.132,2.481 4.269,1.934 0.137,-0.586 -1.23,-3.273 -3.164,-5.988 -1.992,-2.86 -3.789,-3.641 -4.27,-1.922 z m 28.215,2.156 c -8.058,1.828 -8.808,2.891 -2.961,4.473 2.403,0.695 5.578,-0.41 7.024,-2.403 2.117,-2.82 1.23,-3.269 -4.063,-2.07 z m 1.375,-5.086 c 0.547,-1.926 -0.078,-4.707 -1.445,-6.191 -3.027,-3.301 -3.379,-2.278 -1.238,4.472 1.023,3.164 2.058,3.848 2.683,1.719 z m 2.891,-10.391 c -0.418,1.758 0.344,4.473 1.789,6.024 4.324,4.641 6.395,1.309 2.605,-4.16 -2.195,-3.106 -3.847,-3.817 -4.394,-1.864 z m 41.418,15.243 c 4.473,-2.305 6.668,-4.578 4.949,-5.059 -1.648,-0.449 -6.191,1.164 -10.047,3.645 -3.918,2.449 -6.125,4.714 -5.019,5.027 1.172,0.312 5.711,-1.309 10.117,-3.613 z m 11.562,-15.938 c 6.805,-4.297 6.739,-4.363 -1.867,-2.918 -8.457,1.414 -12.722,5.203 -7.5,6.61 1.379,0.382 5.578,-1.278 9.367,-3.692 z m -7.785,-11.894 c -1.648,-0.45 -3.367,0.519 -3.777,2.168 -0.481,1.613 0.476,3.332 2.129,3.789 1.648,0.441 3.301,-0.528 3.789,-2.137 0.41,-1.652 -0.547,-3.34 -2.141,-3.82 z m -27.168,-11.621 c -4.824,1.816 -9.148,4.464 -9.636,5.878 -0.411,1.407 1.582,1.504 4.539,0.168 2.89,-1.308 6.464,-1.132 7.91,0.379 1.445,1.614 3.312,0.098 4.269,-3.476 1.719,-6.121 1.582,-6.219 -7.082,-2.949 z m 43.203,-4.786 c 8.672,-4.921 9.289,-6.98 2.278,-7.636 -1.446,-0.145 -4.278,-2.547 -6.27,-5.371 -3.164,-4.571 -3.301,-4.227 -1.308,3.164 1.726,6.437 1.308,8.332 -1.856,8.566 -3.996,0.313 -7.226,5.332 -3.996,6.231 0.898,0.234 5.918,-1.965 11.152,-4.954 z m 22.637,-7.566 c 1.379,-4.961 -4.129,-9.258 -8.191,-6.438 -1.992,1.379 -2.539,2.129 -1.242,1.653 1.308,-0.52 3.789,1.101 5.441,3.504 2.137,3.039 3.367,3.437 3.992,1.281 z m 8.742,-6.953 c 2.539,-1.445 4.121,-3.613 3.438,-4.777 -0.625,-1.172 -2.754,0.031 -4.68,2.648 -2.82,3.816 -2.547,4.227 1.242,2.129 z m 5.703,-22.5 c 0.829,-2.852 0.145,-5.567 -1.515,-6.027 -3.574,-0.985 -3.711,-0.645 -1.571,5.957 1.368,4.511 1.844,4.511 3.086,0.07 z m -17.199,-7.051 c -0.488,1.582 0.832,3.34 2.824,3.856 2.266,0.656 2.207,-1.415 -0.07,-5.477 -3.094,-5.43 -4.473,-5.977 -8.535,-3.477 -3.984,2.45 -3.856,2.93 0.832,2.586 3.164,-0.203 5.359,0.93 4.949,2.512 z m 10.528,-7.187 c -2.481,-2.59 -5.372,-4.231 -6.336,-3.684 -0.957,0.586 0.144,2.48 2.558,4.238 6.668,4.914 8.867,4.602 3.778,-0.554 z m 15.48,-35.09 c 7.637,0.968 10.254,-2.301 3.379,-4.203 -3.586,-0.989 -6.816,-0.547 -7.238,0.929 -0.399,1.481 1.32,2.961 3.859,3.274 z m -9.629,-17.1917 c 0.477,-1.7617 -0.48,-3.5508 -2.07,-4 -1.641,-0.4492 -3.156,-0.1992 -3.371,0.4805 -0.203,0.7187 0.761,2.5508 2.129,3.9883 1.32,1.4804 2.832,1.2422 3.312,-0.4688 z M 658.184,85.9219 c -1.649,-0.4414 -5.301,-0.0625 -8.262,0.8281 -2.879,0.9297 -3.848,2.0313 -2.266,2.4688 1.653,0.4609 5.371,0.082 8.262,-0.8204 2.891,-0.8984 3.918,-2.0273 2.266,-2.4765 z m 35.5,4.8867 c 0.691,-2.4492 0.761,-4.6172 0.078,-4.7773 -0.625,-0.1719 -2.481,1.4687 -4.133,3.6796 -1.582,2.1993 -1.649,4.3282 -0.066,4.7696 1.648,0.4609 3.437,-1.1992 4.121,-3.6719 z M 656.328,72.5 c 4.746,-4.3281 4.61,-5.1602 -0.613,-6.6016 -3.235,-0.8867 -5.578,-2.9882 -5.168,-4.6093 0.48,-1.6485 2.266,-2.5782 3.996,-2.1289 1.719,0.4804 2.676,-0.7188 2.129,-2.6485 -0.547,-1.9609 -2.473,-3.1328 -4.27,-2.6211 -4.394,1.3203 -6.113,8.5313 -2.879,12.0391 1.446,1.5508 1.368,4.5117 -0.148,6.5703 -4.129,5.6211 0.832,5.6211 6.953,0 z m 18.164,1.8711 c 5.156,-1.5195 7.434,-4.4102 7.91,-9.8516 0.344,-4.2304 -0.554,-6.7109 -2,-5.5 -1.437,1.2422 -5.156,2.4493 -8.32,2.7188 -3.156,0.2734 -6.262,2.8906 -6.953,5.8906 -0.754,3.1211 -0.207,3.9805 1.238,2.0195 1.446,-1.8281 4.621,-2.7187 7.16,-2.0195 3.914,1.0508 3.789,1.7813 -0.89,5.082 -4.949,3.4375 -4.754,3.6094 1.855,1.6602 z m -1.785,-22.9805 c -1.719,-0.4804 -3.508,0.4375 -3.926,2.0977 -0.48,1.6133 -0.273,3.1211 0.477,3.332 0.695,0.1992 2.48,-0.75 3.996,-2.0898 1.445,-1.3907 1.238,-2.8594 -0.547,-3.3399 z m -38.184,10.0782 c -0.695,2.371 -0.214,5.3593 1.024,6.7031 1.242,1.2969 2.266,-0.4414 2.344,-3.9922 0.07,-7.4297 -1.719,-8.8789 -3.368,-2.7109 z m -1.992,18.871 c -0.695,2.4493 -0.761,4.6211 -0.078,4.7891 0.625,0.1719 2.481,-1.4805 4.129,-3.668 1.582,-2.2109 1.652,-4.3828 0.07,-4.789 -1.582,-0.4531 -3.515,1.1992 -4.121,3.6679 z m -55.39,-9.6914 c -5.371,5.711 -5.305,5.711 2.547,1.8204 8.867,-4.3282 9.902,-5.5704 5.703,-6.75 -1.582,-0.4375 -5.293,1.8007 -8.25,4.9296 z m 36.941,17.3321 c 2.891,1.8593 6.465,2.25 7.981,0.8398 1.589,-1.5195 0.625,-2.3515 -2.415,-2.039 -3.437,0.3398 -4.597,-1.2305 -3.64,-4.7422 1.375,-4.961 1.035,-5.0586 -5.988,-1.5196 -8.047,4.0586 -10.665,8.3008 -5.848,9.6016 1.59,0.4805 3.379,-0.5898 3.855,-2.3398 0.481,-1.793 3.164,-1.6915 6.055,0.1992 z m -33.367,-5.9219 c -3.301,0.9727 -6.262,6.3008 -3.86,6.9609 0.696,0.1719 2.551,-1.5507 4.278,-3.8086 1.719,-2.3906 1.504,-3.6992 -0.418,-3.1523 z m -43.762,-4.0469 c -0.41,1.6485 -0.203,3.1289 0.547,3.3399 0.695,0.1992 2.48,-0.75 3.996,-2.1016 1.445,-1.3789 1.172,-2.8516 -0.547,-3.3398 -1.73,-0.4805 -3.515,0.4492 -3.996,2.1015 z m -77.676,-8.6328 c -0.476,1.6524 0.481,3.332 2.129,3.7813 1.66,0.4414 3.379,-0.5118 3.789,-2.1289 0.481,-1.6524 -0.476,-3.3399 -2.129,-3.7813 -1.66,-0.4883 -3.378,0.5 -3.789,2.1289 z m 107.336,39.2421 c 1.649,0.449 4.2,-0.301 5.645,-1.652 1.433,-1.367 1.297,-2.821 -0.285,-3.297 -1.649,-0.453 -4.2,0.316 -5.633,1.648 -1.524,1.379 -1.379,2.86 0.273,3.301 z M 423.566,69.4688 c -8.808,6.7226 -9.699,8.6523 -5.226,11.8398 6.328,4.5508 10.324,1.8633 11.562,-7.7578 l 1.172,-9.6797 z M 373,61.7813 c -0.891,3.1875 -0.617,6.039 0.555,6.3906 4.328,1.1797 6.808,-3.8828 3.918,-7.9805 -2.2,-3.1719 -3.301,-2.793 -4.473,1.5899 z m 63.094,26.8593 c 0.754,0.1992 2.539,-0.7617 3.984,-2.1015 1.516,-1.3672 1.242,-2.8907 -0.476,-3.3672 -1.719,-0.4805 -3.508,0.4765 -3.926,2.1289 -0.481,1.6211 -0.274,3.1406 0.418,3.3398 z m 45.332,14.1684 c 0.762,2.14 4.758,1.562 10.051,-1.547 l 8.738,-5.0901 -7.43,0.1797 c -9.699,0.2265 -12.93,2.0976 -11.359,6.4574 z m 70.801,14.281 c -4.258,2.441 -6.739,5.469 -5.567,6.781 2.199,2.41 15.754,-6.883 14.172,-9.711 -0.41,-0.82 -4.336,0.488 -8.605,2.93 z M 516.934,98.7188 c -0.684,-1.168 -3.301,-0.8985 -5.918,0.5898 -3.711,2.1324 -3.438,2.5824 1.242,2.1324 3.23,-0.312 5.371,-1.5504 4.676,-2.7222 z m 22.285,11.9412 c -1.512,1.371 -1.297,2.891 0.488,3.328 1.719,0.481 3.508,-0.437 3.996,-2.09 0.41,-1.628 0.203,-3.128 -0.558,-3.339 -0.684,-0.207 -2.481,0.761 -3.926,2.101 z m -8.594,11.762 c 1.379,1.476 3.859,1.519 5.441,0.039 4.051,-3.789 1.036,-7.813 -3.859,-5.063 -2.742,1.551 -3.23,3.204 -1.582,5.024 z m -21.953,0.789 c 1.445,1.59 3.516,2.379 4.473,1.828 0.968,-0.59 -0.067,-2.41 -2.332,-4.059 -4.68,-3.48 -6.055,-1.992 -2.141,2.231 z M 329.102,76.3984 c -0.137,0.6524 1.515,2.4727 3.711,4.1211 2.207,1.6211 4.347,1.6524 4.757,0.0391 0.477,-1.5781 -1.242,-3.4492 -3.644,-4.0898 -2.481,-0.6993 -4.617,-0.7305 -4.824,-0.0704 z m 179.992,56.2036 c 1.172,-4.153 -5.852,-10.321 -8.742,-7.641 -1.036,0.969 -0.821,4.551 0.48,7.949 2.41,6.34 6.473,6.192 8.262,-0.308 z m 18.367,-4.301 c -0.281,-2.711 -1.856,-4.539 -3.574,-4.02 -4.891,1.438 -5.098,6.391 -0.274,7.699 2.61,0.758 4.121,-0.718 3.848,-3.679 z m 2.336,12.219 c 2.754,3.093 2.48,4.062 -2.063,5.71 -4.675,1.75 -4.746,1.954 -0.476,1.993 2.605,0 7.285,-2.782 10.39,-6.192 4.813,-5.261 4.95,-6.679 1.024,-9.461 -5.977,-4.191 -13.613,2.649 -8.875,7.95 z m -97.481,-0.625 c 1.571,2.753 10.868,-0.586 11.825,-4.254 0.343,-1.282 -2.196,-2.391 -5.703,-2.422 -6.543,-0.09 -8.68,2.242 -6.122,6.676 z M 283.145,78.4609 c -1.379,-0.3828 -2.754,0.3711 -3.098,1.6485 -0.406,1.2695 -5.086,2.7109 -10.524,3.2304 -12.593,1.1719 -14.238,6.6719 -2.89,9.8086 4.816,1.3008 10.254,1.0313 12.039,-0.6601 4.539,-4.2266 7.433,-13.207 4.473,-14.0274 z m -14.45,31.1681 c -0.476,1.68 0.207,3.371 1.582,3.75 3.649,0.992 16.379,-4.379 15.137,-6.41 -1.789,-2.918 -15.824,-0.68 -16.719,2.66 z m 130.66,49.152 c 0.481,-1.718 -0.488,-3.508 -2.136,-3.945 -1.653,-0.461 -3.164,-0.254 -3.371,0.477 -0.137,0.722 0.754,2.5 2.129,3.957 1.386,1.472 2.89,1.269 3.378,-0.489 z m -21.054,-7.707 c -5.508,-4.062 -10.742,3.762 -6.543,9.778 2.754,3.953 3.312,3.847 2.824,-0.625 -0.273,-2.989 0.965,-4.993 2.82,-4.473 1.789,0.488 2.825,2.586 2.278,4.648 -0.559,2.032 2.058,0.45 5.769,-3.574 7.434,-7.988 10.117,-13.281 3.86,-7.609 -3.371,3.058 -4.407,2.785 -8.118,-2.235 -3.925,-5.304 -4.062,-5.265 -1.589,0.653 2.343,5.539 2.136,6.027 -1.301,3.437 z m -39.91,-15.375 c -0.411,1.621 1.511,1.68 4.402,0.211 2.891,-1.488 4.961,-3.269 4.543,-4 -1.172,-2.23 -8.117,0.692 -8.945,3.789 z M 141.895,116.191 c -0.551,1.758 0.406,3.547 2.062,4 1.648,0.45 3.164,0.239 3.367,-0.492 0.211,-0.711 -0.75,-2.5 -2.129,-3.988 -1.375,-1.441 -2.82,-1.242 -3.3,0.48 z m 149.714,49.543 c 1.922,-0.558 3.852,-2.277 4.262,-3.82 0.414,-1.543 -0.547,-3.164 -2.199,-3.613 -1.586,-0.449 -3.512,1.269 -4.274,3.82 -0.675,2.547 0.348,4.168 2.211,3.613 z m -27.867,-6.886 c -1.855,1.691 -5.715,2.453 -8.457,1.73 -9.918,-2.656 -13.629,0.887 -6.961,6.629 6.684,5.754 7.856,5.508 19.684,-4.402 4.543,-3.821 6.262,-3.672 11.082,0.898 5.633,5.371 5.633,5.332 2.746,-3.683 -2.477,-7.743 -3.852,-8.731 -8.809,-6.668 -3.23,1.336 -7.429,3.816 -9.285,5.496 z m -50.988,-8.672 c -3.781,2.656 -3.438,3.242 1.934,3.312 7.292,0.106 8.183,-0.683 4.953,-4.199 -1.243,-1.309 -4.262,-0.891 -6.887,0.887 z m -49.875,-10.867 c -3.645,1.386 -5.641,3.543 -4.34,4.824 1.242,1.269 5.504,0.508 9.5,-1.692 8.395,-4.609 4.609,-6.839 -5.16,-3.132 z m 117.652,37.363 c 1.168,-0.684 0.614,-3.508 -1.304,-6.289 -3.993,-5.715 -4.684,-5.031 -2.485,2.371 0.895,2.812 2.551,4.609 3.789,3.918 z m -8.949,-3.477 c -0.547,-5.703 -2.406,-7.257 -3.644,-2.961 -0.415,1.555 0.343,3.996 1.726,5.442 1.371,1.512 2.195,0.449 1.918,-2.481 z m -36.809,0.516 c 0.899,3.273 3.098,4.269 7.086,3.273 4.821,-1.171 5.301,-2.199 2.688,-5.851 -3.922,-5.703 -11.625,-3.68 -9.774,2.578 z m -67.421,19.719 c -1.516,1.367 -1.516,3.816 -0.075,5.398 3.786,4.094 7.852,1.027 5.098,-3.855 -1.59,-2.715 -3.238,-3.235 -5.023,-1.543 z m 40.796,9.004 c -1.027,-3.293 -2.335,-3.918 -4.402,-1.993 -1.578,1.485 -1.379,3.164 0.547,3.68 1.859,0.52 2.141,2.754 0.488,4.961 -1.586,2.199 -1.656,4.367 0,4.785 3.512,0.988 5.297,-5.027 3.367,-11.433 z m -19.402,-12.207 c -1.648,-0.442 -3.164,-0.235 -3.367,0.476 -0.211,0.723 0.754,2.52 2.129,3.996 1.379,1.446 2.824,1.239 3.371,-0.488 0.418,-1.75 -0.477,-3.535 -2.133,-3.984 z m 48.363,2.753 -2.125,11.114 c -2.336,12.312 -4.476,13.281 -8.187,3.855 -1.445,-3.476 -3.027,-4.754 -3.578,-2.793 -0.621,1.926 0.066,4.785 1.515,6.367 1.446,1.543 1.575,4.297 0.274,6.086 -1.723,2.274 1.027,2.684 8.871,1.336 6.266,-1.062 11.562,-2.578 11.836,-3.398 0.273,-0.801 -1.516,-6.192 -4.059,-12 z m 40.875,10.489 c -0.136,0.722 0.821,2.508 2.133,3.953 1.371,1.484 2.887,1.242 3.375,-0.477 0.481,-1.718 -0.488,-3.507 -2.133,-3.984 -1.586,-0.449 -3.101,-0.215 -3.375,0.508 z m -63.5,-17.442 c -4.546,1.485 -8.879,1.512 -9.64,0.106 -0.824,-1.406 -1.922,-0.86 -2.543,1.242 -0.547,2.098 1.035,3.602 3.512,3.328 2.539,-0.203 5.71,1.582 7.085,4.035 1.993,3.438 2.481,3.125 2.063,-1.281 -0.348,-3.34 0.824,-5.398 2.754,-4.844 1.781,0.481 3.644,-0.488 4.133,-2.168 0.406,-1.648 -2.899,-1.863 -7.364,-0.418 z m 10.661,-6.261 c 1.378,3.722 3.921,5.988 5.57,5.031 1.719,-0.93 1.933,-3.027 0.488,-4.649 -1.445,-1.652 -2.754,-5.089 -2.828,-7.668 -0.133,-2.957 -1.238,-3.757 -3.023,-2.097 -1.512,1.406 -1.657,5.633 -0.207,9.383 z m -30.957,-5.879 c 3.23,-0.313 5.359,-1.512 4.675,-2.684 -0.687,-1.172 -3.304,-0.93 -5.847,0.547 -3.786,2.176 -3.508,2.578 1.172,2.137 z m -13.762,-9.598 c -1.11,-1.269 -2.613,-0.344 -3.235,2.059 -0.691,2.375 -0.832,4.445 -0.418,4.543 2.481,0.691 5.504,-4.707 3.653,-6.602 z m 89.785,25.594 c -1.992,-8.192 -3.102,-6.981 -3.231,3.508 -0.074,8.125 2.543,7.812 19.461,-2.344 8.332,-5.02 11.43,-7.91 6.883,-6.399 -4.539,1.524 -11.14,5.137 -14.719,8.059 l -6.402,5.359 z m -94.809,28.722 c 0.137,-6.64 -3.168,-9.25 -7.015,-5.675 -1.242,1.133 -1.11,4.062 0.269,6.476 3.785,6.668 6.676,6.317 6.746,-0.801 z m -15.894,0.418 c -0.274,-2.722 -0.969,-5.097 -1.656,-5.261 -0.614,-0.176 -1.719,1.679 -2.403,4.121 -0.691,2.48 0.067,4.812 1.649,5.262 1.586,0.449 2.683,-1.407 2.41,-4.122 z M 111.691,137.18 c -4.406,1.992 -4.617,3.054 -1.242,7.332 2.199,2.746 2.614,6.25 0.895,7.843 -4.68,4.364 -8.875,1.895 -5.227,-3.097 2.067,-2.793 1.926,-4.031 -0.484,-3.34 -2.063,0.617 -3.856,-0.449 -3.985,-2.344 -0.074,-2.48 -2.9644,-3.23 -9.5621,-2.605 -5.2382,0.476 -11.7031,-0.586 -14.5195,-2.414 -2.8203,-1.785 -5.4375,-1.965 -5.918,-0.313 -1.582,5.715 -14.7265,3.86 -17.1289,-2.402 -1.9297,-5.192 -2.5507,-5.399 -5.2343,-1.828 -1.6524,2.238 -1.5157,4.476 0.414,4.992 5.918,1.652 -1.6445,3.957 -8.6719,2.617 -9.4179,-1.758 -11.625,-4.781 -6.125,-8.562 2.6875,-1.911 3.375,-3.59 1.6563,-4.071 -1.6563,-0.476 -5.0938,0.653 -7.7031,2.453 -3.7852,2.637 -3.5117,4.43 1.164,9.008 v 0 c 3.1641,3.164 6.8868,5.742 8.1172,5.742 1.2383,-0.039 1.0391,1.653 -0.4804,3.684 -1.4375,2.031 -1.1641,5.195 0.621,7.02 1.793,1.855 2.6875,2.062 1.8555,0.519 -2.6797,-5.344 11.5586,-11.289 18.0274,-7.539 7.3632,4.266 6.6718,8.777 -1.793,12.012 -3.4375,1.297 -5.5703,3.543 -4.7461,4.98 0.832,1.446 5.918,-0.097 11.3594,-3.476 9.7656,-6.086 9.9062,-6.055 13.414,1.238 1.9961,4.062 5.2969,7.297 7.3633,7.16 2.0625,-0.137 4.2617,1.512 4.8828,3.613 0.8242,2.754 2.6094,3.164 6.3946,1.485 4.1992,-1.895 4.6875,-1.594 2.414,1.504 -1.582,2.136 -2.3398,7.539 -1.7265,12 1.1054,7.539 1.1718,7.617 1.7265,1.074 0.2735,-3.887 1.7852,-6.738 3.2308,-6.336 1.511,0.418 2.34,2 1.929,3.543 -0.418,1.516 1.719,4.375 4.676,6.301 3.024,1.961 4.957,5.82 4.336,8.601 -0.691,2.949 -0.141,3.75 1.309,1.895 1.925,-2.508 3.511,-2.098 7.222,1.953 6.469,7.051 3.786,14.25 -6.191,16.516 -4.75,1.074 -8.059,3.789 -7.777,6.433 0.277,3.027 -0.891,3.574 -3.575,1.582 -4.6129,-3.406 -10.2496,0.52 -8.6715,6.016 0.7617,2.48 3.3047,2.617 7.5665,0.488 3.508,-1.785 7.16,-2.031 7.984,-0.516 0.895,1.512 1.309,0.301 1.035,-2.675 -0.418,-4.2 0.75,-4.68 5.082,-2.207 4.68,2.714 4.754,4.296 0.559,10.007 -5.578,7.676 -4.543,13.079 1.508,7.571 2.207,-1.992 4.82,-4.758 5.785,-6.125 2.266,-3.367 10.934,3.273 9.766,7.531 -0.551,1.934 -2.821,2 -5.301,0.176 -3.641,-2.688 -3.984,-2.305 -1.852,2.344 2.688,5.984 8.668,9.246 7.153,3.914 -0.551,-1.747 1.308,-4.5 4.062,-6.094 2.75,-1.57 6.473,-4.844 8.192,-7.285 2.816,-3.856 1.847,-4.403 -8.059,-4.403 -13.961,0 -15.273,-1.992 -6.465,-9.777 5.231,-4.609 6.192,-6.875 3.926,-9.285 -1.996,-2.168 -2.555,-1.75 -1.656,1.238 0.894,3 0,3.645 -2.477,1.965 -5.437,-3.645 -3.371,-7.609 4.754,-9.191 5.844,-1.133 7.016,-2.95 7.016,-10.965 0.07,-5.266 1.097,-11.075 2.468,-12.942 1.317,-1.824 0.895,-3.75 -1.027,-4.265 -1.855,-0.52 -2.266,-1.543 -0.894,-2.305 1.304,-0.793 3.988,0.859 5.917,3.613 2.2,3.133 3.86,3.817 4.407,1.864 0.476,-1.727 -0.278,-4.375 -1.59,-5.821 -1.371,-1.484 -1.024,-7.879 0.695,-14.238 1.785,-6.367 1.922,-12.938 0.348,-14.617 -1.863,-2.031 -2.414,-1.555 -1.52,1.472 0.825,2.852 -1.105,5.469 -5.297,7.051 -6.062,2.305 -6.195,2.617 -1.378,3.918 2.89,0.801 3.996,2.559 2.546,3.926 -3.781,3.516 -7.293,1.961 -11.289,-5.02 -2.742,-4.921 -4.468,-5.605 -8.875,-3.613 -4.535,2 -4.953,1.727 -2.468,-1.652 1.644,-2.235 1.859,-5.332 0.476,-6.844 -1.371,-1.484 -1.097,-4.609 0.621,-6.914 2.614,-3.652 1.992,-3.996 -4.679,-2.48 -5.09,1.132 -6.743,0.8 -4.813,-0.958 4.813,-4.511 1.508,-10.367 -4.473,-7.675 z m -9.222,66.804 c 2.269,-3.027 1.789,-4.16 -1.578,-3.855 -6.059,0.625 -7.9847,7.293 -3.1683,10.906 3.9923,2.93 7.8433,1.867 9.0823,-2.508 0.34,-1.445 -1.102,-2.101 -3.371,-1.445 -2.754,0.789 -3.028,-0.246 -0.965,-3.098 z M 43.6484,170.031 c -0.2148,0.789 2.8868,6.571 6.875,12.801 4.0586,6.262 10.3907,14.797 14.1758,18.996 6.6758,7.488 6.7422,7.527 4.75,0.711 -1.1719,-3.816 -3.3047,-6.57 -4.8203,-6.121 -1.5859,0.449 -2.4101,-0.617 -1.9219,-2.336 0.4766,-1.719 2.1953,-2.793 3.8438,-2.344 1.5859,0.481 3.3047,-0.379 3.7187,-1.855 0.4102,-1.485 -2.1328,-2.754 -5.6406,-2.781 -3.7812,-0.071 -5.9883,-1.555 -5.4336,-3.692 0.5508,-1.953 -0.8281,-3.398 -3.1015,-3.234 -2.2657,0.176 -5.8438,-2.371 -8.0391,-5.645 -2.207,-3.289 -4.1328,-5.32 -4.4063,-4.5 z M 79.832,219.23 c 4.6758,5.333 7.7071,6.571 13.0078,5.36 9.2852,-2.098 7.0157,-8.145 -3.164,-8.387 -5.0274,-0.109 -8.6055,-1.855 -9.3555,-4.512 -0.7617,-2.714 -2.2773,-3.437 -3.9258,-1.894 -1.4453,1.387 0.0703,5.613 3.4375,9.433 z m 72.727,44.129 c 0.48,-1.718 2.269,-1.679 3.921,0.11 2.059,2.129 2.133,1.035 0.34,-3.067 -2.199,-4.98 -3.504,-5.636 -6.257,-3.164 -4.817,4.336 -5.504,7.461 -1.856,8.465 1.578,0.442 3.367,-0.625 3.852,-2.344 z m 25.527,11.868 c -0.207,0.73 0.754,2.519 2.129,3.992 1.308,1.445 2.824,1.242 3.301,-0.508 0.48,-1.727 -0.477,-3.516 -2.059,-3.965 -1.652,-0.437 -3.164,-0.234 -3.371,0.481 z m -40.391,-9.629 c -1.445,1.277 -1.511,3.476 -0.203,4.851 1.305,1.379 3.438,1.485 4.883,0.168 1.383,-1.262 1.445,-3.469 0.141,-4.844 -1.313,-1.378 -3.45,-1.476 -4.821,-0.175 z m 86.895,0.925 c -5.844,3.692 -5.774,4.094 0.969,5.957 7.839,2.161 8.668,1.407 6.601,-5.476 -1.031,-3.438 -2.75,-3.535 -7.57,-0.481 z M 163.77,255 c 1.308,1.445 4.617,1.105 7.363,-0.789 5.301,-3.711 2.48,-5.606 -5.086,-3.301 -2.899,0.887 -3.789,2.481 -2.277,4.09 z m -5.707,-15 c -2.204,-3.191 -3.375,-2.812 -4.54,1.582 -0.902,3.164 0.141,6.27 2.2,6.856 2.129,0.585 4.195,-0.145 4.539,-1.59 0.414,-1.407 -0.547,-4.504 -2.199,-6.848 z m 19.75,1.074 c -0.555,2.16 0.613,3.469 2.539,2.891 4.753,-1.375 2.824,-7.195 -2.821,-8.777 -6.398,-1.75 -16.164,4.199 -12.793,7.812 1.442,1.582 5.223,0.887 8.325,-1.484 3.64,-2.786 5.363,-2.961 4.75,-0.442 z m 139.871,50.977 c -0.621,-1.024 -4.954,-0.203 -9.704,1.867 -4.746,2.059 -7.359,4.121 -5.843,4.531 3.988,1.102 16.785,-4.191 15.547,-6.398 z m 13.48,4.238 c 0.828,-2.996 1.172,-5.535 0.762,-5.644 -0.41,-0.145 -2.754,1.894 -5.16,4.433 -3.235,3.34 -3.442,4.961 -0.754,5.684 1.996,0.547 4.332,-1.453 5.152,-4.473 z m 22.441,10.559 c -1.171,0.652 0,2.781 2.606,4.715 3.789,2.785 4.269,2.539 2.141,-1.211 -1.457,-2.606 -3.586,-4.2 -4.747,-3.504 z m -59.386,0.625 c 1.926,-0.559 3.859,-2.375 4.265,-3.996 0.489,-1.649 -0.683,-2.547 -2.613,-1.961 -1.926,0.547 -3.918,2.343 -4.332,3.984 -0.476,1.66 0.762,2.52 2.68,1.973 z M 200.93,269.414 c -4.2,-3.016 -5.098,-2.332 -5.645,4.473 -0.48,5.957 -1.59,7.363 -4.262,5.371 -4.546,-3.301 -4.89,-2.442 -1.515,3.476 3.64,6.465 8.113,7.012 13.828,1.75 5.57,-5.156 4.883,-9.843 -2.406,-15.07 z m 48.16,73.691 c -2.004,7.286 -5.512,8.704 -8.531,3.438 -2.481,-4.434 -9.844,-6.57 -10.739,-3.164 -0.476,1.789 -1.445,2.336 -2.066,1.242 -2.469,-4.406 5.301,-10.293 9.57,-7.297 3.508,2.414 3.985,2.063 2.063,-1.621 -2.824,-5.535 -9.016,-4.363 -14.035,2.629 -2.547,3.504 -4.614,3.836 -7.082,1.16 -2.961,-3.164 -2.688,-4.433 1.644,-7.429 3.031,-2.102 3.856,-3.958 2.066,-4.473 -1.652,-0.442 -4.128,0.691 -5.367,2.547 -1.793,2.617 -3.164,2.129 -6.125,-2.168 -4.883,-6.914 -9.492,-4.852 -6.121,2.726 2.133,4.707 1.512,5.293 -3.926,3.778 -3.992,-1.102 -5.363,-2.86 -3.57,-4.512 2.063,-1.922 0.75,-2.227 -4.34,-1.094 -6.261,1.446 -7.015,0.821 -5.578,-4.402 2.141,-7.813 -2.816,-9.258 -7.422,-2.168 -4.199,6.492 -6.121,6.219 -12.937,-1.965 -3.168,-3.926 -9.293,-6.844 -16.168,-7.84 -6.059,-0.871 -10.738,-2.617 -10.391,-3.926 1.86,-6.671 -18.23,-16.027 -28.215,-13.105 -3.504,1.035 -4.054,0.34 -1.992,-2.481 1.863,-2.5 0.418,-5.917 -4.055,-9.531 -3.785,-3.058 -13.9683,-11.347 -22.6363,-18.371 -8.6054,-7.012 -19.8086,-18.574 -24.9062,-25.723 -5.0938,-7.089 -14.3086,-18.132 -20.5,-24.46 C 26.0313,202.891 4.15234,161.914 0.574219,145.539 -0.527344,140.383 0.0195313,131.031 1.67578,124.762 4.83984,113.48 4.97656,113.379 15.8477,116.949 c 18.5039,6.02 19.6757,6.02 16.9257,-0.211 -2.0625,-4.5 -1.6523,-5.258 2.3399,-4.148 2.6172,0.711 4.4062,2.738 3.9219,4.5 -0.4844,1.75 1.8554,1.68 5.0937,-0.18 6.9414,-3.949 10.7266,-3.43 12.1719,1.59 0.6875,2.199 4.6758,2.199 10.668,0.039 5.2265,-1.93 15.3437,-3.437 22.4335,-3.41 15.2027,0.109 44.1637,-5.399 31.9927,-6.09 -7.782,-0.449 -7.782,-0.449 -0.211,-2.027 9.148,-1.93 10.593,-5.121 4.125,-9.262 -2.614,-1.6719 -1.168,-1.5781 3.168,0.2109 4.882,2 8.328,1.7891 8.941,-0.4804 0.551,-2.0586 5.168,-5.0586 10.254,-6.711 7.637,-2.4414 9.496,-2.0976 10.738,1.8321 1.172,3.8203 2.129,4.1289 5.016,1.5781 1.933,-1.7188 5.512,-1.6484 7.98,0.1797 3.375,2.4687 4.34,1.9492 3.996,-2.0078 -0.347,-3.5313 1.098,-4.8516 4.262,-3.9922 2.613,0.7304 5.164,-0.0977 5.645,-1.8594 0.476,-1.75 3.921,-1.9219 7.636,-0.3398 3.785,1.5781 9.153,1.8203 11.969,0.5195 2.891,-1.2813 9.43,-2.75 14.582,-3.2305 9.367,-0.8594 9.367,-0.8281 2.899,4.8399 -5.844,5.2109 -6.129,6.1211 -2.411,10.0898 5.985,6.4021 29.512,10.7231 36.532,6.7421 5.574,-3.172 5.711,-3.621 1.105,-5.2304 -2.758,-1 -6.262,-2.5195 -7.777,-3.3789 -1.52,-0.8515 -3.641,-1.9922 -4.75,-2.5117 -1.098,-0.5 0.074,-2.0898 2.554,-3.5391 5.497,-3.1015 7.422,-8.1211 2.54,-6.6718 -1.926,0.5507 -2.133,-0.7188 -0.547,-2.8907 1.578,-2.1679 6.464,-3.8203 10.867,-3.707 6.398,0.1367 7.57,-0.832 5.711,-4.8828 -1.793,-4.0078 -0.754,-5.4375 4.676,-6.6797 5.785,-1.3086 6.468,-0.8594 3.996,2.5117 -2.137,2.8907 -1.516,3.918 1.996,3.6094 2.816,-0.2695 6.324,-2.2109 7.836,-4.3086 1.586,-2.1016 4.34,-3.3633 6.195,-2.8516 1.93,0.5196 2.34,2.4493 0.965,4.2696 -1.375,1.8515 -0.07,6.5 2.89,10.3203 5.157,6.6992 5.364,6.7422 5.438,0.6484 0.062,-3.4687 -0.895,-7.3984 -2.066,-8.6992 -3.579,-3.8476 -0.965,-8.0078 4.132,-6.6094 2.95,0.8008 3.711,2.8008 1.993,5.1289 -3.926,5.3008 1.511,11.9727 9.906,12.0821 6.742,0.0586 9.008,-2.1407 10.179,-10.2305 0.274,-2.0898 4.133,-3.6797 8.458,-3.6016 4.406,0.1329 7.988,-0.7265 8.058,-1.8593 0.067,-5.5391 8.945,-14.3477 12.039,-12.0508 1.926,1.4219 4.543,1.9726 5.852,1.25 1.308,-0.7695 4.121,-1.25 6.258,-1.0977 2.14,0.1289 7.089,0.168 11.074,0.0977 4.953,-0.0977 6.945,1.1328 6.328,3.9922 -0.477,2.2695 0.898,1.7187 3.027,-1.1719 2.207,-2.918 5.918,-4.8867 8.196,-4.3281 6.738,1.539 23.113,1.1015 27.656,-0.8008 2.265,-0.9609 7.363,-1.4805 11.347,-1.168 3.926,0.3164 14.043,-0.6133 22.364,-2.0625 14.656,-2.5078 32.058,-4.5781 31.855,-3.8203 -0.137,0.3828 29.11,-3.8086 54.012,-7.7305 7.773,-1.2382 15.48,-1.8671 17.129,-1.4179 4.199,1.1679 30.683,-4.3711 38.527,-8.0117 3.582,-1.6485 7.156,-1.8985 7.918,-0.5196 0.754,1.4102 -0.137,2.1016 -2.07,1.5508 -1.922,-0.5195 -3.914,0.6211 -4.403,2.4805 -0.617,2.2304 1.309,2.3984 5.438,0.4804 3.574,-1.6211 9.629,-2.2812 13.488,-1.4218 3.914,0.8593 10.254,-0.5 14.032,-3.0899 3.925,-2.5508 8.39,-4.2695 10.05,-3.8203 1.649,0.4531 5.36,-0.7891 8.184,-2.75 2.82,-2 7.43,-2.3008 10.183,-0.7305 2.961,1.7227 5.442,1.3516 6.125,-0.9179 0.547,-2.1289 3.301,-4.1016 5.985,-4.3711 2.687,-0.2813 5.293,-1.8594 5.781,-3.5391 1.242,-4.37889 -7.09,-6.10155 -10.117,-2.10155 -1.375,1.82035 -1.785,0.28125 -0.887,-3.48047 1.16,-4.816405 3.289,-6.289061 7.559,-5.089842 3.308,0.902342 5.574,2.960942 5.097,4.613282 -0.41,1.64844 2.403,3.85937 6.329,4.91797 14.304,3.96091 24.355,18.05861 28.894,40.44921 1.309,6.6406 3.516,8.9922 8.594,9.1524 5.578,0.1796 5.918,0.7578 2.004,3.1679 -6.75,4.1289 -7.922,10.461 -2.129,12.0391 3.289,0.9219 3.777,3 1.57,6.8398 -2.058,3.5938 -1.719,5.9219 0.969,6.6836 2.344,0.6602 3.855,2.5078 3.379,4.1172 -0.422,1.6602 -2.754,2.4492 -5.098,1.8008 -3.711,-1 -4.133,0.4101 -3.097,9.6013 0.683,5.879 -0.34,14.989 -2.196,20.199 -2.344,6.309 -2.207,9.829 0.477,10.551 3.027,0.821 2.754,3.125 -1.309,9.699 -2.879,4.754 -9.285,19.922 -14.305,33.75 -7.023,19.571 -11.769,27.969 -21.613,38.223 -6.941,7.227 -18.711,21.738 -26.14,32.305 -7.5,10.527 -15.754,20.496 -18.372,22.148 -2.683,1.649 -10.39,7.5 -17.207,12.969 -15.546,12.52 -56.132,31.961 -88.464,42.383 -13.633,4.375 -25.676,8.562 -26.7,9.285 -1.105,0.695 -7.023,2.617 -13.214,4.23 -6.192,1.661 -11.563,4.168 -11.973,5.645 -0.41,1.445 -2.469,1.348 -4.609,-0.234 -2.196,-1.621 -10.321,0.066 -18.641,3.816 -19.817,9.043 -40.801,12.52 -63.711,10.559 -10.461,-0.899 -19.406,-0.383 -19.816,1.132 -0.411,1.512 -2.754,1.278 -5.235,-0.507 -2.402,-1.829 -5.711,-2.102 -7.215,-0.664 -1.582,1.414 -7.226,1.718 -12.461,0.664 -5.293,-1.067 -9.902,-1.106 -10.175,-0.11 -0.274,1.035 -5.098,1.379 -10.668,0.821 -5.575,-0.586 -12.938,-0.75 -16.45,-0.372 -5.222,0.547 -5.703,-0.214 -2.816,-4.168 3.164,-4.269 2.891,-4.503 -2.547,-2.062 -4.816,2.141 -6.258,1.867 -6.398,-1.309 -0.344,-5.906 -6.535,-6.746 -16.301,-2.089 -4.891,2.375 -12.731,2.882 -18.649,1.269 -8.808,-2.441 -9.703,-3.543 -6.675,-8.262 2.543,-3.847 2.203,-5.808 -1.098,-6.707 -2.961,-0.82 -5.367,1.387 -6.742,6.16" /><path
         id="path30"
         style="fill:#dc3822;fill-opacity:1;fill-rule:nonzero;stroke:none"
         d="m 88.4336,152.93 c -1.4453,1.379 -4.8828,1.828 -7.6367,1.047 -4.3321,-1.243 -4.3321,-1.661 0.207,-3.106 2.8828,-0.898 6.332,-1.379 7.7031,-1.027 1.3125,0.332 1.2422,1.719 -0.2734,3.086" /><path
         id="path32"
         style="fill:#dc3822;fill-opacity:1;fill-rule:nonzero;stroke:none"
         d="m 115.82,159.953 c -3.855,-0.312 -5.023,-1.758 -3.445,-4.133 1.383,-1.992 4.066,-3.191 5.918,-2.644 5.848,1.582 3.781,7.265 -2.473,6.777" /><path
         id="path34"
         style="fill:#dc3822;fill-opacity:1;fill-rule:nonzero;stroke:none"
         d="m 421.828,436.758 c -1.515,1.379 -1.308,2.89 0.477,3.379 1.718,0.402 3.508,-0.489 3.925,-2.137 0.481,-1.652 0.274,-3.164 -0.476,-3.379 -0.695,-0.129 -2.481,0.762 -3.926,2.137 z m 4.473,12.863 c -0.832,3.106 -0.762,7.891 0.066,10.672 0.821,2.812 0.344,6.262 -1.101,7.707 -1.446,1.438 -1.243,1.922 0.488,1.063 4.949,-2.469 8.25,-16.172 5.019,-20.782 -2.277,-3.191 -3.378,-2.89 -4.472,1.34 z m 12.586,23.914 c 1.652,0.445 3.164,0.207 3.301,-0.515 0.207,-0.723 -0.684,-2.477 -2.059,-3.957 -1.379,-1.485 -2.891,-1.239 -3.379,0.484 -0.48,1.754 0.488,3.535 2.137,3.988 z m -10.594,3.473 c -0.422,1.648 -0.207,3.164 0.477,3.34 0.761,0.207 2.55,-0.727 3.996,-2.102 1.445,-1.371 1.238,-2.851 -0.489,-3.34 -1.718,-0.476 -3.507,0.489 -3.984,2.102 z m -31.855,-0.75 c -1.856,0.547 -3.79,2.262 -4.2,3.816 -0.48,1.516 0.555,3.164 2.196,3.61 1.593,0.449 3.515,-1.27 4.277,-3.821 0.684,-2.543 -0.281,-4.191 -2.273,-3.605 z m -64.875,-15.516 c -1.036,0.586 0.128,2.578 2.609,4.406 2.469,1.817 5.301,2.813 6.394,2.227 1.036,-0.586 -0.136,-2.578 -2.605,-4.406 -2.481,-1.817 -5.371,-2.813 -6.398,-2.227 z m 18.781,13.926 c 2.195,3.133 3.847,3.82 4.402,1.859 0.957,-3.609 -3.504,-9.359 -6.133,-7.843 -0.957,0.515 -0.203,3.23 1.731,5.984 z m 30.332,11.629 c 1.719,0.48 3.515,-0.445 4.004,-2.098 0.398,-1.652 0.195,-3.133 -0.489,-3.34 -0.753,-0.199 -2.55,0.758 -3.996,2.102 -1.445,1.375 -1.238,2.855 0.481,3.336 z m -5.637,9.672 c -1.922,0.551 -4.121,3.297 -4.883,6.047 -1.172,4.371 -0.761,4.543 2.813,1.379 5.371,-4.782 6.465,-8.735 2.07,-7.426 z m -19.676,-2.996 c -0.89,-1.477 -3.164,-1.203 -5.168,0.656 -1.992,1.816 -4.871,1.992 -6.394,0.336 -1.516,-1.684 -1.653,-4.059 -0.344,-5.297 1.379,-1.23 0.137,-2.027 -2.684,-1.785 -6.125,0.617 -7.636,4.398 -3.097,7.879 5.168,3.957 -5.223,6.636 -11.625,2.961 -3.574,-2.102 -5.641,-1.453 -6.531,1.957 -0.758,2.758 -2.34,3.988 -3.508,2.758 -1.11,-1.243 -7.09,0.718 -13.211,4.367 l -11.145,6.672 8.805,-0.825 c 6.461,-0.621 9.012,0.239 9.492,3.2 0.414,2.195 0.824,1.164 0.961,-2.34 0.137,-4.992 3.785,-7.125 17.203,-10.117 16.094,-3.547 16.922,-3.438 15.41,2.027 -0.89,3.195 0,5.371 1.922,4.816 1.934,-0.578 4.199,-3.609 5.098,-6.808 1.027,-3.785 3.574,-5.231 7.492,-4.133 3.516,0.969 6.543,-0.34 7.293,-3.199 1.035,-3.676 0.215,-4.328 -3.574,-2.61 -2.684,1.203 -5.567,1 -6.395,-0.515 z m 7.977,49.257 v 0 c 3.926,4.098 4.68,4.372 2.89,0.969 -1.375,-2.551 -1.23,-6.301 0.208,-8.324 1.523,-2.031 1.375,-4.023 -0.274,-4.48 -6.055,-1.676 -7.98,6.402 -2.824,11.835 z m -92.742,-26.105 c -1.926,1.754 -5.504,1.684 -7.914,-0.145 -2.473,-1.785 -4.746,-2.402 -5.024,-1.371 -0.277,1.067 1.242,3.2 3.375,4.786 v -0.04 c 4.68,3.477 10.801,2.032 12.11,-2.82 0.617,-2.547 -0.067,-2.652 -2.547,-0.41 z m 33.711,17.195 c 3.785,-2.164 3.718,-2.957 -0.067,-4.023 -2.683,-0.723 -5.023,-3.199 -5.297,-5.461 -0.273,-2.277 -0.965,-2.828 -1.511,-1.207 -0.551,1.609 -0.282,5.262 0.546,8.148 1.301,4.164 2.543,4.645 6.329,2.543 z M 249.27,521.77 c -0.141,0.621 1.238,3.367 3.164,6.046 2.816,4.059 3.644,4.098 4.75,0.145 0.754,-2.688 -0.621,-5.406 -3.102,-6.094 -2.473,-0.648 -4.609,-0.719 -4.812,-0.097 z M 145.656,764.906 c -0.586,-1.988 1.719,-4.363 5.09,-5.222 3.367,-0.899 4.742,-2.032 3.164,-2.508 -4.543,-1.313 -10.254,1.265 -13.863,6.293 -2.309,3.23 -1.899,4.398 1.512,4.09 2.652,-0.274 4.336,1.105 3.82,2.996 -0.516,1.925 0.617,3.031 2.543,2.445 1.933,-0.555 4.058,-3.273 4.816,-6.062 1.032,-3.989 0.555,-4.329 -2.336,-1.715 -2.375,2.168 -4.031,2.062 -4.746,-0.317 z m -6.676,52.125 c 1.618,0.446 3.336,-0.551 3.786,-2.172 0.445,-1.644 -0.524,-3.332 -2.168,-3.816 -1.618,-0.445 -3.34,0.551 -3.785,2.172 -0.454,1.644 0.511,3.328 2.167,3.816 z M 264.543,542.066 c -1.719,-0.285 -6.883,1.336 -11.488,3.571 -4.614,2.273 -12.246,3.754 -16.926,3.34 -5.844,-0.481 -9.426,1.312 -11.356,5.675 -1.515,3.547 -3.855,6.161 -5.16,5.778 -1.304,-0.34 -3.23,2.379 -4.265,6.054 -3.575,12.567 -4.469,13.383 -10.801,10.043 -4.813,-2.504 -5.504,-2.297 -2.891,0.864 1.93,2.269 2.891,7.363 2.27,11.32 -0.617,3.918 -1.375,5.301 -1.649,2.988 -0.273,-2.269 -2.41,-4.676 -4.746,-5.297 -2.34,-0.648 -3.859,-2.476 -3.441,-4.058 0.48,-1.578 -1.582,-2.653 -4.477,-2.371 -5.363,0.515 -4.261,-2.442 5.852,-16.305 5.367,-7.398 -5.231,-1.445 -12.317,6.875 -15.07,17.754 -38.906,51.742 -48.402,69.043 -10.144,18.414 -25.836,63.578 -27.969,80.394 -4.093,32.375 -6.504,68.184 -5.707,84.977 0.957,20.332 9.43,70.523 14.45,85.691 1.582,4.883 5.121,15.93 7.839,24.629 2.719,8.672 5.883,17.649 7.02,19.953 1.137,2.27 5.644,12.114 10.012,21.813 4.367,9.734 13.379,26.492 20.125,37.223 6.668,10.734 14.718,24.224 17.882,29.934 7.235,13.24 15.622,13.38 16.586,0.27 0.547,-8.26 5.848,-11.66 7.422,-4.85 0.348,1.41 0.836,1.17 1.043,-0.52 0.199,-1.72 -2.133,-5.23 -5.301,-7.84 -3.921,-3.24 -4.75,-6.44 -2.543,-10.32 1.649,-3.096 1.852,-4.131 0.344,-2.342 -1.582,1.792 -3.789,2.172 -5.019,0.832 -2.899,-3.102 -4.274,1.54 -1.864,6.22 0.965,1.96 1.313,8.46 0.754,14.48 -0.894,9.01 -1.507,9.94 -3.437,5.26 -1.305,-3.12 -4.535,-7.18 -7.09,-9.04 -2.543,-1.86 -4.059,-5.47 -3.363,-7.98 0.683,-2.48 -0.696,-5.09 -3.102,-5.71 -6.875,-1.93 -10.453,-15.762 -5.433,-21.023 3.304,-3.438 3.164,-5.258 -0.415,-7.637 -7.566,-4.918 -14.859,-33.328 -10.523,-40.695 3.574,-6.02 3.504,-6.09 -2.344,-1.86 -4.953,3.618 -6.707,3.512 -9.531,-0.547 -3.023,-4.335 -2.129,-5.992 7.191,-13.043 l 10.602,-8.078 -10.672,2.754 c -13.824,3.539 -17.609,-2.168 -12.387,-18.613 2.317,-7.195 2.45,-11.422 0.348,-10.836 -4.918,1.445 -10.867,-8.148 -7.734,-12.422 1.445,-1.957 1.371,-3.918 -0.176,-4.363 -2.371,-0.66 -3.27,-7.883 -2.543,-20.711 0.066,-1.313 0,-3.133 -0.207,-4.066 -0.176,-0.957 -0.348,-2.786 -0.348,-4.125 0,-1.305 -0.414,-5.09 -0.89,-8.395 -0.45,-3.266 0.203,-6.57 1.476,-7.289 1.274,-0.762 1.481,-3.234 0.41,-5.57 -1.75,-3.895 -0.586,-16.688 4.129,-45.414 0.965,-5.918 1.965,-14.903 2.207,-19.95 0.348,-7.711 1.133,-8.707 4.809,-5.992 3.176,2.344 4.859,1.59 6.023,-2.609 0.895,-3.235 -0.414,-6.434 -2.847,-7.125 -3.137,-0.86 -3.614,-4.367 -1.59,-11.696 2.375,-8.601 4.883,-11.039 14.211,-13.687 l 11.277,-3.238 -1.992,10.875 c -1.098,5.98 -4.328,12.59 -7.223,14.621 -3.644,2.609 -3.922,3.402 -1.035,2.578 4.82,-1.34 5.094,8.973 0.555,20.504 -1.582,3.992 -2.34,8.801 -1.653,10.758 2.411,7.234 0.411,20.613 -3.164,21.679 -2.336,0.688 -2.132,3.059 0.618,6.5 2.343,2.993 2.957,6.157 1.449,7.051 -1.586,0.895 -1.656,5.442 -0.141,10.117 2.481,7.844 2.133,8.844 -4.472,13.207 -3.918,2.578 -5.196,4.2 -2.821,3.547 2.754,-0.726 3.856,0.653 3.031,3.676 -0.761,2.652 0.274,4.344 2.27,3.758 2.469,-0.727 2.887,-2.789 1.238,-6.434 -2.062,-4.648 -1.445,-4.613 4.535,0.446 9.153,7.671 10.524,6.398 9.629,-9.012 -1.847,-29.758 5.371,-84.285 16.938,-128.219 6.32,-23.769 7.015,-29.203 3.019,-22.391 -2.89,4.918 -6.742,8.567 -8.461,8.082 -1.793,-0.515 -1.921,-2.683 -0.347,-4.812 1.59,-2.137 1.656,-5.234 0.14,-6.883 -1.789,-1.922 -2.269,-1.34 -1.375,1.684 0.961,3.304 0.137,3.718 -2.894,1.515 -2.402,-1.793 -5.363,-1.515 -7.02,0.723 -4.328,5.852 -8.867,3.023 -5.222,-3.266 1.789,-3.031 4.472,-5.168 6.058,-4.75 1.504,0.414 2.34,-0.687 1.785,-2.48 -0.757,-2.649 12.797,-23.738 17.407,-27.102 2.754,-1.968 8.05,9.215 5.57,11.555 -1.516,1.414 -0.688,2.406 1.793,2.273 2.48,-0.105 6.32,-3.199 8.602,-6.847 2.265,-3.617 8.664,-14 14.167,-23.043 15.141,-24.738 45.891,-59.348 61.583,-69.465 3.917,-2.504 8.738,-6.258 10.796,-8.355 3.036,-3.098 2.414,-3.231 -3.371,-0.586 -7.148,3.199 -17.816,5.125 -23.32,4.132 z m -25.664,-5.82 c -0.348,1.274 2.062,3.067 5.297,3.961 3.304,0.926 6.265,0.586 6.605,-0.695 0.41,-1.297 -1.992,-3.055 -5.297,-3.985 -3.23,-0.89 -6.257,-0.586 -6.605,0.719 z m -39.492,502.524 c 1.722,0.49 3.511,-0.44 3.988,-2.09 0.414,-1.62 0.211,-3.13 -0.547,-3.33 -0.691,-0.21 -2.476,0.75 -3.926,2.1 -1.507,1.37 -1.304,2.88 0.485,3.32 z m 13.008,11.64 c -1.383,-1.48 -2.899,-1.24 -3.375,0.48 -1.446,5.22 -6.399,2.02 -5.993,-3.86 0.215,-3.02 -0.75,-4.4 -2.125,-3.02 -1.441,1.38 -2.476,4.44 -2.273,6.81 0.559,7.15 11.902,13.59 22.777,12.87 5.43,-0.39 10.25,-1.93 10.66,-3.48 0.485,-1.58 -2.058,-2.13 -6.054,-1.23 -7.496,1.68 -8.047,-1.97 -0.895,-6.03 3.578,-1.99 3.102,-2.99 -1.992,-4.4 -3.578,-0.97 -6.945,-0.38 -7.434,1.34 -0.48,1.75 -1.925,1.96 -3.296,0.52 z m 16.23,25.45 c -1.719,4.92 -1.371,6.05 1.102,3.71 2,-1.84 4.886,-2.02 6.402,-0.41 2.961,3.17 2.961,3.17 8.258,-11.17 l 3.511,-9.54 -8.332,5.17 c -4.605,2.82 -9.496,8.35 -10.941,12.24 z m -11.145,-3.23 c -3.031,1.37 -5.707,3.16 -5.917,3.96 -0.204,0.82 2.066,0.37 5.093,-0.96 3.028,-1.38 5.645,-3.17 5.918,-3.97 0.203,-0.82 -2.066,-0.41 -5.094,0.97 z m 29.102,14.45 c 5.16,1.41 8.535,-3.61 6.816,-10.12 -0.898,-3.33 -2.062,-4.5 -2.683,-2.61 -0.555,1.9 -2.406,5.33 -4.133,7.67 -1.719,2.31 -1.719,4.58 0,5.06 z m 8.668,5.4 c -0.477,1.76 0.488,3.54 2.133,3.99 1.59,0.44 3.101,0.24 3.308,-0.48 0.204,-0.72 -0.753,-2.51 -2.136,-3.99 -1.301,-1.48 -2.817,-1.24 -3.305,0.48 z m -16.371,-4.4 c -1.172,1.1 1.035,3.54 4.887,5.43 3.851,1.9 7.297,2.48 7.64,1.24 0.895,-3.2 -10.047,-8.98 -12.527,-6.67 z m 28.48,1.47 c 3.032,-1.37 5.098,-3.3 4.621,-4.26 -1.519,-2.61 -8.332,0 -9.296,3.61 -0.547,1.96 1.171,2.21 4.675,0.65 z m 18.926,-12.34 c 1.653,-2.21 1.653,-4.38 0.07,-4.78 -1.582,-0.46 -3.507,1.2 -4.128,3.64 -0.688,2.48 -0.762,4.61 -0.067,4.81 0.617,0.17 2.469,-1.47 4.125,-3.67 z m -43.004,-22.71 c 0.485,-1.65 -0.277,-4.16 -1.648,-5.64 -1.309,-1.48 -2.817,-1.31 -3.309,0.31 -0.402,1.65 0.348,4.2 1.656,5.64 1.379,1.48 2.825,1.34 3.301,-0.31 z m -27.996,-14.52 c 0.406,-1.65 0.199,-3.13 -0.551,-3.33 -0.691,-0.21 -2.48,0.72 -3.925,2.1 -1.516,1.34 -1.243,2.85 0.48,3.33 1.719,0.49 3.508,-0.48 3.996,-2.1 z m -9.844,-30.06 c 2.133,5.67 2.829,5.94 5.5,2.34 1.864,-2.44 1.383,-5.4 -1.097,-7.23 -5.848,-4.33 -7.293,-2.75 -4.403,4.89 z m -32.472,-42.49 c -0.762,-0.207 -2.555,0.726 -3.992,2.097 -1.446,1.348 -1.239,2.864 0.484,3.34 1.789,0.481 3.578,-0.476 3.988,-2.101 0.485,-1.649 0.274,-3.164 -0.48,-3.336 z m 18.297,-2.953 c 1.308,1.441 2.824,1.199 3.304,-0.52 0.828,-3.023 -3.093,-5.637 -9.218,-6.156 -1.582,-0.141 -3.504,-2.309 -4.266,-4.781 -0.758,-2.516 -1.793,-3.204 -2.27,-1.516 -0.48,1.652 0.411,6.566 1.922,10.937 3.172,8.981 9.356,12.219 8.606,4.508 -0.348,-2.926 0.476,-3.988 1.922,-2.472 z m -8.25,-23.125 c 0.679,0.175 2.472,-0.75 3.914,-2.129 1.519,-1.34 1.312,-2.86 -0.407,-3.336 -1.789,-0.481 -3.578,0.476 -3.992,2.097 -0.48,1.653 -0.277,3.164 0.485,3.368 z m -10.118,-9.211 c 1.446,-1.348 1.239,-2.864 -0.48,-3.34 -1.719,-0.481 -3.508,0.476 -3.992,2.097 -0.481,1.649 -0.207,3.165 0.484,3.34 0.754,0.207 2.539,-0.726 3.988,-2.097 z m -5.918,-11.086 c -2.687,4.648 -2.339,5.269 1.86,3.375 2.816,-1.274 4.75,-3.711 4.262,-5.442 -1.372,-4.566 -2.469,-4.187 -6.122,2.067 z m 12.528,0.347 c 5.359,8.606 5.703,8.77 4.332,2.102 -0.895,-3.992 -3.375,-8.606 -5.645,-10.258 -5.64,-4.195 -5.429,-2.644 1.313,8.156 z M 144.961,895.09 c -1.477,1.371 -1.512,3.816 -0.031,5.398 3.816,4.098 7.808,1.032 5.054,-3.851 -1.546,-2.719 -3.195,-3.235 -5.023,-1.547 z m 16.719,-9.324 c -1.922,0.547 -3.852,2.375 -4.328,3.988 -0.418,1.648 0.75,2.543 2.679,1.957 1.922,-0.547 3.856,-2.34 4.262,-3.984 0.488,-1.618 -0.754,-2.512 -2.613,-1.961 z m -7.84,-6.575 c -0.414,1.446 0.621,2.997 2.269,3.442 1.657,0.449 3.504,-1.172 4.2,-3.645 0.687,-2.445 2.816,-4.031 4.746,-3.508 1.855,0.512 2.816,-0.14 2.066,-1.48 -1.59,-2.828 -12.183,1.34 -13.281,5.191 z m -5.024,-4.988 c 3.782,-0.824 7.219,-3.031 7.778,-4.848 0.476,-1.859 -2.406,-1.687 -6.539,0.411 -4.09,2.027 -7.563,4.234 -7.778,4.855 -0.132,0.617 2.793,0.442 6.539,-0.418 z m 17.063,-13.484 c -3.852,2.652 -3.926,3.988 -0.348,6.609 5.785,4.266 8.192,2.68 6.473,-4.305 -1.172,-4.882 -1.992,-5.191 -6.125,-2.304 z m -12.52,-8.946 c 3.235,-2.441 6.809,-5.777 8.047,-7.39 1.242,-1.754 3.375,0.031 5.168,4.297 2.957,7.121 3.016,7.121 3.16,0 0.278,-10.981 -2.961,-12.145 -12.382,-4.508 -9.563,7.777 -13.11,14.652 -3.993,7.601 z m 29.512,-198.906 c -0.75,-0.207 -2.543,0.727 -3.984,2.102 -1.446,1.336 -1.239,2.847 0.48,3.336 1.719,0.48 3.504,-0.489 3.985,-2.098 0.418,-1.656 0.214,-3.137 -0.481,-3.34 z m 110.43,232.172 c -0.547,1.754 0.41,3.512 2.066,3.996 1.653,0.442 3.164,0.238 3.367,-0.523 0.211,-0.719 -0.754,-2.504 -2.125,-3.949 -1.382,-1.481 -2.898,-1.243 -3.308,0.476 z m -30.274,161.721 c 1.516,-1.37 1.172,-2.89 -0.621,-3.37 -1.859,-0.51 -2.336,-1.86 -1.164,-2.92 1.164,-1.11 5.367,-10.87 9.281,-21.67 l 7.161,-19.655 -9.082,3.785 c -9.012,3.79 -9.079,3.79 -18.922,-5.778 -7.082,-6.839 -8.739,-10.382 -5.985,-12.312 2.688,-1.891 2.473,-4.129 -0.617,-7.223 -3.785,-3.75 -2.89,-4.023 5.156,-1.551 12.11,3.688 13.485,7.602 3.926,11.008 -5.918,2.098 -6.539,3.133 -3.371,5.504 4.266,3.098 30.481,-6.465 28.274,-10.355 -0.684,-1.274 0.414,-3.676 2.55,-5.332 2.059,-1.684 5.086,-7.016 6.672,-11.868 1.992,-6.261 1.856,-6.984 -0.484,-2.476 -1.856,3.473 -4.403,5.164 -5.781,3.683 -1.372,-1.445 -2.68,-0.761 -3.028,1.543 -1.371,10.629 -4.402,14.317 -10.383,12.661 -4.546,-1.266 -5.441,-2.922 -3.101,-6.051 1.793,-2.41 2.133,-6.645 0.89,-9.461 -1.226,-2.82 -1.226,-5.742 0.145,-6.469 1.305,-0.754 1.375,-3.613 0.137,-6.398 -2.821,-6.231 1.859,-9.395 5.16,-3.508 1.855,3.164 4.402,2.855 9.906,-1.203 4.133,-3.031 7.844,-6.949 8.332,-8.739 0.547,-1.789 2.121,-2.921 3.641,-2.515 3.097,0.859 4.269,-4.883 2.34,-11.383 -0.684,-2.41 -0.063,-5.504 1.441,-6.883 4.199,-3.918 14.246,-37.496 10.871,-36.535 -1.648,0.484 -2.887,3.652 -2.746,7.09 0.273,6.672 -1.309,6.777 -17.613,1.305 -6.742,-2.27 -9.496,-2.067 -8.672,0.687 0.621,2.203 -1.582,5.742 -4.883,7.844 -5.574,3.543 -5.371,4.75 1.992,14.93 9.356,12.871 9.223,16.105 -0.41,15.96 -8.324,-0.101 -8.598,-0.441 -7.848,-9.832 0.762,-10.152 -3.367,-16.789 -5.57,-8.843 -2.269,8.047 -10.527,11.66 -16.519,7.222 -3.571,-2.644 -4.461,-2.339 -3.438,1.133 1.035,3.578 0.207,3.75 -3.641,0.762 -2.824,-2.133 -7.16,-5.16 -9.632,-6.68 -2.477,-1.504 -4.196,-6.527 -3.852,-11.109 0.481,-6.289 3.297,-9.977 11.695,-14.926 6.051,-3.617 17.887,-11.039 26.282,-16.519 14.175,-9.321 15.203,-10.692 14.863,-20.942 -0.211,-8.746 0.758,-11.324 4.676,-12.457 7.773,-2.269 -6.332,-10.941 -17.614,-10.836 -5.089,0.07 -10.32,-1 -11.558,-2.305 -1.242,-1.312 -4.606,-1.312 -7.496,0 -2.961,1.305 -7.848,0.93 -10.946,-0.855 -3.027,-1.762 -9.902,-2.828 -15.269,-2.309 -13.078,1.207 -13.899,-1.859 -3.234,-12.179 6.949,-6.711 11.003,-8.153 17.96,-6.465 4.95,1.234 12.04,2.094 15.75,1.957 5.778,-0.203 6.266,0.582 3.094,5.437 -4.402,6.813 -2.129,8.02 6.129,3.336 4.68,-2.644 5.363,-4.191 2.961,-6.738 -2.277,-2.48 -1.656,-3.48 2.402,-3.855 4.2,-0.418 5.711,-3.102 6.68,-12.219 0.75,-6.43 0.133,-12.481 -1.312,-13.481 -1.442,-1.031 -4.059,-4.371 -5.848,-7.398 -2.481,-4.469 -2.207,-6.188 1.644,-8.559 2.622,-1.66 5.168,-2.34 5.649,-1.586 1.586,2.684 16.586,-14.859 15.617,-18.265 -1.512,-5.367 0.899,-14.246 3.645,-13.489 1.382,0.379 0.828,-2.414 -1.231,-6.156 -2.066,-3.75 -6.265,-6.883 -9.297,-6.984 -3.984,-0.141 -5.086,-1.957 -3.851,-6.469 0.965,-3.473 0.617,-6.637 -0.754,-7.016 -1.375,-0.382 -3.164,-4.093 -3.926,-8.292 -0.957,-5.434 -1.785,-6.231 -2.891,-2.782 -0.82,2.645 0,7.016 1.86,9.731 4.406,6.293 3.511,9.39 -2.883,10.008 -2.828,0.277 -4.059,-0.477 -2.758,-1.684 3.235,-3.027 -2.336,-6.328 -15.824,-9.461 -8.395,-1.926 -10.731,-3.547 -8.734,-6.156 1.371,-1.961 0.683,-4.059 -1.586,-4.68 -2.2,-0.652 -4.407,-3.023 -4.746,-5.332 -0.411,-2.305 -0.758,-0.789 -0.899,3.375 l -0.133,7.566 -5.918,-7.636 c -5.644,-7.293 -5.57,-8.016 1.035,-15.344 l 6.95,-7.703 -7.844,4.23 c -6.059,3.301 -9.43,8.91 -14.867,24.77 -3.852,11.25 -7.91,26 -9.008,32.746 -8.879,53.805 -9.156,99.18 -0.969,146.344 2.137,11.933 3.375,23.258 2.891,25.148 -0.551,1.895 1.105,4.024 3.648,4.711 2.543,0.727 3.512,2.375 1.992,3.711 -1.441,1.418 -0.476,2.242 2.414,1.969 3.504,-0.348 4.747,2.129 4.262,8.461 -0.34,4.918 -0.273,13.343 0.141,18.746 0.414,5.406 0.066,12.183 -0.824,15.074 -0.895,2.852 -0.551,4.949 0.75,4.641 1.312,-0.344 4.609,3.402 7.23,8.328 2.68,4.918 4.121,8.699 3.164,8.461 -0.965,-0.274 0.133,3.09 2.41,7.425 2.27,4.34 2.891,9.567 1.371,11.598 -1.511,2.027 -1.168,4.125 0.758,4.645 2.133,0.621 2.133,3.097 0,6.429 -2.066,3.103 -2.199,5.773 -0.347,6.293 1.726,0.48 3.718,-1.03 4.339,-3.37 0.957,-3.606 2.274,-3.231 8.809,2.65 9.977,8.98 11.207,14 3.918,15.79 -5.504,1.34 -5.57,1.93 -0.824,7.64 4.269,5.16 6.121,5.74 10.941,3.58 5.156,-2.34 5.223,-1.62 1.024,6.39 -4.606,8.71 -2.122,13.87 3.925,8.26 z m 30.071,-45.2 c 0.613,-1.923 -0.071,-4.751 -1.442,-6.197 -3.031,-3.297 -3.304,-2.265 -1.242,4.473 1.027,3.164 2.066,3.854 2.684,1.724 z m 6.804,-161.83 c 3.45,-1.921 4.133,-4.574 3.102,-11.277 -0.762,-4.785 -0.348,-9.734 1.031,-10.976 4.473,-4.129 -2.75,-3.883 -9.355,0.308 -7.645,4.817 -7.774,5.297 -3.86,11.32 v 0 c 1.719,2.547 4.133,4.059 5.442,3.333 1.238,-0.719 1.578,1.207 0.758,4.273 -1.172,4.227 -0.485,4.949 2.882,3.019 z m 1.864,-30.957 c 5.64,-3.433 7.504,-5.773 4.75,-5.882 -2.543,-0.106 -4.2,-2.27 -3.715,-4.75 0.551,-2.504 -0.965,-4.637 -3.309,-4.782 -2.34,-0.097 -4.949,-2.269 -5.711,-4.742 -0.754,-2.512 -1.789,-3.195 -2.265,-1.515 -0.481,1.648 1.308,6.878 3.925,11.589 4.125,7.227 4.051,8.809 -0.281,10.082 -2.82,0.829 -4.543,2.446 -3.926,3.618 0.696,1.129 5.375,-0.493 10.532,-3.618 z m -23.942,-29.136 c -3.508,2.445 -3.722,3.781 -1.035,5.785 2.066,1.543 4.266,0.336 5.438,-2.938 2.402,-6.558 1.652,-7.078 -4.403,-2.847 z m 31.852,-0.446 c 0.617,-2.48 0.691,-4.617 0.07,-4.785 -0.691,-0.168 -2.543,1.481 -4.129,3.653 -1.644,2.195 -1.644,4.363 -0.07,4.808 1.59,0.414 3.437,-1.238 4.129,-3.676 z m 12.863,-5.679 c 5.918,-3.403 4.27,-5.883 -4.402,-6.602 -1.578,-0.14 -3.438,-2.308 -4.192,-4.785 -0.761,-2.539 -1.793,-3.234 -2.207,-1.582 -0.414,1.656 0.414,6.02 1.934,9.734 2.473,6.196 3.16,6.465 8.867,3.235 z m 11.496,-7.254 c 2.754,-0.278 4.539,-1.93 3.992,-3.649 -1.035,-3.683 -7.019,-2.617 -8.191,1.407 -0.41,1.476 1.512,2.511 4.199,2.242 z m -33.097,-18.82 c -3.098,0.308 -6.122,0.414 -6.809,0.238 -0.621,-0.168 -0.895,2.133 -0.555,5.168 0.348,3.676 -0.414,4.426 -2.406,2.363 -1.578,-1.719 -3.23,-1.719 -3.711,0.039 -0.488,1.719 0.273,3.473 1.719,3.852 v 0.035 c 1.441,0.379 5.984,-2.199 10.043,-5.778 6.875,-6.027 6.949,-6.429 1.719,-5.917 z m 26.554,-9.567 c 1.113,-4.023 -3.844,-5.574 -7.422,-2.269 -4.34,4.027 -7.574,1.586 -7.504,-5.672 0.141,-6.813 9.016,-14.66 11.489,-10.188 0.761,1.309 1.859,1.172 2.41,-0.273 7.433,-18.715 7.433,-18.336 -1.375,-15.52 -4.543,1.446 -8.602,3.992 -9.016,5.649 -0.48,1.613 -3.301,1.55 -6.398,-0.243 -6.606,-3.816 -7.086,-3.027 -2.821,4.504 1.793,3.133 1.793,7.602 0.067,9.977 -2.887,3.957 -3.57,3.754 -7.43,-2.309 -2.265,-3.609 -4.332,-5.918 -4.539,-5.089 -0.273,0.792 2.887,6.71 6.953,13.148 4.059,6.465 9.145,12.859 11.278,14.305 4.132,2.82 12.867,-0.86 14.308,-6.02 z m 11.766,-8.426 c -1.297,-2.816 -3.711,-4.754 -5.43,-4.265 -4.609,1.34 -4.199,2.511 2.063,6.125 4.609,2.683 5.234,2.375 3.367,-1.86 z m 11.769,-1.34 c 1.446,-1.382 1.239,-2.859 -0.48,-3.339 -1.785,-0.477 -3.582,0.48 -3.992,2.101 -0.481,1.645 -0.274,3.125 0.488,3.34 0.684,0.203 2.469,-0.762 3.984,-2.102 z M 320.965,698 c -0.692,-1.168 -3.309,-0.93 -5.918,0.551 -3.723,2.133 -3.512,2.582 1.238,2.133 3.235,-0.313 5.297,-1.512 4.68,-2.684 z m -6.61,-5.637 c 0.485,-1.652 -0.484,-3.34 -2.136,-3.789 -1.649,-0.476 -3.297,0.485 -3.781,2.137 -0.485,1.652 0.546,3.371 2.132,3.816 1.649,0.45 3.375,-0.511 3.785,-2.164 z m 18.848,0.133 c 5.305,-3.09 6.602,-5.43 5.031,-9.082 -1.718,-3.984 -2.754,-3.984 -5.781,0 -7.226,9.633 -6.883,13.559 0.75,9.082 z m -11.687,-14.379 c -0.422,1.551 0.339,3.988 1.718,5.438 v 0 c 1.371,1.508 2.196,0.445 1.918,-2.481 -0.547,-5.711 -2.402,-7.254 -3.636,-2.957 z m -1.864,-16.133 -9.558,5.407 c -11.422,6.461 -11.492,6.707 -5.574,12.347 3.367,3.164 4.953,3.403 5.636,0.825 0.559,-1.993 2.899,-6.985 5.235,-11.11 z M 309.605,582.07 c 1.586,0.45 3.305,-0.515 3.786,-2.164 0.414,-1.621 -0.551,-3.34 -2.2,-3.781 -1.586,-0.453 -3.304,0.512 -3.785,2.121 -0.414,1.66 0.547,3.383 2.199,3.824 z m -8.871,106.778 c 1.446,-1.27 1.508,-3.438 0.204,-4.848 -1.309,-1.371 -3.504,-1.48 -4.883,-0.164 -1.375,1.262 -1.45,3.469 -0.141,4.844 1.238,1.41 3.441,1.476 4.82,0.168 z m -51.191,-11.172 c -3.027,1.34 -5.848,3.82 -6.324,5.429 -0.414,1.688 1.644,1.895 4.679,0.512 3.02,-1.371 5.844,-3.816 6.329,-5.429 0.414,-1.684 -1.653,-1.891 -4.684,-0.512 z m 9.223,7.324 c 1.855,-0.555 4.058,-3.266 4.812,-6.059 1.168,-4.332 0.758,-4.535 -2.82,-1.371 -5.367,4.785 -6.465,8.735 -1.992,7.43 z m -21.465,-50.094 c -0.488,1.864 -2.481,5.578 -4.34,8.293 -3.234,4.684 -3.098,4.75 3.512,1.239 5.433,-2.856 6.398,-4.676 4.336,-8.254 -1.789,-3.164 -2.887,-3.582 -3.508,-1.278 z m 90.679,17.723 c 8.387,-3.961 16.512,-5.953 17.891,-4.406 3.301,3.547 19.609,-1.446 20.848,-6.395 0.617,-2.34 -0.489,-2.34 -3.106,0 -3.574,3.164 -3.984,2.957 -2.742,-1.445 0.887,-3.539 -0.351,-4.957 -4.133,-4.617 -4.617,0.457 -4.746,-0.86 -0.965,-8.352 2.481,-4.918 3.231,-9.258 1.786,-9.703 -1.512,-0.383 -1.446,-3.438 0.207,-6.742 1.66,-3.301 2.273,-9.188 1.386,-13.078 -1.172,-5.121 -0.625,-7.149 1.922,-7.289 4.055,-0.207 2.754,-16.032 -1.445,-17.164 -4.746,-1.309 -5.918,-14.93 -1.512,-17.407 5.77,-3.269 6.328,-6.918 1.238,-8.297 -2.343,-0.652 -5.507,1.688 -7.089,5.266 -4.2,9.668 -8.875,6.191 -7.5,-5.539 l 1.23,-10.32 -10.449,6.261 c -8.262,4.953 -10.801,8.567 -12.387,17.411 -1.441,8.535 -2.816,10.527 -5.644,8.46 -1.993,-1.511 -3.297,-3.921 -2.887,-5.402 1.656,-6.019 -5.086,-3.367 -18.293,7.293 -7.781,6.227 -16.863,14.176 -20.168,17.684 -20.227,21.293 -25.32,26.906 -25.934,28.66 -0.343,1.062 -1.925,2.68 -3.507,3.57 -5.508,3.137 -4.543,8.16 3.093,15.766 7.84,7.91 6.325,13.828 -2.961,11.238 -6.121,-1.68 -21.195,5.512 -22.429,10.738 -0.551,1.996 2.754,1.063 7.297,-2.101 v 0 c 4.539,-3.125 10.527,-5.297 13.273,-4.821 2.754,0.524 7.984,0.622 11.563,0.215 5.988,-0.652 6.05,-0.308 0.96,3.297 -4.886,3.481 -5.16,4.82 -2.132,10.117 3.234,5.68 3.511,5.614 3.582,-0.75 0.066,-4.035 1.441,-6.539 3.433,-5.992 1.793,0.481 2.688,3.059 1.992,5.707 -0.82,3.028 0.493,4.613 3.582,4.305 2.758,-0.277 4.61,0.894 4.129,2.582 -0.476,1.68 0.895,2.539 3.028,1.918 5.918,-1.719 7.363,7.711 1.855,11.672 -3.781,2.707 -3.847,3.129 -0.062,2.062 2.961,-0.797 5.297,0.547 6.191,3.508 1.098,3.543 2.195,2.891 4.059,-2.48 1.445,-4.024 3.019,-9.286 3.511,-11.731 0.543,-2.41 2.957,-6.43 5.297,-8.937 2.957,-3.102 3.293,-4.821 1.098,-5.442 -1.859,-0.511 -1.992,-2.066 -0.477,-3.472 1.508,-1.446 1.649,-4.989 0.411,-7.879 -1.379,-2.961 -0.965,-8.395 0.96,-12.145 2.196,-4.535 1.997,-6.672 -0.691,-6.43 -2.41,0.239 -3.851,-4.718 -3.641,-12.734 0.207,-10.039 1.168,-13.238 4.332,-13.547 2.27,-0.215 4.676,-2.312 5.297,-4.676 0.899,-3.238 0,-3.761 -3.711,-2.101 -3.718,1.68 -4.613,1.133 -3.652,-2.242 0.695,-2.473 1.586,-8.535 2.066,-13.485 1.172,-13.965 6.743,-17.129 16.301,-9.289 5.649,4.61 7.235,8.258 5.508,13.18 -1.238,3.746 -3.504,5.879 -5.09,4.746 -1.515,-1.133 -3.785,0.754 -4.953,4.164 -1.652,4.469 -1.238,5.266 1.371,2.82 5.094,-4.714 9.91,1.586 7.02,9.114 -1.305,3.437 -1.992,8.879 -1.578,12.113 0.476,3.269 -0.758,8.633 -2.688,11.969 -2.133,3.711 -2.133,8.843 0,13.246 2.617,5.297 2.414,7.219 -0.547,7.433 -4.543,0.305 -7.015,5.364 -3.168,6.399 1.379,0.371 9.364,-2.551 17.824,-6.504 z m 39.766,16.785 c 1.375,-1.82 2.274,-5.16 1.992,-7.43 -0.207,-2.304 -1.379,-0.789 -2.539,3.305 -1.105,4.094 -0.898,5.945 0.547,4.125 z m 2.754,-17.851 c 0.691,-2.547 -0.273,-4.165 -2.207,-3.614 -1.926,0.555 -3.781,2.274 -4.258,3.821 -0.422,1.546 0.613,3.164 2.195,3.613 1.653,0.441 3.575,-1.242 4.27,-3.82 z m 13.066,-40.7 c 1.934,-10.84 4.266,-16.758 6.61,-16.886 2.062,-0.11 1.242,-4.786 -1.934,-10.836 -4.804,-9.293 -5.769,-9.953 -7.422,-5.133 -1.035,3.066 -2.136,7.297 -2.48,9.43 -0.274,2.097 -1.922,3.437 -3.641,2.992 -1.73,-0.485 -3.652,1.242 -4.406,3.785 -0.691,2.543 -2.332,3.437 -3.719,1.957 -3.371,-3.613 -3.644,-1.481 -0.48,4.058 3.644,6.407 7.16,6.743 8.742,0.836 1.094,-3.89 1.992,-4.035 3.914,-0.621 1.855,3.235 1.172,6.082 -2.547,10.559 -4.258,5.086 -4.328,7.019 -0.332,11.351 4.531,4.989 4.949,4.473 7.695,-11.492 z M 364.719,510.758 c -1.719,-0.485 -3.508,0.449 -3.996,2.097 -0.41,1.649 -0.203,3.125 0.488,3.34 0.754,0.203 2.551,-0.761 3.984,-2.097 1.446,-1.383 1.243,-2.856 -0.476,-3.34 z m 17.89,40.316 c -4.062,-5.398 -3.996,-6.808 0.75,-10.488 3.039,-2.34 5.508,-7.055 5.508,-10.531 0.071,-3.403 2.551,-8.082 5.508,-10.317 3.02,-2.277 3.984,-3.41 2.199,-2.586 -1.855,0.832 -5.781,-1.336 -8.879,-4.812 -3.437,-3.922 -6.531,-5.367 -8.113,-3.887 -1.516,1.371 -0.547,3.027 1.992,3.746 2.547,0.692 4.266,2.617 3.778,4.239 -0.399,1.644 -1.844,2.718 -3.086,2.371 -2.618,-0.727 -13.7,8.843 -11.563,10.011 v 0 c 0.762,0.446 3.027,1.446 5.02,2.196 1.992,0.793 2.89,4.097 1.992,7.363 -0.887,3.273 -1.024,7.879 -0.274,10.254 0.762,2.406 -0.82,6.64 -3.503,9.461 -4.133,4.336 -3.985,5.371 0.82,6.707 8.535,2.34 13.426,-6.266 7.851,-13.727 z m 27.176,-6.879 c 0.207,-0.722 -0.75,-2.511 -2.137,-3.988 -1.378,-1.445 -2.89,-1.207 -3.3,0.512 -0.481,1.719 0.41,3.511 2.07,3.988 1.648,0.449 3.164,0.211 3.367,-0.512 z M 235.367,1106.41 c -0.476,1.65 0.551,3.38 2.141,3.82 1.644,0.45 3.363,-0.51 3.851,-2.17 0.407,-1.65 -0.55,-3.33 -2.207,-3.78 -1.644,-0.48 -3.371,0.52 -3.785,2.13 z M 421.27,419.766 c -2.606,5.714 -0.75,6.808 8.261,4.882 9.426,-1.992 13.282,-0.203 11.77,5.372 -0.422,1.515 -1.789,1.582 -2.961,0.273 -2.684,-2.82 -8.809,4.746 -7.508,9.219 0.488,1.789 2.481,3.613 4.481,4.133 2.199,0.585 2.128,-0.625 -0.079,-3.028 -1.992,-2.199 -2.468,-4.679 -1.023,-5.441 3.926,-2.196 11.277,4.269 9.492,8.398 -3.301,7.871 -2.473,10.977 3.719,13.653 4.805,2.128 5.773,4.472 3.644,9.668 -3.789,9.566 -0.207,15.683 9.844,16.855 7.762,0.895 7.977,1.242 2.129,3.785 -7.09,3.137 -9.973,9.117 -5.09,10.496 1.719,0.481 2.676,-0.726 2.129,-2.621 -0.547,-1.922 0.547,-3.09 2.414,-2.543 1.856,0.512 2.332,2.446 1.024,4.297 -1.239,1.824 -5.086,2.445 -8.602,1.348 -3.508,-1.098 -6.601,-1.035 -6.945,0.133 -0.34,1.171 -3.711,2.066 -7.5,2.031 -5.645,-0.067 -6.465,0.863 -4.473,5.297 2.07,4.507 1.379,4.886 -4.129,2.203 -3.574,-1.754 -5.019,-1.918 -3.234,-0.375 1.797,1.547 2.687,4.676 2.07,6.976 -0.625,2.344 0.207,4.618 1.789,5.059 1.649,0.453 2.617,2.172 2.196,3.781 -0.477,1.656 -3.165,2.379 -6.055,1.59 -2.879,-0.793 -7.703,1.512 -10.731,5.059 -3.027,3.543 -4.191,6.121 -2.675,5.632 1.503,-0.445 3.015,1.383 3.289,4.036 0.214,2.644 -1.231,5.296 -3.368,5.918 -2.472,0.714 -2.335,2.503 0.352,5.156 5.02,4.949 3.848,11.422 -1.387,7.601 -2.265,-1.683 -5.019,-0.55 -6.945,2.789 -2.332,4.024 -1.922,5.434 1.516,5.086 5.781,-0.55 5.027,3.2 -1.309,6.848 -3.859,2.199 -3.645,2.617 0.965,2.172 6.672,-0.621 6.613,1.406 -0.418,8.769 -4.258,4.5 -4.192,5.196 0.418,4.75 5.644,-0.554 6.055,0.786 5.226,16.543 -0.343,6.914 -1.378,8.422 -4.132,6.399 -1.993,-1.481 -7.559,-0.996 -12.442,1 -5.371,2.265 -6.609,3.539 -3.105,3.301 3.234,-0.239 5.371,0.996 4.824,2.855 -0.488,1.82 1.301,3.922 4.055,4.68 2.683,0.762 3.711,2.062 2.136,2.957 -1.511,0.859 -4.949,1.027 -7.566,0.308 -2.617,-0.687 -5.715,0.172 -6.887,1.895 -1.308,2.031 0.274,3.199 4.473,3.262 6.535,0.074 6.398,0.586 -25.32,117.445 -17.539,64.57 -32.813,119.859 -33.985,122.852 -1.105,2.996 -0.137,7.91 2.129,10.91 2.754,3.566 2.82,5.082 0.215,4.437 -2.141,-0.558 -3.586,0.199 -3.164,1.645 0.476,1.445 -2.07,8.359 -5.508,15.312 -3.516,6.946 -13.898,39.664 -23.121,72.723 l -16.719,60.063 -9.836,4.09 c -5.437,2.24 -7.707,4.13 -5.093,4.16 5.707,0.07 10.941,8.37 8.39,13.35 -1.027,1.96 0.969,4.85 4.406,6.37 4.821,2.17 5.571,4.71 3.504,11.49 -1.437,4.78 -4.257,8.22 -6.324,7.67 -1.996,-0.58 -5.437,2.1 -7.641,5.89 -2.132,3.82 -5.843,6.39 -8.324,5.7 -2.406,-0.65 -4.75,0.03 -5.156,1.55 -0.414,1.55 -3.164,4.13 -6.059,5.78 -4.539,2.58 -4.609,3.79 -0.48,8.29 4.332,4.71 4.953,4.55 5.715,-1.55 0.476,-3.78 2.402,-6.95 4.262,-7.08 1.859,-0.11 2.542,3.92 1.585,8.98 -1.171,5.71 -3.238,8.77 -5.574,8.15 -2.824,-0.72 -2.886,-0.04 -0.418,2.75 4.203,4.64 -1.511,10.56 -6.597,6.82 -2.067,-1.52 -4.067,-1.56 -4.473,-0.11 -0.418,1.48 1.441,3.96 4.125,5.47 3.988,2.33 3.855,2.58 -1.234,1.48 -8.954,-2 -12.868,-7.64 -8.954,-12.94 2.133,-2.85 5.028,-3.4 7.711,-1.44 2.547,1.82 2.063,-0.72 -1.101,-6.06 -5.094,-8.53 -5.715,-8.8 -8.055,-3.82 -1.922,4.06 -3.914,4.44 -8.461,1.62 -3.23,-2.07 -6.875,-5.29 -8.043,-7.15 -3.097,-5.13 -7.363,-5.48 -6.121,-0.55 0.824,3.44 0.477,3.33 -1.933,-0.52 -1.649,-2.68 -5.43,-5.51 -8.461,-6.37 -3.098,-0.82 -4.332,-2.65 -2.887,-3.99 1.512,-1.4 -0.555,-3.37 -4.75,-4.5 -4.059,-1.14 -7.5,-3.17 -7.707,-4.54 -0.203,-1.38 -5.918,-7.64 -12.66,-13.9 -6.742,-6.26 -14.727,-16.06 -17.821,-21.74 -3.093,-5.71 -6.671,-10.67 -7.98,-11.04 -4.883,-1.35 -29.481,-42.076 -28.207,-46.721 0.414,-1.383 -0.719,-2.926 -2.477,-3.406 -3.234,-0.895 -12.347,-18.547 -12.492,-24.289 -0.066,-1.754 -2.371,-6.324 -5.156,-10.109 -4.817,-6.504 -19.8829,-49.438 -18.7814,-53.461 0.3125,-1.036 -1.5156,-7.911 -4.0234,-15.305 -13.7656,-40.395 -15.1445,-103.242 -3.582,-161.969 1.8164,-9.082 2.6875,-17.508 1.9609,-18.711 -2.5781,-4.195 20.6449,-66.91 32.3709,-87.414 24.457,-42.758 50.778,-75.683 58.762,-73.543 4.129,1.098 4.262,0.719 1.027,-3 -3.164,-3.679 -2.89,-4.437 2.41,-5.844 3.368,-0.894 6.598,-3.718 7.364,-6.265 0.75,-2.852 2.746,-3.543 5.156,-1.75 2.133,1.582 5.227,1.609 6.883,0.14 1.926,-1.761 1.371,-2.277 -1.516,-1.457 -3.031,0.899 -3.648,0.075 -1.859,-2.402 1.383,-2.059 4.746,-2.918 7.433,-1.93 3.852,1.414 4.403,0.731 2.614,-3.304 -2.887,-6.364 2.136,-5.328 6.05,1.207 2.411,3.996 2.625,3.41 1.243,-3.235 -0.965,-4.535 -0.551,-6.879 0.824,-5.324 1.441,1.508 3.996,1.445 5.715,-0.144 2.195,-2.024 3.851,-0.926 5.57,3.711 1.371,3.621 2.891,5.058 3.437,3.203 0.489,-1.856 -0.207,-4.539 -1.511,-6.02 -3.574,-3.816 -1.653,-8.461 3.023,-7.191 2.141,0.621 9.156,-2.508 15.481,-6.91 6.34,-4.438 13.902,-7.399 16.793,-6.61 2.882,0.828 5.57,0.246 5.984,-1.269 0.41,-1.516 16.516,-11.836 35.777,-22.871 19.262,-11.086 33.512,-18.106 31.645,-15.586 -1.856,2.539 -2.059,4.949 -0.477,5.371 2.754,0.75 3.856,-0.899 7.293,-10.539 0.821,-2.266 3.508,-4.227 5.989,-4.364 2.675,-0.136 3.3,0.86 1.511,2.508 -1.855,1.758 -1.101,2.578 2.129,2.278 3.313,-0.313 4.68,1.199 3.789,4.296 -0.683,2.606 0.684,5.332 3.098,5.985 2.617,0.722 4.129,-0.723 3.855,-3.711 -0.625,-6.57 10.246,-7.539 12.375,-1.113 1.309,4.101 2.274,4.199 5.918,0.664 6.473,-6.231 12.246,-0.477 8.055,8.019 -3.23,6.492 -2.82,7.078 5.645,7.352 5.011,0.176 10.859,-0.41 13.066,-1.309 2.199,-0.926 4.473,-0.711 5.156,0.449 0.696,1.172 1.66,-0.339 2.278,-3.406 0.546,-3.019 -0.411,-7.109 -2.207,-9.082 -2.54,-2.812 -2.2,-4.23 1.718,-6.984 3.992,-2.754 4.278,-4.2 1.446,-7.325 -1.926,-2.136 -5.364,-3.71 -7.637,-3.574 -4.406,0.41 -3.438,-6.054 2.48,-16.101 3.231,-5.43 13.348,-7.16 10.868,-1.789" /><path
         id="path36"
         style="fill:#dc3822;fill-opacity:1;fill-rule:nonzero;stroke:none"
         d="m 381.191,199.855 c -3.718,-13.683 -2.617,-17.128 2.688,-8.769 2.402,3.789 4.051,7.703 3.641,8.699 -2.274,5.508 -1.102,7.539 2.48,4.336 3.359,-2.957 3.781,-2.293 2.266,3.274 -2.411,9.05 -7.637,5.507 -11.075,-7.54" /><path
         id="path38"
         style="fill:#dc3822;fill-opacity:1;fill-rule:nonzero;stroke:none"
         d="m 375.957,209.25 c -4.266,-8.156 -3.367,-12.414 1.582,-7.121 2.961,3.164 6.399,16.34 4.133,15.684 -0.832,-0.204 -3.371,-4.051 -5.715,-8.563" /><path
         id="path40"
         style="fill:#dc3822;fill-opacity:1;fill-rule:nonzero;stroke:none"
         d="m 582.16,158.164 c 0.477,-1.648 2.41,-3.437 4.336,-3.992 1.922,-0.578 3.094,0.312 2.676,1.961 -0.481,1.621 -2.402,3.437 -4.328,3.996 -1.922,0.547 -3.106,-0.313 -2.684,-1.965" /><path
         id="path42"
         style="fill:#dc3822;fill-opacity:1;fill-rule:nonzero;stroke:none"
         d="m 625.852,139.348 c 2.546,-1.758 4.05,-5.047 3.437,-7.297 -0.762,-2.582 0.203,-3.16 2.547,-1.571 6.465,4.258 3.164,14.786 -4.129,13.34 -5.227,-0.996 -5.578,-1.867 -1.855,-4.472" /><path
         id="path44"
         style="fill:#dc3822;fill-opacity:1;fill-rule:nonzero;stroke:none"
         d="m 600.734,137.281 c 0.477,-1.64 2.137,-2.609 3.719,-2.203 1.582,0.453 2.676,-1.238 2.481,-3.707 -0.489,-4.891 14.238,-6.152 18.507,-1.621 3.575,3.922 1.094,9.117 -2.961,6.121 -1.992,-1.473 -6.542,-0.68 -10.117,1.688 -6.875,4.679 -12.937,4.543 -11.629,-0.278" /><path
         id="path46"
         style="fill:#dc3822;fill-opacity:1;fill-rule:nonzero;stroke:none"
         d="m 560.617,185.586 c 1.727,-2.371 4.551,-3.418 6.199,-2.273 4.68,3.132 2.2,7.5 -3.925,6.98 -3.914,-0.273 -4.61,-1.621 -2.274,-4.707" /><path
         id="path48"
         style="fill:#dc3822;fill-opacity:1;fill-rule:nonzero;stroke:none"
         d="m 569.707,180.012 c 0.481,-1.66 2.199,-2.617 3.848,-2.168 1.66,0.449 2.617,2.168 2.14,3.777 -0.48,1.66 -2.14,2.617 -3.789,2.168 -1.652,-0.449 -2.609,-2.168 -2.199,-3.777" /><path
         id="path50"
         style="fill:#dc3822;fill-opacity:1;fill-rule:nonzero;stroke:none"
         d="m 195.762,240.246 c -1.446,1.336 -3.914,2.129 -5.43,1.688 -1.586,-0.418 -2.48,-2.098 -1.996,-3.75 0.41,-1.661 2.891,-2.411 5.434,-1.688 2.546,0.692 3.437,2.371 1.992,3.75" /><path
         id="path52"
         style="fill:#dc3822;fill-opacity:1;fill-rule:nonzero;stroke:none"
         d="m 263.742,242.961 c -1.719,-0.481 -1.992,-1.953 -0.484,-3.332 1.445,-1.348 3.23,-2.305 3.996,-2.098 0.684,0.203 0.891,1.68 0.476,3.34 -0.476,1.649 -2.265,2.578 -3.988,2.09" /><path
         id="path54"
         style="fill:#dc3822;fill-opacity:1;fill-rule:nonzero;stroke:none"
         d="m 425.637,156.34 c 0.41,-1.582 2.605,-1.543 4.812,0.066 2.199,1.621 3.86,3.477 3.645,4.133 -0.207,0.652 -2.336,0.613 -4.817,-0.07 -2.402,-0.684 -4.05,-2.547 -3.64,-4.129" /><path
         id="path56"
         style="fill:#dc3822;fill-opacity:1;fill-rule:nonzero;stroke:none"
         d="m 496.504,201.445 c 0.48,-1.66 2.199,-2.617 3.848,-2.136 1.582,0.449 2.55,2.136 2.128,3.777 -0.476,1.66 -2.195,2.617 -3.777,2.18 -1.652,-0.461 -2.617,-2.18 -2.199,-3.821" /><path
         id="path58"
         style="fill:#dc3822;fill-opacity:1;fill-rule:nonzero;stroke:none"
         d="m 510.266,157.648 c 1.093,-0.617 3.086,0.899 4.539,3.379 1.504,2.743 1.3,4.149 -0.555,3.641 -3.984,-1.063 -6.535,-5.574 -3.984,-7.02" /><path
         id="path60"
         style="fill:#dc3822;fill-opacity:1;fill-rule:nonzero;stroke:none"
         d="m 391.789,184.582 c 1.719,0.898 3.574,0.242 4.051,-1.516 0.48,-1.718 1.797,-2.089 2.961,-0.82 2.48,2.578 -3.723,16.856 -6.887,15.957 -1.094,-0.301 -3.23,-2.605 -4.676,-5.156 -3.027,-5.359 0,-10.899 4.551,-8.465" /><path
         id="path62"
         style="fill:#dc3822;fill-opacity:1;fill-rule:nonzero;stroke:none"
         d="m 319.332,181.418 c 0.484,-1.652 2.207,-2.609 3.852,-2.168 1.589,0.449 2.613,2.168 2.132,3.789 -0.414,1.649 -2.132,2.617 -3.777,2.168 -1.648,-0.449 -2.617,-2.168 -2.207,-3.789" /><path
         id="path64"
         style="fill:#dc3822;fill-opacity:1;fill-rule:nonzero;stroke:none"
         d="m 490.168,201.301 c -1.926,0.547 -3.164,-0.344 -2.676,-1.953 0.477,-1.653 2.403,-3.438 4.336,-4.024 1.922,-0.558 3.086,0.34 2.606,1.992 -0.411,1.61 -2.332,3.399 -4.266,3.985" /><path
         id="path66"
         style="fill:#dc3822;fill-opacity:1;fill-rule:nonzero;stroke:none"
         d="m 123.664,228.547 c -0.695,2.547 -2.414,3.445 -3.785,1.933 -2.27,-2.453 0.621,-7.812 3.785,-6.953 0.688,0.203 0.75,2.481 0,5.02" /><path
         id="path68"
         style="fill:#dc3822;fill-opacity:1;fill-rule:nonzero;stroke:none"
         d="m 614.016,147.324 c 0.41,-1.609 2.129,-2.578 3.789,-2.129 1.648,0.45 2.605,2.168 2.129,3.789 -0.411,1.653 -2.129,2.61 -3.789,2.161 -1.653,-0.481 -2.54,-2.161 -2.129,-3.821" /></g></g></svg>